<svg xmlns="http://www.w3.org/2000/svg" viewBox="0 0 800 450" width="800" height="450">
  <defs>
    <linearGradient id="bg4" x1="0" y1="0" x2="800" y2="450" gradientUnits="userSpaceOnUse">
      <stop offset="0%" stop-color="#0a0a1a"/>
      <stop offset="100%" stop-color="#1a0a2e"/>
    </linearGradient>
  </defs>
  <rect width="800" height="450" fill="url(#bg4)"/>
  <rect x="0" y="390" width="800" height="60" fill="#111"/>
  <line x1="0" y1="390" x2="800" y2="390" stroke="#333" stroke-width="2"/>
  <text x="400" y="50" text-anchor="middle" font-family="Arial, sans-serif" font-size="32" font-weight="bold" fill="#ff00ff">ARCADE ZONE</text>
  <text x="400" y="75" text-anchor="middle" font-family="Arial, sans-serif" font-size="13" fill="#cc66ff">Super Bear Adventure Mini-Games</text>
  <g transform="translate(70, 95)">
    <rect x="0" y="0" width="120" height="290" rx="8" fill="#c0392b"/>
    <rect x="10" y="15" width="100" height="80" rx="4" fill="#001122"/>
    <circle cx="60" cy="50" r="15" fill="none" stroke="#ff4444" stroke-width="2" opacity="0.8"/>
    <circle cx="60" cy="50" r="8" fill="#ff4444" opacity="0.4"/>
    <text x="60" y="85" text-anchor="middle" font-family="Arial, sans-serif" font-size="8" fill="#ff6666">TARGET BLAST</text>
    <circle cx="60" cy="130" r="18" fill="#222" stroke="#444" stroke-width="2"/>
    <circle cx="40" cy="170" r="6" fill="#ff0000"/>
    <circle cx="60" cy="170" r="6" fill="#ffff00"/>
    <circle cx="80" cy="170" r="6" fill="#00ff00"/>
    <rect x="45" y="210" width="30" height="5" rx="2" fill="#222"/>
    <rect x="35" y="240" width="50" height="40" rx="4" fill="#8b0000"/>
    <text x="60" y="265" text-anchor="middle" font-family="Arial, sans-serif" font-size="9" font-weight="bold" fill="#ffd700">INSERT COIN</text>
  </g>
  <g transform="translate(230, 95)">
    <rect x="0" y="0" width="120" height="290" rx="8" fill="#2980b9"/>
    <rect x="10" y="15" width="100" height="80" rx="4" fill="#001122"/>
    <path d="M30,80 L50,40 L60,60 L70,35 L90,80" fill="none" stroke="#44ff44" stroke-width="2"/>
    <text x="60" y="85" text-anchor="middle" font-family="Arial, sans-serif" font-size="8" fill="#66aaff">HONEY RACING</text>
    <circle cx="60" cy="130" r="18" fill="#222" stroke="#444" stroke-width="2"/>
    <circle cx="40" cy="170" r="6" fill="#ff0000"/>
    <circle cx="60" cy="170" r="6" fill="#ffff00"/>
    <circle cx="80" cy="170" r="6" fill="#00ff00"/>
    <rect x="45" y="210" width="30" height="5" rx="2" fill="#222"/>
    <rect x="35" y="240" width="50" height="40" rx="4" fill="#1a5276"/>
    <text x="60" y="265" text-anchor="middle" font-family="Arial, sans-serif" font-size="9" font-weight="bold" fill="#ffd700">INSERT COIN</text>
  </g>
  <g transform="translate(400, 95)">
    <rect x="0" y="0" width="120" height="290" rx="8" fill="#27ae60"/>
    <rect x="10" y="15" width="100" height="80" rx="4" fill="#001122"/>
    <circle cx="40" cy="55" r="10" fill="#8B4513"/>
    <circle cx="60" cy="65" r="10" fill="#8B4513"/>
    <circle cx="80" cy="50" r="10" fill="#8B4513"/>
    <text x="60" y="85" text-anchor="middle" font-family="Arial, sans-serif" font-size="8" fill="#66ff66">WHACK-A-MOLE</text>
    <circle cx="60" cy="130" r="18" fill="#222" stroke="#444" stroke-width="2"/>
    <circle cx="40" cy="170" r="6" fill="#ff0000"/>
    <circle cx="60" cy="170" r="6" fill="#ffff00"/>
    <circle cx="80" cy="170" r="6" fill="#00ff00"/>
    <rect x="45" y="210" width="30" height="5" rx="2" fill="#222"/>
    <rect x="35" y="240" width="50" height="40" rx="4" fill="#1e7a1e"/>
    <text x="60" y="265" text-anchor="middle" font-family="Arial, sans-serif" font-size="9" font-weight="bold" fill="#ffd700">INSERT COIN</text>
  </g>
  <g transform="translate(570, 95)">
    <rect x="0" y="0" width="120" height="290" rx="8" fill="#e67e22"/>
    <rect x="10" y="15" width="100" height="80" rx="4" fill="#001122"/>
    <rect x="30" y="35" width="15" height="15" fill="#ff9900" opacity="0.8"/>
    <rect x="50" y="35" width="15" height="15" fill="#ffcc00" opacity="0.8"/>
    <rect x="70" y="35" width="15" height="15" fill="#ff6600" opacity="0.8"/>
    <rect x="40" y="55" width="15" height="15" fill="#ffaa00" opacity="0.8"/>
    <rect x="60" y="55" width="15" height="15" fill="#ff8800" opacity="0.8"/>
    <text x="60" y="85" text-anchor="middle" font-family="Arial, sans-serif" font-size="8" fill="#ffcc66">PUZZLE RUSH</text>
    <circle cx="60" cy="130" r="18" fill="#222" stroke="#444" stroke-width="2"/>
    <circle cx="40" cy="170" r="6" fill="#ff0000"/>
    <circle cx="60" cy="170" r="6" fill="#ffff00"/>
    <circle cx="80" cy="170" r="6" fill="#00ff00"/>
    <rect x="45" y="210" width="30" height="5" rx="2" fill="#222"/>
    <rect x="35" y="240" width="50" height="40" rx="4" fill="#b7700a"/>
    <text x="60" y="265" text-anchor="middle" font-family="Arial, sans-serif" font-size="9" font-weight="bold" fill="#ffd700">INSERT COIN</text>
  </g>
  <line x1="50" y1="10" x2="750" y2="10" stroke="#ff00ff" stroke-width="2" opacity="0.3"/>
</svg>