<svg xmlns="http://www.w3.org/2000/svg" viewBox="0 0 800 450" width="800" height="450">
  <defs>
    <linearGradient id="bg" x1="0" y1="0" x2="0" y2="1">
      <stop offset="0%" stop-color="#f5e6c8"/>
      <stop offset="100%" stop-color="#d4b896"/>
    </linearGradient>
    <linearGradient id="water" x1="0" y1="0" x2="0" y2="1">
      <stop offset="0%" stop-color="#5b9bd5"/>
      <stop offset="100%" stop-color="#4a86c0"/>
    </linearGradient>
    <filter id="shadow">
      <feDropShadow dx="1" dy="1" stdDeviation="1" flood-color="#5c4a32" flood-opacity="0.3"/>
    </filter>
  </defs>
  <rect width="800" height="450" fill="url(#bg)"/>
  <rect x="10" y="10" width="780" height="430" rx="5" fill="none" stroke="#8B7355" stroke-width="3"/>
  <rect x="15" y="15" width="770" height="420" rx="3" fill="none" stroke="#a0876a" stroke-width="1"/>
  <rect x="220" y="18" width="360" height="40" rx="5" fill="#8B4513" opacity="0.85"/>
  <text x="400" y="44" text-anchor="middle" font-family="Georgia, serif" font-size="20" font-weight="bold" fill="#f5e6c8">Kingdom of Earthkwak</text>
  <g transform="translate(710, 90)">
    <circle cx="0" cy="0" r="25" fill="#f5e6c8" stroke="#8B7355" stroke-width="1.5"/>
    <polygon points="0,-22 3,-8 -3,-8" fill="#8B4513"/>
    <polygon points="0,22 3,8 -3,8" fill="#a0876a"/>
    <polygon points="-22,0 -8,3 -8,-3" fill="#a0876a"/>
    <polygon points="22,0 8,3 8,-3" fill="#a0876a"/>
    <text x="0" y="-28" text-anchor="middle" font-family="Georgia, serif" font-size="10" font-weight="bold" fill="#8B4513">N</text>
  </g>
  <path d="M20,350 Q100,340 150,360 Q200,380 280,355 Q350,330 400,360 Q460,390 540,350 Q600,320 680,355 Q740,375 780,350 L780,440 L20,440 Z" fill="url(#water)" opacity="0.6"/>
  <text x="400" y="410" text-anchor="middle" font-family="Georgia, serif" font-size="12" font-style="italic" fill="#2c5f8a">Great Honey Sea</text>
  <ellipse cx="180" cy="200" rx="110" ry="70" fill="#2d8a4e" opacity="0.35"/>
  <g fill="#2d6b38" filter="url(#shadow)">
    <polygon points="120,220 130,180 140,220"/>
    <polygon points="145,210 155,175 165,210"/>
    <polygon points="170,215 180,178 190,215"/>
    <polygon points="200,225 210,185 220,225"/>
    <polygon points="230,220 240,190 250,220"/>
  </g>
  <text x="180" y="260" text-anchor="middle" font-family="Georgia, serif" font-size="11" font-style="italic" fill="#1e4d28">Whispering Woods</text>
  <g fill="#8B7355" filter="url(#shadow)">
    <polygon points="450,120 490,70 530,120"/>
    <polygon points="480,130 510,85 540,130"/>
    <polygon points="510,125 545,78 580,125"/>
    <polygon points="540,130 570,90 600,130"/>
  </g>
  <g fill="#fff" opacity="0.8">
    <polygon points="490,70 485,85 495,85"/>
    <polygon points="510,85 505,97 515,97"/>
    <polygon points="545,78 540,92 550,92"/>
    <polygon points="570,90 565,102 575,102"/>
  </g>
  <text x="520" y="150" text-anchor="middle" font-family="Georgia, serif" font-size="11" font-style="italic" fill="#5c4a32">Bear Peak Mountains</text>
  <g transform="translate(370, 200)" filter="url(#shadow)">
    <rect x="-20" y="-10" width="40" height="35" fill="#8B7355"/>
    <rect x="-25" y="-20" width="10" height="20" fill="#8B7355"/>
    <rect x="15" y="-20" width="10" height="20" fill="#8B7355"/>
    <polygon points="-25,-20 -20,-28 -15,-20" fill="#cc3333"/>
    <polygon points="15,-20 20,-28 25,-20" fill="#cc3333"/>
    <rect x="-5" y="5" width="10" height="20" rx="5" fill="#5c3a10"/>
  </g>
  <text x="370" y="245" text-anchor="middle" font-family="Georgia, serif" font-size="10" font-weight="bold" fill="#8B4513">Royal Castle</text>
  <ellipse cx="600" cy="250" rx="90" ry="50" fill="#daa520" opacity="0.3"/>
  <g fill="#daa520" opacity="0.6">
    <polygon points="560,250 575,220 590,250"/>
    <polygon points="600,260 620,225 640,260"/>
  </g>
  <text x="600" y="290" text-anchor="middle" font-family="Georgia, serif" font-size="11" font-style="italic" fill="#8B6914">Sandy Dunes</text>
  <circle cx="280" cy="300" r="5" fill="#cc3333" stroke="#8B4513" stroke-width="1"/>
  <text x="280" y="320" text-anchor="middle" font-family="Georgia, serif" font-size="9" fill="#5c3a10">Bear Village</text>
  <circle cx="500" cy="280" r="4" fill="#cc3333" stroke="#8B4513" stroke-width="1"/>
  <text x="500" y="296" text-anchor="middle" font-family="Georgia, serif" font-size="9" fill="#5c3a10">Trading Post</text>
  <circle cx="130" cy="310" r="4" fill="#cc3333" stroke="#8B4513" stroke-width="1"/>
  <text x="130" y="330" text-anchor="middle" font-family="Georgia, serif" font-size="9" fill="#5c3a10">Honey Farm</text>
  <path d="M350,80 Q340,120 360,160 Q380,200 370,240 Q360,280 380,320 Q400,355 420,370" fill="none" stroke="#5b9bd5" stroke-width="4" stroke-linecap="round" opacity="0.7"/>
  <text x="325" y="145" font-family="Georgia, serif" font-size="8" font-style="italic" fill="#2c5f8a" transform="rotate(-15, 325, 145)">Honey River</text>
  <path d="M280,300 Q320,280 370,230" fill="none" stroke="#8B7355" stroke-width="1.5" stroke-dasharray="5,4"/>
  <path d="M370,230 Q430,260 500,280" fill="none" stroke="#8B7355" stroke-width="1.5" stroke-dasharray="5,4"/>
  <path d="M130,310 Q200,300 280,300" fill="none" stroke="#8B7355" stroke-width="1.5" stroke-dasharray="5,4"/>
  <rect x="25" y="370" width="160" height="55" rx="5" fill="#f5e6c8" stroke="#8B7355" stroke-width="1" opacity="0.9"/>
  <text x="35" y="387" font-family="Georgia, serif" font-size="9" font-weight="bold" fill="#5c3a10">LEGEND</text>
  <circle cx="40" cy="400" r="3" fill="#cc3333"/>
  <text x="50" y="403" font-family="Georgia, serif" font-size="8" fill="#5c3a10">Settlement</text>
  <line x1="100" y1="400" x2="120" y2="400" stroke="#8B7355" stroke-width="1.5" stroke-dasharray="3,3"/>
  <text x="125" y="403" font-family="Georgia, serif" font-size="8" fill="#5c3a10">Road</text>
  <polygon points="35,415 40,408 45,415" fill="#2d6b38"/>
  <text x="50" y="418" font-family="Georgia, serif" font-size="8" fill="#5c3a10">Forest</text>
  <polygon points="100,415 105,408 110,415" fill="#8B7355"/>
  <text x="115" y="418" font-family="Georgia, serif" font-size="8" fill="#5c3a10">Mountain</text>
</svg>