<svg xmlns="http://www.w3.org/2000/svg" viewBox="0 0 800 450" width="800" height="450">
  <defs>
    <linearGradient id="bg" x1="0%" y1="0%" x2="100%" y2="100%">
      <stop offset="0%" stop-color="#E8F5E9"/>
      <stop offset="50%" stop-color="#A5D6A7"/>
      <stop offset="100%" stop-color="#388E3C"/>
    </linearGradient>
    <linearGradient id="coinGold" x1="0%" y1="0%" x2="100%" y2="100%">
      <stop offset="0%" stop-color="#FFD54F"/>
      <stop offset="40%" stop-color="#FFCA28"/>
      <stop offset="100%" stop-color="#FF8F00"/>
    </linearGradient>
    <linearGradient id="coinShine" x1="0%" y1="0%" x2="100%" y2="100%">
      <stop offset="0%" stop-color="#FFF8E1" stop-opacity="0.9"/>
      <stop offset="100%" stop-color="#FFD54F" stop-opacity="0"/>
    </linearGradient>
    <linearGradient id="uiBg" x1="0%" y1="0%" x2="0%" y2="100%">
      <stop offset="0%" stop-color="#000000" stop-opacity="0.6"/>
      <stop offset="100%" stop-color="#000000" stop-opacity="0.3"/>
    </linearGradient>
    <filter id="glow">
      <feGaussianBlur stdDeviation="3" result="blur"/>
      <feMerge><feMergeNode in="blur"/><feMergeNode in="SourceGraphic"/></feMerge>
    </filter>
    <filter id="coinShadow">
      <feDropShadow dx="2" dy="3" stdDeviation="4" flood-color="#1B5E20" flood-opacity="0.4"/>
    </filter>
  </defs>
  <rect width="800" height="450" fill="url(#bg)"/>
  <g opacity="0.06">
    <line x1="0" y1="0" x2="800" y2="450" stroke="#FFF" stroke-width="1"/>
    <line x1="100" y1="0" x2="800" y2="350" stroke="#FFF" stroke-width="1"/>
    <line x1="200" y1="0" x2="800" y2="250" stroke="#FFF" stroke-width="1"/>
    <line x1="0" y1="100" x2="700" y2="450" stroke="#FFF" stroke-width="1"/>
    <line x1="0" y1="200" x2="500" y2="450" stroke="#FFF" stroke-width="1"/>
  </g>
  <path d="M0 380 Q100 370 200 375 Q300 365 400 372 Q500 368 600 374 Q700 366 800 370 L800 450 L0 450Z" fill="#1B5E20" opacity="0.5"/>
  <path d="M0 390 Q100 382 200 387 Q300 378 400 384 Q500 380 600 386 Q700 378 800 382 L800 450 L0 450Z" fill="#1B5E20" opacity="0.7"/>
  <g filter="url(#glow)">
    <circle cx="120" cy="320" r="2" fill="#FFF9C4" opacity="0.7"><animate attributeName="opacity" values="0.7;0.2;0.7" dur="1.5s" repeatCount="indefinite"/></circle>
    <circle cx="180" cy="290" r="1.5" fill="#FFF" opacity="0.5"><animate attributeName="opacity" values="0.5;0.1;0.5" dur="2s" repeatCount="indefinite"/></circle>
    <circle cx="240" cy="260" r="2.5" fill="#FFF9C4" opacity="0.6"><animate attributeName="opacity" values="0.6;0.15;0.6" dur="1.8s" repeatCount="indefinite"/></circle>
    <circle cx="300" cy="240" r="1.8" fill="#FFF" opacity="0.8"><animate attributeName="opacity" values="0.8;0.2;0.8" dur="1.3s" repeatCount="indefinite"/></circle>
    <circle cx="360" cy="215" r="2" fill="#FFF9C4" opacity="0.5"><animate attributeName="opacity" values="0.5;0.1;0.5" dur="2.2s" repeatCount="indefinite"/></circle>
  </g>
  <g filter="url(#coinShadow)" transform="translate(400,200)">
    <ellipse rx="62" ry="65" fill="url(#coinGold)" stroke="#E65100" stroke-width="3"/>
    <ellipse rx="50" ry="53" fill="none" stroke="#FFE082" stroke-width="2" opacity="0.6"/>
    <ellipse cx="-8" cy="-8" rx="30" ry="32" fill="url(#coinShine)" opacity="0.4"/>
    <circle cy="-5" r="12" fill="#E65100" opacity="0.3"/>
    <circle cx="-8" cy="-18" r="5" fill="#E65100" opacity="0.3"/>
    <circle cx="8" cy="-18" r="5" fill="#E65100" opacity="0.3"/>
    <circle cx="-14" cy="-8" r="4.5" fill="#E65100" opacity="0.3"/>
    <circle cx="14" cy="-8" r="4.5" fill="#E65100" opacity="0.3"/>
    <text y="18" text-anchor="middle" font-family="Arial,sans-serif" font-weight="bold" font-size="16" fill="#E65100" opacity="0.5">SBA</text>
  </g>
  <g filter="url(#coinShadow)" transform="translate(240,250)">
    <ellipse rx="45" ry="48" fill="url(#coinGold)" stroke="#E65100" stroke-width="2.5"/>
    <ellipse rx="36" ry="39" fill="none" stroke="#FFE082" stroke-width="1.5" opacity="0.6"/>
    <ellipse cx="-6" cy="-6" rx="22" ry="24" fill="url(#coinShine)" opacity="0.35"/>
    <circle cy="-3" r="9" fill="#E65100" opacity="0.3"/>
    <circle cx="-6" cy="-13" r="3.5" fill="#E65100" opacity="0.3"/>
    <circle cx="6" cy="-13" r="3.5" fill="#E65100" opacity="0.3"/>
    <text y="14" text-anchor="middle" font-family="Arial,sans-serif" font-weight="bold" font-size="11" fill="#E65100" opacity="0.5">SBA</text>
  </g>
  <g filter="url(#coinShadow)" transform="translate(560,180)">
    <ellipse rx="48" ry="50" fill="url(#coinGold)" stroke="#E65100" stroke-width="2.5"/>
    <ellipse rx="38" ry="40" fill="none" stroke="#FFE082" stroke-width="1.5" opacity="0.6"/>
    <ellipse cx="-7" cy="-7" rx="24" ry="25" fill="url(#coinShine)" opacity="0.35"/>
    <circle cy="-3" r="10" fill="#E65100" opacity="0.3"/>
    <circle cx="-7" cy="-14" r="4" fill="#E65100" opacity="0.3"/>
    <circle cx="7" cy="-14" r="4" fill="#E65100" opacity="0.3"/>
    <text y="14" text-anchor="middle" font-family="Arial,sans-serif" font-weight="bold" font-size="12" fill="#E65100" opacity="0.5">SBA</text>
  </g>
  <g filter="url(#coinShadow)" transform="translate(150,160)">
    <ellipse rx="28" ry="30" fill="url(#coinGold)" stroke="#E65100" stroke-width="2"/>
    <ellipse rx="22" ry="24" fill="none" stroke="#FFE082" stroke-width="1" opacity="0.5"/>
    <ellipse cx="-4" cy="-4" rx="14" ry="15" fill="url(#coinShine)" opacity="0.3"/>
    <text y="5" text-anchor="middle" font-family="Arial,sans-serif" font-weight="bold" font-size="10" fill="#E65100" opacity="0.4">$</text>
  </g>
  <g filter="url(#coinShadow)" transform="translate(660,120)">
    <ellipse rx="25" ry="27" fill="url(#coinGold)" stroke="#E65100" stroke-width="2"/>
    <ellipse rx="20" ry="22" fill="none" stroke="#FFE082" stroke-width="1" opacity="0.5"/>
    <ellipse cx="-3" cy="-3" rx="12" ry="13" fill="url(#coinShine)" opacity="0.3"/>
    <text y="5" text-anchor="middle" font-family="Arial,sans-serif" font-weight="bold" font-size="9" fill="#E65100" opacity="0.4">$</text>
  </g>
  <g filter="url(#coinShadow)" transform="translate(90,100)">
    <ellipse rx="15" ry="16" fill="url(#coinGold)" stroke="#E65100" stroke-width="1.5"/>
    <ellipse cx="-2" cy="-2" rx="8" ry="9" fill="url(#coinShine)" opacity="0.25"/>
  </g>
  <g filter="url(#coinShadow)" transform="translate(720,260)">
    <ellipse rx="18" ry="19" fill="url(#coinGold)" stroke="#E65100" stroke-width="1.5"/>
    <ellipse cx="-2" cy="-2" rx="9" ry="10" fill="url(#coinShine)" opacity="0.25"/>
  </g>
  <g filter="url(#glow)">
    <g transform="translate(340,160)">
      <path d="M0-10 2-2 10 0 2 2 0 10-2 2-10 0-2-2Z" fill="#FFF" opacity="0.9">
        <animate attributeName="opacity" values="0.9;0.3;0.9" dur="1s" repeatCount="indefinite"/>
        <animateTransform attributeName="transform" type="rotate" from="0" to="360" dur="4s" repeatCount="indefinite"/>
      </path>
    </g>
    <g transform="translate(480,140)">
      <path d="M0-8 1.5-1.5 8 0 1.5 1.5 0 8-1.5 1.5-8 0-1.5-1.5Z" fill="#FFF9C4" opacity="0.8">
        <animate attributeName="opacity" values="0.8;0.2;0.8" dur="1.4s" repeatCount="indefinite"/>
        <animateTransform attributeName="transform" type="rotate" from="0" to="360" dur="5s" repeatCount="indefinite"/>
      </path>
    </g>
    <g transform="translate(620,240)">
      <path d="M0-7 1.2-1.2 7 0 1.2 1.2 0 7-1.2 1.2-7 0-1.2-1.2Z" fill="#FFF" opacity="0.7">
        <animate attributeName="opacity" values="0.7;0.15;0.7" dur="1.7s" repeatCount="indefinite"/>
        <animateTransform attributeName="transform" type="rotate" from="0" to="360" dur="3.5s" repeatCount="indefinite"/>
      </path>
    </g>
    <g transform="translate(200,200)">
      <path d="M0-6 1-1 6 0 1 1 0 6-1 1-6 0-1-1Z" fill="#FFF9C4" opacity="0.85">
        <animate attributeName="opacity" values="0.85;0.25;0.85" dur="1.2s" repeatCount="indefinite"/>
        <animateTransform attributeName="transform" type="rotate" from="0" to="360" dur="6s" repeatCount="indefinite"/>
      </path>
    </g>
    <g transform="translate(500,270)">
      <path d="M0-9 1.8-1.8 9 0 1.8 1.8 0 9-1.8 1.8-9 0-1.8-1.8Z" fill="#FFF" opacity="0.75">
        <animate attributeName="opacity" values="0.75;0.2;0.75" dur="1.6s" repeatCount="indefinite"/>
        <animateTransform attributeName="transform" type="rotate" from="0" to="360" dur="4.5s" repeatCount="indefinite"/>
      </path>
    </g>
  </g>
  <g opacity="0.6">
    <circle cx="160" cy="300" r="3" fill="#FFD54F"><animate attributeName="r" values="3;1;3" dur="2s" repeatCount="indefinite"/></circle>
    <circle cx="200" cy="280" r="2" fill="#FFF9C4"><animate attributeName="r" values="2;0.5;2" dur="1.6s" repeatCount="indefinite"/></circle>
    <circle cx="260" cy="310" r="2.5" fill="#FFD54F"><animate attributeName="r" values="2.5;0.8;2.5" dur="1.8s" repeatCount="indefinite"/></circle>
    <circle cx="310" cy="285" r="1.5" fill="#FFF"><animate attributeName="r" values="1.5;0.3;1.5" dur="2.2s" repeatCount="indefinite"/></circle>
    <circle cx="450" cy="290" r="2" fill="#FFF9C4"><animate attributeName="r" values="2;0.5;2" dur="1.4s" repeatCount="indefinite"/></circle>
    <circle cx="520" cy="260" r="3" fill="#FFD54F"><animate attributeName="r" values="3;1;3" dur="1.9s" repeatCount="indefinite"/></circle>
  </g>
  <g transform="translate(590,20)">
    <rect width="190" height="55" rx="12" fill="url(#uiBg)"/>
    <rect width="190" height="55" rx="12" fill="none" stroke="#FFD54F" stroke-width="2" opacity="0.6"/>
    <circle cx="35" cy="27.5" r="16" fill="url(#coinGold)" stroke="#E65100" stroke-width="1.5"/>
    <circle cx="35" cy="27.5" r="12" fill="none" stroke="#FFE082" stroke-width="1" opacity="0.5"/>
    <text x="35" y="32" text-anchor="middle" font-family="Arial,sans-serif" font-weight="bold" font-size="10" fill="#E65100" opacity="0.5">$</text>
    <text x="60" y="22" font-family="Arial,sans-serif" font-size="11" fill="#FFE082" opacity="0.8">COINS</text>
    <text x="60" y="42" font-family="Arial,sans-serif" font-weight="bold" font-size="22" fill="#FFD54F">12,847</text>
  </g>
  <g transform="translate(430,150)" opacity="0.9">
    <text font-family="Arial,sans-serif" font-weight="bold" font-size="20" fill="#FFD54F" filter="url(#glow)">+50</text>
  </g>
  <g transform="translate(280,200)" opacity="0.6">
    <text font-family="Arial,sans-serif" font-weight="bold" font-size="16" fill="#FFE082">+25</text>
  </g>
  <g transform="translate(580,130)" opacity="0.7">
    <text font-family="Arial,sans-serif" font-weight="bold" font-size="18" fill="#FFF9C4">+100</text>
  </g>
  <text x="400" y="420" text-anchor="middle" font-family="Arial,sans-serif" font-weight="bold" font-size="22" fill="#FFF" opacity="0.9" letter-spacing="2">COIN COLLECTING</text>
  <line x1="280" y1="430" x2="520" y2="430" stroke="#FFD54F" stroke-width="2" opacity="0.5"/>
</svg>