<svg xmlns="http://www.w3.org/2000/svg" viewBox="0 0 800 450" width="800" height="450">
  <defs>
    <linearGradient id="oasky" x1="0" y1="0" x2="0" y2="1">
      <stop offset="0%" stop-color="#1a6090"/>
      <stop offset="40%" stop-color="#60b0d8"/>
      <stop offset="70%" stop-color="#d4a840"/>
      <stop offset="100%" stop-color="#e8c060"/>
    </linearGradient>
    <linearGradient id="oasand" x1="0" y1="0" x2="0" y2="1">
      <stop offset="0%" stop-color="#e0b050"/>
      <stop offset="100%" stop-color="#c89030"/>
    </linearGradient>
    <radialGradient id="oawater" cx="50%" cy="40%" r="55%">
      <stop offset="0%" stop-color="#40b8e8"/>
      <stop offset="40%" stop-color="#2890c0"/>
      <stop offset="80%" stop-color="#186888"/>
      <stop offset="100%" stop-color="#105060"/>
    </radialGradient>
    <linearGradient id="oatrunk" x1="0" y1="0" x2="1" y2="0">
      <stop offset="0%" stop-color="#5a3818"/>
      <stop offset="50%" stop-color="#7a5028"/>
      <stop offset="100%" stop-color="#4a2810"/>
    </linearGradient>
    <linearGradient id="oaleaf1" x1="0" y1="0" x2="0" y2="1">
      <stop offset="0%" stop-color="#40a030"/>
      <stop offset="100%" stop-color="#207018"/>
    </linearGradient>
    <linearGradient id="oaleaf2" x1="0" y1="0" x2="0" y2="1">
      <stop offset="0%" stop-color="#50b840"/>
      <stop offset="100%" stop-color="#308828"/>
    </linearGradient>
    <radialGradient id="oasun" cx="50%" cy="50%" r="50%">
      <stop offset="0%" stop-color="#ffffff"/>
      <stop offset="40%" stop-color="#fff8c0"/>
      <stop offset="100%" stop-color="#ffcc0000"/>
    </radialGradient>
    <linearGradient id="oabush" x1="0" y1="0" x2="0" y2="1">
      <stop offset="0%" stop-color="#48a838"/>
      <stop offset="100%" stop-color="#286820"/>
    </linearGradient>
    <linearGradient id="oadune" x1="0" y1="0" x2="0" y2="1">
      <stop offset="0%" stop-color="#d8a848"/>
      <stop offset="100%" stop-color="#c09030"/>
    </linearGradient>
  </defs>
  <rect width="800" height="450" fill="url(#oasky)"/>
  <circle cx="650" cy="70" r="40" fill="url(#oasun)"/>
  <circle cx="650" cy="70" r="60" fill="#ffdd4415"/>
  <g stroke="#2a4060" stroke-width="1.5" fill="none" opacity="0.6">
    <path d="M120 60 Q125 55 130 60 Q135 55 140 60"/>
    <path d="M200 40 Q204 36 208 40 Q212 36 216 40"/>
    <path d="M300 70 Q305 65 310 70 Q315 65 320 70"/>
    <path d="M500 50 Q504 46 508 50 Q512 46 516 50"/>
    <path d="M560 80 Q563 77 566 80 Q569 77 572 80"/>
    <path d="M170 85 Q174 81 178 85 Q182 81 186 85"/>
    <path d="M420 35 Q423 32 426 35 Q429 32 432 35"/>
  </g>
  <path d="M0 280 Q100 240 200 260 Q350 230 500 255 Q650 235 800 260 L800 350 L0 350 Z" fill="url(#oadune)" opacity="0.6"/>
  <path d="M0 300 Q150 265 300 285 Q450 260 600 280 Q700 268 800 280 L800 360 L0 360 Z" fill="url(#oadune)" opacity="0.7"/>
  <path d="M0 320 Q200 310 400 315 Q600 320 800 310 L800 450 L0 450 Z" fill="url(#oasand)"/>
  <ellipse cx="400" cy="310" rx="200" ry="50" fill="#308028" opacity="0.3"/>
  <ellipse cx="400" cy="315" rx="170" ry="40" fill="#388830" opacity="0.4"/>
  <ellipse cx="400" cy="300" rx="150" ry="45" fill="url(#oawater)" stroke="#186888" stroke-width="1"/>
  <ellipse cx="400" cy="290" rx="130" ry="30" fill="none" stroke="#60c8e8" stroke-width="0.5" opacity="0.4"/>
  <ellipse cx="400" cy="285" rx="100" ry="20" fill="none" stroke="#80d8f0" stroke-width="0.5" opacity="0.3"/>
  <ellipse cx="430" cy="285" rx="25" ry="8" fill="#ffffff" opacity="0.3"/>
  <ellipse cx="425" cy="283" rx="12" ry="4" fill="#ffffff" opacity="0.5"/>
  <ellipse cx="380" cy="295" rx="15" ry="5" fill="#ffffff" opacity="0.2"/>
  <g fill="#ffffff" opacity="0.6">
    <circle cx="420" cy="282" r="2"/>
    <circle cx="440" cy="288" r="1.5"/>
    <circle cx="370" cy="290" r="1.5"/>
    <circle cx="450" cy="295" r="1"/>
  </g>
  <g stroke="#80d8f0" stroke-width="0.6" fill="none" opacity="0.3">
    <ellipse cx="360" cy="305" rx="30" ry="8"/>
    <ellipse cx="440" cy="310" rx="25" ry="6"/>
    <ellipse cx="400" cy="315" rx="40" ry="10"/>
  </g>
  <ellipse cx="270" cy="295" rx="20" ry="15" fill="url(#oabush)"/>
  <ellipse cx="255" cy="300" rx="15" ry="12" fill="#389030"/>
  <ellipse cx="285" cy="302" rx="12" ry="10" fill="#309028"/>
  <ellipse cx="530" cy="295" rx="18" ry="14" fill="url(#oabush)"/>
  <ellipse cx="545" cy="300" rx="14" ry="11" fill="#389030"/>
  <ellipse cx="518" cy="303" rx="12" ry="9" fill="#309028"/>
  <ellipse cx="350" cy="268" rx="15" ry="10" fill="#2a7020" opacity="0.7"/>
  <ellipse cx="450" cy="265" rx="18" ry="12" fill="#2a7020" opacity="0.7"/>
  <g>
    <circle cx="275" cy="285" r="3" fill="#e05080"/>
    <circle cx="268" cy="290" r="2.5" fill="#d84070"/>
    <circle cx="282" cy="292" r="2" fill="#e86090"/>
    <circle cx="535" cy="288" r="3" fill="#e8c030"/>
    <circle cx="528" cy="293" r="2.5" fill="#d8b028"/>
    <circle cx="542" cy="295" r="2" fill="#f0d040"/>
    <circle cx="310" cy="278" r="2" fill="#ffffff" opacity="0.8"/>
    <circle cx="490" cy="275" r="2" fill="#ffffff" opacity="0.8"/>
  </g>
  <g stroke="#308028" stroke-width="1.5" fill="none" opacity="0.6">
    <path d="M260 310 Q258 295 262 285"/>
    <path d="M263 310 Q265 298 260 290"/>
    <path d="M540 308 Q538 293 542 283"/>
    <path d="M543 308 Q545 296 540 288"/>
    <path d="M310 320 Q308 310 312 302"/>
    <path d="M490 318 Q488 308 492 300"/>
  </g>
  <g>
    <path d="M280 290 Q275 240 270 190 Q268 170 272 150" stroke="url(#oatrunk)" stroke-width="12" fill="none" stroke-linecap="round"/>
    <g stroke="#4a2810" stroke-width="8" opacity="0.3" fill="none">
      <path d="M278 280 Q276 275 278 270"/>
      <path d="M276 260 Q274 255 276 250"/>
      <path d="M274 240 Q272 235 274 230"/>
      <path d="M273 220 Q271 215 273 210"/>
      <path d="M272 200 Q270 195 272 190"/>
      <path d="M271 180 Q269 175 271 170"/>
    </g>
    <path d="M272 150 Q230 120 190 130" stroke="#308828" stroke-width="3" fill="url(#oaleaf1)" opacity="0.9"/>
    <path d="M272 150 Q250 100 220 90" stroke="#308828" stroke-width="3" fill="url(#oaleaf2)" opacity="0.85"/>
    <path d="M272 150 Q290 100 310 85" stroke="#308828" stroke-width="3" fill="url(#oaleaf1)" opacity="0.9"/>
    <path d="M272 150 Q310 120 340 125" stroke="#308828" stroke-width="3" fill="url(#oaleaf2)" opacity="0.85"/>
    <path d="M272 150 Q260 110 240 105" stroke="#288020" stroke-width="2" fill="url(#oaleaf1)" opacity="0.8"/>
    <path d="M272 150 Q295 115 320 105" stroke="#288020" stroke-width="2" fill="url(#oaleaf2)" opacity="0.8"/>
    <circle cx="270" cy="155" r="5" fill="#6a4818"/>
    <circle cx="278" cy="152" r="4.5" fill="#5a3810"/>
    <circle cx="265" cy="152" r="4" fill="#7a5828"/>
  </g>
  <g>
    <path d="M520 290 Q525 230 530 180 Q532 160 528 140" stroke="url(#oatrunk)" stroke-width="11" fill="none" stroke-linecap="round"/>
    <g stroke="#4a2810" stroke-width="7" opacity="0.3" fill="none">
      <path d="M522 275 Q524 270 522 265"/>
      <path d="M524 250 Q526 245 524 240"/>
      <path d="M526 225 Q528 220 526 215"/>
      <path d="M527 200 Q529 195 527 190"/>
      <path d="M528 175 Q530 170 528 165"/>
    </g>
    <path d="M528 140 Q490 110 450 115" stroke="#308828" stroke-width="3" fill="url(#oaleaf1)" opacity="0.9"/>
    <path d="M528 140 Q510 90 490 80" stroke="#308828" stroke-width="3" fill="url(#oaleaf2)" opacity="0.85"/>
    <path d="M528 140 Q550 90 575 80" stroke="#308828" stroke-width="3" fill="url(#oaleaf1)" opacity="0.9"/>
    <path d="M528 140 Q570 110 600 120" stroke="#308828" stroke-width="3" fill="url(#oaleaf2)" opacity="0.85"/>
    <path d="M528 140 Q520 95 505 90" stroke="#288020" stroke-width="2" fill="url(#oaleaf1)" opacity="0.8"/>
    <path d="M528 140 Q555 100 580 95" stroke="#288020" stroke-width="2" fill="url(#oaleaf2)" opacity="0.8"/>
    <circle cx="526" cy="145" r="4.5" fill="#6a4818"/>
    <circle cx="533" cy="143" r="4" fill="#5a3810"/>
  </g>
  <g opacity="0.7">
    <path d="M400 270 Q398 230 396 200 Q395 185 398 175" stroke="#5a3818" stroke-width="7" fill="none" stroke-linecap="round"/>
    <path d="M398 175 Q375 155 355 158" stroke="#287020" stroke-width="2" fill="url(#oaleaf1)" opacity="0.8"/>
    <path d="M398 175 Q390 145 380 140" stroke="#287020" stroke-width="2" fill="url(#oaleaf2)" opacity="0.75"/>
    <path d="M398 175 Q410 145 425 140" stroke="#287020" stroke-width="2" fill="url(#oaleaf1)" opacity="0.8"/>
    <path d="M398 175 Q420 155 440 158" stroke="#287020" stroke-width="2" fill="url(#oaleaf2)" opacity="0.75"/>
  </g>
  <g fill="#b08030" opacity="0.3">
    <circle cx="80" cy="360" r="1.5"/>
    <circle cx="150" cy="380" r="1"/>
    <circle cx="650" cy="355" r="1.2"/>
    <circle cx="720" cy="375" r="1"/>
    <circle cx="100" cy="400" r="1.5"/>
    <circle cx="700" cy="395" r="1"/>
    <circle cx="50" cy="340" r="1"/>
    <circle cx="750" cy="340" r="1.2"/>
    <circle cx="200" cy="370" r="1"/>
    <circle cx="600" cy="365" r="1"/>
  </g>
  <path d="M0 380 Q100 375 200 380 Q300 385 400 378 Q500 372 600 380 Q700 386 800 378" fill="none" stroke="#c08830" stroke-width="0.8" opacity="0.3"/>
  <path d="M0 400 Q150 395 300 400 Q450 405 600 398 Q700 394 800 400" fill="none" stroke="#c08830" stroke-width="0.8" opacity="0.25"/>
  <rect x="280" y="395" width="240" height="36" rx="6" fill="#105060" opacity="0.75"/>
  <rect x="282" y="397" width="236" height="32" rx="5" fill="none" stroke="#60c8e8" stroke-width="1" opacity="0.5"/>
  <text x="400" y="420" text-anchor="middle" font-family="Arial, Helvetica, sans-serif" font-size="20" font-weight="bold" fill="#c0f0ff" letter-spacing="2">Desert Oasis</text>
</svg>