<svg xmlns="http://www.w3.org/2000/svg" viewBox="0 0 800 450" width="800" height="450">
  <defs>
    <linearGradient id="puzzleBg" x1="0" y1="0" x2="0" y2="1">
      <stop offset="0%" stop-color="#0e1a2e"/>
      <stop offset="100%" stop-color="#1a3050"/>
    </linearGradient>
    <linearGradient id="iceBlock" x1="0" y1="0" x2="1" y2="1">
      <stop offset="0%" stop-color="#5ab8e0"/>
      <stop offset="50%" stop-color="#3a90c0"/>
      <stop offset="100%" stop-color="#2a70a0"/>
    </linearGradient>
    <linearGradient id="gridFloor" x1="0" y1="0" x2="0" y2="1">
      <stop offset="0%" stop-color="#1a3550"/>
      <stop offset="100%" stop-color="#224060"/>
    </linearGradient>
    <linearGradient id="wallBlock" x1="0" y1="0" x2="0" y2="1">
      <stop offset="0%" stop-color="#1a2a40"/>
      <stop offset="100%" stop-color="#0f1a2a"/>
    </linearGradient>
    <radialGradient id="starGlow" cx="0.5" cy="0.5" r="0.5">
      <stop offset="0%" stop-color="#ffdc50" stop-opacity="0.6"/>
      <stop offset="100%" stop-color="#ffdc50" stop-opacity="0"/>
    </radialGradient>
    <filter id="glowFilter">
      <feGaussianBlur stdDeviation="3" result="blur"/>
      <feMerge><feMergeNode in="blur"/><feMergeNode in="SourceGraphic"/></feMerge>
    </filter>
    <filter id="softGlow"><feGaussianBlur stdDeviation="5"/></filter>
  </defs>
  <rect width="800" height="450" fill="url(#puzzleBg)"/>
  <circle cx="200" cy="100" r="100" fill="#28649e" opacity="0.1"/>
  <circle cx="600" cy="350" r="120" fill="#28649e" opacity="0.08"/>
  <g transform="translate(140,40)">
    <rect x="0" y="0" width="520" height="360" fill="url(#gridFloor)" rx="4"/>
    <g stroke="#5096c8" stroke-opacity="0.25" stroke-width="1">
      <line x1="65" y1="0" x2="65" y2="360"/>
      <line x1="130" y1="0" x2="130" y2="360"/>
      <line x1="195" y1="0" x2="195" y2="360"/>
      <line x1="260" y1="0" x2="260" y2="360"/>
      <line x1="325" y1="0" x2="325" y2="360"/>
      <line x1="390" y1="0" x2="390" y2="360"/>
      <line x1="455" y1="0" x2="455" y2="360"/>
      <line x1="0" y1="60" x2="520" y2="60"/>
      <line x1="0" y1="120" x2="520" y2="120"/>
      <line x1="0" y1="180" x2="520" y2="180"/>
      <line x1="0" y1="240" x2="520" y2="240"/>
      <line x1="0" y1="300" x2="520" y2="300"/>
    </g>
    <rect x="0" y="0" width="520" height="360" fill="none" stroke="#50a0dc" stroke-opacity="0.4" stroke-width="2" rx="4"/>
    <rect x="132" y="2" width="61" height="56" fill="url(#wallBlock)" stroke="#285078" stroke-opacity="0.6" stroke-width="1.5" rx="3"/>
    <rect x="135" y="5" width="2" height="50" fill="#3c648c" opacity="0.3"/>
    <rect x="262" y="62" width="61" height="56" fill="url(#wallBlock)" stroke="#285078" stroke-opacity="0.6" stroke-width="1.5" rx="3"/>
    <rect x="265" y="65" width="2" height="50" fill="#3c648c" opacity="0.3"/>
    <rect x="67" y="122" width="61" height="56" fill="url(#wallBlock)" stroke="#285078" stroke-opacity="0.6" stroke-width="1.5" rx="3"/>
    <rect x="70" y="125" width="2" height="50" fill="#3c648c" opacity="0.3"/>
    <rect x="327" y="122" width="61" height="56" fill="url(#wallBlock)" stroke="#285078" stroke-opacity="0.6" stroke-width="1.5" rx="3"/>
    <rect x="330" y="125" width="2" height="50" fill="#3c648c" opacity="0.3"/>
    <rect x="197" y="182" width="61" height="56" fill="url(#wallBlock)" stroke="#285078" stroke-opacity="0.6" stroke-width="1.5" rx="3"/>
    <rect x="200" y="185" width="2" height="50" fill="#3c648c" opacity="0.3"/>
    <rect x="392" y="242" width="61" height="56" fill="url(#wallBlock)" stroke="#285078" stroke-opacity="0.6" stroke-width="1.5" rx="3"/>
    <rect x="395" y="245" width="2" height="50" fill="#3c648c" opacity="0.3"/>
    <rect x="132" y="302" width="61" height="56" fill="url(#wallBlock)" stroke="#285078" stroke-opacity="0.6" stroke-width="1.5" rx="3"/>
    <rect x="135" y="305" width="2" height="50" fill="#3c648c" opacity="0.3"/>
    <rect x="329" y="4" width="57" height="52" fill="url(#iceBlock)" stroke="#78c8ff" stroke-opacity="0.5" stroke-width="1.5" rx="4"/>
    <rect x="333" y="8" width="8" height="44" fill="#ffffff" opacity="0.1" rx="2"/>
    <line x1="332" y1="20" x2="382" y2="20" stroke="#ffffff" stroke-opacity="0.08" stroke-width="1"/>
    <rect x="69" y="64" width="57" height="52" fill="url(#iceBlock)" stroke="#78c8ff" stroke-opacity="0.5" stroke-width="1.5" rx="4"/>
    <rect x="73" y="68" width="8" height="44" fill="#ffffff" opacity="0.1" rx="2"/>
    <line x1="72" y1="82" x2="122" y2="82" stroke="#ffffff" stroke-opacity="0.08" stroke-width="1"/>
    <rect x="394" y="184" width="57" height="52" fill="url(#iceBlock)" stroke="#78c8ff" stroke-opacity="0.5" stroke-width="1.5" rx="4"/>
    <rect x="398" y="188" width="8" height="44" fill="#ffffff" opacity="0.1" rx="2"/>
    <rect x="134" y="244" width="57" height="52" fill="url(#iceBlock)" stroke="#78c8ff" stroke-opacity="0.5" stroke-width="1.5" rx="4"/>
    <rect x="138" y="248" width="8" height="44" fill="#ffffff" opacity="0.1" rx="2"/>
    <rect x="264" y="304" width="57" height="52" fill="url(#iceBlock)" stroke="#78c8ff" stroke-opacity="0.5" stroke-width="1.5" rx="4"/>
    <rect x="268" y="308" width="8" height="44" fill="#ffffff" opacity="0.1" rx="2"/>
    <g transform="translate(32,30)">
      <circle cx="0" cy="0" r="20" fill="#8B6914" stroke="#6B4E12" stroke-width="2"/>
      <circle cx="-6" cy="-4" r="2.5" fill="#3a2a10"/>
      <circle cx="6" cy="-4" r="2.5" fill="#3a2a10"/>
      <ellipse cx="0" cy="2" rx="3" ry="2" fill="#5a4010"/>
      <circle cx="-14" cy="-14" r="6" fill="#8B6914" stroke="#6B4E12" stroke-width="1.5"/>
      <circle cx="-14" cy="-14" r="3.5" fill="#6B4E12"/>
      <circle cx="14" cy="-14" r="6" fill="#8B6914" stroke="#6B4E12" stroke-width="1.5"/>
      <circle cx="14" cy="-14" r="3.5" fill="#6B4E12"/>
    </g>
    <g transform="translate(487,330)">
      <circle cx="0" cy="0" r="30" fill="url(#starGlow)" filter="url(#softGlow)"/>
      <polygon points="0,-22 6,-8 20,-7 9,3 12,18 0,10 -12,18 -9,3 -20,-7 -6,-8" fill="#ffd040" stroke="#ffaa00" stroke-width="1" filter="url(#glowFilter)"/>
      <polygon points="0,-12 3,-5 10,-4 5,1 6,9 0,5 -6,9 -5,1 -10,-4 -3,-5" fill="#ffe880" opacity="0.7"/>
    </g>
    <g transform="translate(32,30)">
      <line x1="25" y1="0" x2="80" y2="0" stroke="#64c8ff" stroke-opacity="0.5" stroke-width="2" stroke-dasharray="6,4"/>
      <polygon points="80,-5 90,0 80,5" fill="#64c8ff" fill-opacity="0.6"/>
    </g>
    <g transform="translate(75,30)">
      <circle cx="0" cy="-25" r="10" fill="#64c8ff" fill-opacity="0.3" stroke="#64c8ff" stroke-opacity="0.6" stroke-width="1"/>
      <text x="0" y="-21" text-anchor="middle" font-family="Segoe UI, Arial, sans-serif" font-size="12" font-weight="700" fill="#a0e0ff">1</text>
    </g>
    <g transform="translate(97,55)">
      <line x1="0" y1="5" x2="0" y2="55" stroke="#64c8ff" stroke-opacity="0.5" stroke-width="2" stroke-dasharray="6,4"/>
      <polygon points="-5,55 0,65 5,55" fill="#64c8ff" fill-opacity="0.6"/>
    </g>
    <g transform="translate(97,95)">
      <circle cx="18" cy="0" r="10" fill="#64c8ff" fill-opacity="0.3" stroke="#64c8ff" stroke-opacity="0.6" stroke-width="1"/>
      <text x="18" y="4" text-anchor="middle" font-family="Segoe UI, Arial, sans-serif" font-size="12" font-weight="700" fill="#a0e0ff">2</text>
    </g>
    <g transform="translate(130,150)">
      <line x1="5" y1="0" x2="120" y2="0" stroke="#64c8ff" stroke-opacity="0.5" stroke-width="2" stroke-dasharray="6,4"/>
      <polygon points="120,-5 130,0 120,5" fill="#64c8ff" fill-opacity="0.6"/>
    </g>
    <g transform="translate(195,150)">
      <circle cx="0" cy="-20" r="10" fill="#64c8ff" fill-opacity="0.3" stroke="#64c8ff" stroke-opacity="0.6" stroke-width="1"/>
      <text x="0" y="-16" text-anchor="middle" font-family="Segoe UI, Arial, sans-serif" font-size="12" font-weight="700" fill="#a0e0ff">3</text>
    </g>
    <g transform="translate(260,180)">
      <line x1="0" y1="5" x2="0" y2="55" stroke="#64c8ff" stroke-opacity="0.5" stroke-width="2" stroke-dasharray="6,4"/>
      <polygon points="-5,55 0,65 5,55" fill="#64c8ff" fill-opacity="0.6"/>
    </g>
    <g transform="translate(260,215)">
      <circle cx="18" cy="0" r="10" fill="#64c8ff" fill-opacity="0.3" stroke="#64c8ff" stroke-opacity="0.6" stroke-width="1"/>
      <text x="18" y="4" text-anchor="middle" font-family="Segoe UI, Arial, sans-serif" font-size="12" font-weight="700" fill="#a0e0ff">4</text>
    </g>
    <g transform="translate(270,270)">
      <line x1="5" y1="0" x2="135" y2="0" stroke="#64c8ff" stroke-opacity="0.5" stroke-width="2" stroke-dasharray="6,4"/>
      <polygon points="135,-5 145,0 135,5" fill="#64c8ff" fill-opacity="0.6"/>
    </g>
    <g transform="translate(350,270)">
      <circle cx="0" cy="-20" r="10" fill="#64c8ff" fill-opacity="0.3" stroke="#64c8ff" stroke-opacity="0.6" stroke-width="1"/>
      <text x="0" y="-16" text-anchor="middle" font-family="Segoe UI, Arial, sans-serif" font-size="12" font-weight="700" fill="#a0e0ff">5</text>
    </g>
    <g transform="translate(422,290)">
      <line x1="0" y1="5" x2="0" y2="25" stroke="#ffc83c" stroke-opacity="0.5" stroke-width="2" stroke-dasharray="6,4"/>
      <polygon points="-5,25 0,35 5,25" fill="#ffc83c" fill-opacity="0.6"/>
    </g>
    <g transform="translate(422,310)">
      <circle cx="18" cy="0" r="10" fill="#ffc83c" fill-opacity="0.3" stroke="#ffc83c" stroke-opacity="0.6" stroke-width="1"/>
      <text x="18" y="4" text-anchor="middle" font-family="Segoe UI, Arial, sans-serif" font-size="12" font-weight="700" fill="#ffe060">6</text>
    </g>
    <path d="M32,30 L97,30 L97,150 L260,150 L260,270 L422,270 L422,330 L487,330" fill="none" stroke="#64c8ff" stroke-opacity="0.12" stroke-width="1.5"/>
  </g>
  <g opacity="0.3">
    <polygon points="20,20 30,5 40,20 30,25" fill="#5ab8e0"/>
    <polygon points="15,35 25,15 35,35 25,40" fill="#4a98c0"/>
    <polygon points="760,25 770,8 780,25 770,30" fill="#5ab8e0"/>
    <polygon points="750,15 762,2 774,15 762,20" fill="#4a98c0"/>
    <polygon points="25,420 35,405 45,420 35,425" fill="#5ab8e0"/>
    <polygon points="755,430 765,415 775,430 765,435" fill="#5ab8e0"/>
  </g>
  <g fill="#ffffff" opacity="0.2">
    <circle cx="30" cy="220" r="2"/>
    <circle cx="770" cy="200" r="2"/>
    <circle cx="50" cy="380" r="1.5"/>
    <circle cx="750" cy="80" r="1.5"/>
  </g>
  <rect x="310" y="400" width="180" height="38" rx="8" fill="#0a1428" opacity="0.7"/>
  <text x="400" y="425" text-anchor="middle" font-family="Segoe UI, Helvetica Neue, Arial, sans-serif" font-size="20" font-weight="600" fill="#a0e0ff" letter-spacing="1">Ice Puzzle</text>
</svg>