<svg xmlns="http://www.w3.org/2000/svg" viewBox="0 0 800 450" width="800" height="450">
  <defs>
    <linearGradient id="skyGrad" x1="0" y1="0" x2="0" y2="1">
      <stop offset="0%" stop-color="#87CEEB"/>
      <stop offset="60%" stop-color="#B8E6C8"/>
      <stop offset="100%" stop-color="#7BC67E"/>
    </linearGradient>
    <linearGradient id="hillGrad1" x1="0" y1="0" x2="0" y2="1">
      <stop offset="0%" stop-color="#5DAE5F"/>
      <stop offset="100%" stop-color="#3D8B3F"/>
    </linearGradient>
    <linearGradient id="hillGrad2" x1="0" y1="0" x2="0" y2="1">
      <stop offset="0%" stop-color="#6BBF6D"/>
      <stop offset="100%" stop-color="#4A9E4C"/>
    </linearGradient>
    <linearGradient id="hillGrad3" x1="0" y1="0" x2="0" y2="1">
      <stop offset="0%" stop-color="#78CC7A"/>
      <stop offset="100%" stop-color="#52A854"/>
    </linearGradient>
    <radialGradient id="sunGlow" cx="0.8" cy="0.15">
      <stop offset="0%" stop-color="#FFF9C4"/>
      <stop offset="40%" stop-color="#FFECB3" stop-opacity="0.6"/>
      <stop offset="100%" stop-color="#FFECB3" stop-opacity="0"/>
    </radialGradient>
    <radialGradient id="treeGrad1">
      <stop offset="0%" stop-color="#66BB6A"/>
      <stop offset="100%" stop-color="#2E7D32"/>
    </radialGradient>
    <radialGradient id="treeGrad2">
      <stop offset="0%" stop-color="#81C784"/>
      <stop offset="100%" stop-color="#388E3C"/>
    </radialGradient>
    <linearGradient id="roofRed" x1="0" y1="0" x2="0" y2="1">
      <stop offset="0%" stop-color="#E57373"/>
      <stop offset="100%" stop-color="#C62828"/>
    </linearGradient>
    <linearGradient id="roofBlue" x1="0" y1="0" x2="0" y2="1">
      <stop offset="0%" stop-color="#64B5F6"/>
      <stop offset="100%" stop-color="#1565C0"/>
    </linearGradient>
    <linearGradient id="roofOrange" x1="0" y1="0" x2="0" y2="1">
      <stop offset="0%" stop-color="#FFB74D"/>
      <stop offset="100%" stop-color="#E65100"/>
    </linearGradient>
  </defs>
  <rect width="800" height="450" fill="url(#skyGrad)"/>
  <circle cx="640" cy="65" r="180" fill="url(#sunGlow)"/>
  <circle cx="640" cy="65" r="35" fill="#FFF176" opacity="0.9"/>
  <circle cx="640" cy="65" r="28" fill="#FFEE58"/>
  <g opacity="0.7">
    <ellipse cx="150" cy="60" rx="50" ry="20" fill="white"/>
    <ellipse cx="180" cy="50" rx="40" ry="18" fill="white"/>
    <ellipse cx="120" cy="55" rx="35" ry="15" fill="white"/>
  </g>
  <g opacity="0.5">
    <ellipse cx="450" cy="40" rx="45" ry="16" fill="white"/>
    <ellipse cx="480" cy="32" rx="35" ry="14" fill="white"/>
    <ellipse cx="420" cy="38" rx="30" ry="12" fill="white"/>
  </g>
  <g opacity="0.6">
    <ellipse cx="720" cy="100" rx="38" ry="14" fill="white"/>
    <ellipse cx="745" cy="92" rx="30" ry="12" fill="white"/>
  </g>
  <ellipse cx="200" cy="260" rx="250" ry="80" fill="url(#hillGrad1)"/>
  <ellipse cx="550" cy="250" rx="300" ry="90" fill="url(#hillGrad2)"/>
  <ellipse cx="750" cy="270" rx="200" ry="70" fill="url(#hillGrad1)"/>
  <ellipse cx="100" cy="300" rx="200" ry="60" fill="url(#hillGrad3)"/>
  <ellipse cx="400" cy="310" rx="280" ry="70" fill="url(#hillGrad3)"/>
  <ellipse cx="700" cy="295" rx="220" ry="65" fill="url(#hillGrad2)"/>
  <rect x="0" y="290" width="800" height="160" fill="#4CAF50"/>
  <rect x="0" y="340" width="800" height="110" fill="#43A047"/>
  <path d="M350,450 Q320,400 340,370 Q370,330 420,320 Q480,310 500,280 Q520,250 560,240" stroke="#D4A76A" stroke-width="28" fill="none" stroke-linecap="round"/>
  <path d="M350,450 Q320,400 340,370 Q370,330 420,320 Q480,310 500,280 Q520,250 560,240" stroke="#E0BE89" stroke-width="18" fill="none" stroke-linecap="round"/>
  <path d="M350,450 Q320,400 340,370 Q370,330 420,320 Q480,310 500,280 Q520,250 560,240" stroke="#C49558" stroke-width="2" fill="none" stroke-dasharray="8,12" stroke-linecap="round"/>
  <g>
    <rect x="85" y="230" width="8" height="35" fill="#6D4C41" rx="2"/>
    <circle cx="89" cy="218" r="22" fill="url(#treeGrad1)"/>
    <circle cx="78" cy="225" r="16" fill="url(#treeGrad2)"/>
    <circle cx="100" cy="222" r="18" fill="url(#treeGrad1)"/>
    <rect x="680" y="225" width="8" height="30" fill="#6D4C41" rx="2"/>
    <circle cx="684" cy="212" r="20" fill="url(#treeGrad2)"/>
    <circle cx="674" cy="218" r="15" fill="url(#treeGrad1)"/>
    <circle cx="694" cy="216" r="17" fill="url(#treeGrad2)"/>
  </g>
  <g>
    <rect x="120" y="295" width="60" height="50" fill="#FFCC80" rx="2"/>
    <rect x="122" y="297" width="56" height="46" fill="#FFB74D" rx="1"/>
    <polygon points="110,295 180,295 150,265" fill="url(#roofRed)"/>
    <rect x="140" y="315" width="14" height="30" fill="#5D4037" rx="1"/>
    <circle cx="150" cy="330" r="2" fill="#FFC107"/>
    <rect x="125" y="305" width="10" height="10" fill="#81D4FA" rx="1"/>
    <rect x="125" y="305" width="10" height="10" fill="none" stroke="#5D4037" stroke-width="1"/>
    <line x1="130" y1="305" x2="130" y2="315" stroke="#5D4037" stroke-width="0.5"/>
    <line x1="125" y1="310" x2="135" y2="310" stroke="#5D4037" stroke-width="0.5"/>
    <rect x="160" y="305" width="10" height="10" fill="#81D4FA" rx="1"/>
    <rect x="160" y="305" width="10" height="10" fill="none" stroke="#5D4037" stroke-width="1"/>
    <line x1="165" y1="305" x2="165" y2="315" stroke="#5D4037" stroke-width="0.5"/>
    <line x1="160" y1="310" x2="170" y2="310" stroke="#5D4037" stroke-width="0.5"/>
  </g>
  <g>
    <rect x="250" y="285" width="55" height="55" fill="#FFCC80" rx="2"/>
    <rect x="252" y="287" width="51" height="51" fill="#FFE0B2" rx="1"/>
    <polygon points="242,285 313,285 277,250" fill="url(#roofBlue)"/>
    <rect x="268" y="310" width="12" height="30" fill="#5D4037" rx="1"/>
    <circle cx="277" cy="325" r="2" fill="#FFC107"/>
    <rect x="255" y="295" width="10" height="10" fill="#81D4FA" rx="1"/>
    <rect x="255" y="295" width="10" height="10" fill="none" stroke="#5D4037" stroke-width="1"/>
    <line x1="260" y1="295" x2="260" y2="305" stroke="#5D4037" stroke-width="0.5"/>
    <line x1="255" y1="300" x2="265" y2="300" stroke="#5D4037" stroke-width="0.5"/>
    <rect x="290" y="295" width="10" height="10" fill="#81D4FA" rx="1"/>
    <rect x="290" y="295" width="10" height="10" fill="none" stroke="#5D4037" stroke-width="1"/>
  </g>
  <g>
    <rect x="570" y="275" width="65" height="55" fill="#FFE0B2" rx="2"/>
    <rect x="572" y="277" width="61" height="51" fill="#FFCC80" rx="1"/>
    <polygon points="562,275 643,275 602,240" fill="url(#roofOrange)"/>
    <rect x="594" y="300" width="14" height="30" fill="#5D4037" rx="1"/>
    <circle cx="604" cy="315" r="2" fill="#FFC107"/>
    <rect x="575" y="285" width="12" height="12" fill="#81D4FA" rx="1"/>
    <rect x="575" y="285" width="12" height="12" fill="none" stroke="#5D4037" stroke-width="1"/>
    <line x1="581" y1="285" x2="581" y2="297" stroke="#5D4037" stroke-width="0.5"/>
    <line x1="575" y1="291" x2="587" y2="291" stroke="#5D4037" stroke-width="0.5"/>
    <rect x="618" y="285" width="12" height="12" fill="#81D4FA" rx="1"/>
    <rect x="618" y="285" width="12" height="12" fill="none" stroke="#5D4037" stroke-width="1"/>
  </g>
  <g>
    <rect x="450" y="268" width="40" height="35" fill="#FFCC80" rx="2"/>
    <polygon points="445,268 495,268 470,248" fill="url(#roofRed)"/>
    <rect x="464" y="282" width="10" height="21" fill="#5D4037" rx="1"/>
    <rect x="453" y="275" width="8" height="8" fill="#81D4FA" rx="1"/>
  </g>
  <rect x="30" y="310" width="12" height="50" fill="#5D4037" rx="3"/>
  <circle cx="36" cy="290" r="30" fill="url(#treeGrad1)"/>
  <circle cx="20" cy="300" r="22" fill="url(#treeGrad2)"/>
  <circle cx="52" cy="296" r="24" fill="url(#treeGrad1)"/>
  <circle cx="36" cy="278" r="18" fill="#81C784"/>
  <rect x="740" y="300" width="12" height="55" fill="#5D4037" rx="3"/>
  <circle cx="746" cy="278" r="32" fill="url(#treeGrad2)"/>
  <circle cx="728" cy="288" r="24" fill="url(#treeGrad1)"/>
  <circle cx="764" cy="284" r="26" fill="url(#treeGrad2)"/>
  <circle cx="746" cy="266" r="20" fill="#A5D6A7"/>
  <rect x="660" y="295" width="10" height="40" fill="#5D4037" rx="2"/>
  <circle cx="665" cy="278" r="25" fill="url(#treeGrad1)"/>
  <circle cx="652" cy="285" r="18" fill="url(#treeGrad2)"/>
  <circle cx="678" cy="282" r="20" fill="url(#treeGrad1)"/>
  <circle cx="200" cy="360" r="4" fill="#F06292"/>
  <circle cx="200" cy="360" r="2" fill="#FFF176"/>
  <circle cx="210" cy="365" r="3.5" fill="#CE93D8"/>
  <circle cx="210" cy="365" r="1.5" fill="#FFF176"/>
  <circle cx="195" cy="368" r="3" fill="#EF5350"/>
  <circle cx="195" cy="368" r="1.5" fill="#FFEB3B"/>
  <circle cx="480" cy="355" r="4" fill="#FF8A65"/>
  <circle cx="480" cy="355" r="2" fill="#FFF9C4"/>
  <circle cx="490" cy="360" r="3.5" fill="#F06292"/>
  <circle cx="490" cy="360" r="1.5" fill="#FFF176"/>
  <circle cx="475" cy="362" r="3" fill="#CE93D8"/>
  <circle cx="475" cy="362" r="1.5" fill="#FFF176"/>
  <circle cx="330" cy="380" r="3.5" fill="#EF5350"/>
  <circle cx="330" cy="380" r="1.5" fill="#FFEB3B"/>
  <circle cx="340" cy="385" r="4" fill="#F06292"/>
  <circle cx="340" cy="385" r="2" fill="#FFF176"/>
  <circle cx="620" cy="370" r="4" fill="#BA68C8"/>
  <circle cx="620" cy="370" r="2" fill="#FFF9C4"/>
  <circle cx="630" cy="375" r="3" fill="#F06292"/>
  <circle cx="630" cy="375" r="1.5" fill="#FFF176"/>
  <circle cx="614" cy="377" r="3.5" fill="#EF5350"/>
  <circle cx="614" cy="377" r="1.5" fill="#FFEB3B"/>
  <circle cx="100" cy="375" r="3" fill="#FF8A65"/>
  <circle cx="100" cy="375" r="1.5" fill="#FFF9C4"/>
  <circle cx="108" cy="380" r="4" fill="#CE93D8"/>
  <circle cx="108" cy="380" r="2" fill="#FFF176"/>
  <line x1="160" y1="370" x2="155" y2="358" stroke="#388E3C" stroke-width="1.5" stroke-linecap="round"/>
  <line x1="163" y1="370" x2="166" y2="356" stroke="#2E7D32" stroke-width="1.5" stroke-linecap="round"/>
  <line x1="520" y1="365" x2="516" y2="352" stroke="#388E3C" stroke-width="1.5" stroke-linecap="round"/>
  <line x1="523" y1="365" x2="527" y2="350" stroke="#2E7D32" stroke-width="1.5" stroke-linecap="round"/>
  <line x1="380" y1="390" x2="376" y2="378" stroke="#388E3C" stroke-width="1.5" stroke-linecap="round"/>
  <line x1="383" y1="390" x2="387" y2="376" stroke="#2E7D32" stroke-width="1.5" stroke-linecap="round"/>
  <line x1="370" y1="378" x2="370" y2="395" stroke="#8D6E63" stroke-width="2.5"/>
  <line x1="390" y1="372" x2="390" y2="389" stroke="#8D6E63" stroke-width="2.5"/>
  <line x1="410" y1="365" x2="410" y2="382" stroke="#8D6E63" stroke-width="2.5"/>
  <line x1="370" y1="382" x2="410" y2="370" stroke="#A1887F" stroke-width="1.5"/>
  <rect x="220" y="405" width="360" height="36" rx="18" fill="rgba(0,0,0,0.45)"/>
  <text x="400" y="430" text-anchor="middle" font-family="Segoe UI, Helvetica, Arial, sans-serif" font-size="22" font-weight="600" fill="white" letter-spacing="1">Turtletown Village</text>
</svg>