<svg xmlns="http://www.w3.org/2000/svg" viewBox="0 0 800 450" width="800" height="450">
  <defs>
    <linearGradient id="me-sky" x1="0" y1="0" x2="0" y2="1">
      <stop offset="0%" stop-color="#4a3728"/>
      <stop offset="100%" stop-color="#2c1e14"/>
    </linearGradient>
    <linearGradient id="me-ground" x1="0" y1="0" x2="0" y2="1">
      <stop offset="0%" stop-color="#5c4033"/>
      <stop offset="100%" stop-color="#3b2718"/>
    </linearGradient>
    <linearGradient id="me-darkness" x1="0" y1="0" x2="0" y2="1">
      <stop offset="0%" stop-color="#1a1008" stop-opacity="0.3"/>
      <stop offset="60%" stop-color="#0a0604" stop-opacity="0.85"/>
      <stop offset="100%" stop-color="#000000" stop-opacity="1"/>
    </linearGradient>
    <linearGradient id="me-lantern" x1="0" y1="0" x2="0" y2="1">
      <stop offset="0%" stop-color="#ffdd44"/>
      <stop offset="100%" stop-color="#ff8800"/>
    </linearGradient>
    <radialGradient id="me-glow1" cx="0.5" cy="0.5" r="0.5">
      <stop offset="0%" stop-color="#ffcc33" stop-opacity="0.5"/>
      <stop offset="100%" stop-color="#ffcc33" stop-opacity="0"/>
    </radialGradient>
    <radialGradient id="me-glow2" cx="0.5" cy="0.5" r="0.5">
      <stop offset="0%" stop-color="#ffcc33" stop-opacity="0.4"/>
      <stop offset="100%" stop-color="#ffcc33" stop-opacity="0"/>
    </radialGradient>
  </defs>
  <rect width="800" height="450" fill="url(#me-sky)"/>
  <polygon points="0,80 120,60 180,120 200,200 220,300 180,380 150,450 0,450" fill="#4a3a2e"/>
  <polygon points="0,100 80,90 140,150 160,250 130,350 100,450 0,450" fill="#3d2f22"/>
  <polygon points="50,80 100,70 130,100 150,160 120,200 80,180" fill="#5a4a3a"/>
  <polygon points="0,200 60,180 90,220 70,280 30,300 0,290" fill="#544030"/>
  <polygon points="800,80 680,60 620,120 600,200 580,300 620,380 650,450 800,450" fill="#4a3a2e"/>
  <polygon points="800,100 720,90 660,150 640,250 670,350 700,450 800,450" fill="#3d2f22"/>
  <polygon points="750,80 700,70 670,100 650,160 680,200 720,180" fill="#5a4a3a"/>
  <polygon points="800,200 740,180 710,220 730,280 770,300 800,290" fill="#544030"/>
  <rect x="0" y="340" width="800" height="110" fill="url(#me-ground)"/>
  <circle cx="50" cy="370" r="3" fill="#6b5040" opacity="0.6"/>
  <circle cx="120" cy="390" r="2" fill="#7a6050" opacity="0.5"/>
  <circle cx="200" cy="360" r="4" fill="#5a4030" opacity="0.4"/>
  <circle cx="600" cy="375" r="3" fill="#6b5040" opacity="0.6"/>
  <circle cx="680" cy="395" r="2" fill="#7a6050" opacity="0.5"/>
  <circle cx="750" cy="365" r="4" fill="#5a4030" opacity="0.4"/>
  <rect x="300" y="380" width="6" height="3" rx="1" fill="#6b5040" opacity="0.4" transform="rotate(15,303,381)"/>
  <rect x="500" y="370" width="5" height="3" rx="1" fill="#5a4030" opacity="0.5" transform="rotate(-10,502,371)"/>
  <circle cx="350" cy="400" r="2" fill="#6b5040" opacity="0.3"/>
  <circle cx="450" cy="395" r="3" fill="#5a4535" opacity="0.4"/>
  <path d="M240,340 L240,140 Q400,60 560,140 L560,340" fill="#3a2a1e" stroke="#2a1a0e" stroke-width="3"/>
  <path d="M260,340 L260,160 Q400,90 540,160 L540,340" fill="#0a0604"/>
  <path d="M260,340 L260,160 Q400,90 540,160 L540,340" fill="url(#me-darkness)"/>
  <path d="M250,148 Q400,72 550,148" fill="none" stroke="#6b4226" stroke-width="14" stroke-linecap="round"/>
  <path d="M250,148 Q400,72 550,148" fill="none" stroke="#8b5a2b" stroke-width="10" stroke-linecap="round"/>
  <path d="M252,144 Q400,70 548,144" fill="none" stroke="#9b6a3b" stroke-width="3" stroke-linecap="round" opacity="0.4"/>
  <rect x="242" y="145" width="16" height="200" fill="#6b4226" rx="2"/>
  <rect x="244" y="145" width="12" height="200" fill="#8b5a2b" rx="2"/>
  <line x1="247" y1="145" x2="247" y2="345" stroke="#9b6a3b" stroke-width="2" opacity="0.3"/>
  <rect x="542" y="145" width="16" height="200" fill="#6b4226" rx="2"/>
  <rect x="544" y="145" width="12" height="200" fill="#8b5a2b" rx="2"/>
  <line x1="553" y1="145" x2="553" y2="345" stroke="#9b6a3b" stroke-width="2" opacity="0.3"/>
  <rect x="255" y="190" width="290" height="8" fill="#6b4226" rx="2"/>
  <rect x="255" y="191" width="290" height="6" fill="#7b4a26" rx="2"/>
  <rect x="255" y="260" width="290" height="8" fill="#6b4226" rx="2"/>
  <rect x="255" y="261" width="290" height="6" fill="#7b4a26" rx="2"/>
  <rect x="310" y="130" width="10" height="215" fill="#5b3a1e" rx="1" transform="rotate(-3,315,237)"/>
  <rect x="480" y="130" width="10" height="215" fill="#5b3a1e" rx="1" transform="rotate(3,485,237)"/>
  <rect x="280" y="330" width="240" height="5" rx="1" fill="#6b4226"/>
  <rect x="290" y="320" width="220" height="5" rx="1" fill="#6b4226"/>
  <rect x="300" y="310" width="200" height="5" rx="1" fill="#6b4226"/>
  <rect x="310" y="300" width="180" height="4" rx="1" fill="#5b3a1e"/>
  <rect x="320" y="292" width="160" height="4" rx="1" fill="#4b2a0e"/>
  <rect x="330" y="284" width="140" height="3" rx="1" fill="#3b1a00"/>
  <line x1="295" y1="340" x2="355" y2="280" stroke="#888" stroke-width="4"/>
  <line x1="295" y1="340" x2="355" y2="280" stroke="#aaa" stroke-width="2"/>
  <line x1="505" y1="340" x2="445" y2="280" stroke="#888" stroke-width="4"/>
  <line x1="505" y1="340" x2="445" y2="280" stroke="#aaa" stroke-width="2"/>
  <line x1="295" y1="340" x2="220" y2="390" stroke="#888" stroke-width="4"/>
  <line x1="295" y1="340" x2="220" y2="390" stroke="#aaa" stroke-width="2"/>
  <line x1="505" y1="340" x2="580" y2="390" stroke="#888" stroke-width="4"/>
  <line x1="505" y1="340" x2="580" y2="390" stroke="#aaa" stroke-width="2"/>
  <rect x="230" y="375" width="80" height="5" rx="1" fill="#6b4226" transform="rotate(-8,270,377)"/>
  <rect x="250" y="362" width="70" height="5" rx="1" fill="#6b4226" transform="rotate(-8,285,364)"/>
  <rect x="490" y="375" width="80" height="5" rx="1" fill="#6b4226" transform="rotate(8,530,377)"/>
  <rect x="480" y="362" width="70" height="5" rx="1" fill="#6b4226" transform="rotate(8,515,364)"/>
  <polygon points="310,330 340,290 460,290 490,330" fill="#555" stroke="#444" stroke-width="2"/>
  <polygon points="315,328 342,293 458,293 485,328" fill="#666"/>
  <line x1="330" y1="295" x2="330" y2="328" stroke="#555" stroke-width="1"/>
  <line x1="370" y1="292" x2="370" y2="330" stroke="#555" stroke-width="1"/>
  <line x1="430" y1="292" x2="430" y2="330" stroke="#555" stroke-width="1"/>
  <line x1="470" y1="295" x2="470" y2="328" stroke="#555" stroke-width="1"/>
  <circle cx="330" cy="335" r="8" fill="#444" stroke="#333" stroke-width="2"/>
  <circle cx="330" cy="335" r="3" fill="#555"/>
  <circle cx="470" cy="335" r="8" fill="#444" stroke="#333" stroke-width="2"/>
  <circle cx="470" cy="335" r="3" fill="#555"/>
  <rect x="265" y="165" width="2" height="15" fill="#888"/>
  <rect x="260" y="180" width="12" height="16" rx="2" fill="url(#me-lantern)" stroke="#aa6600" stroke-width="1"/>
  <circle cx="266" cy="175" r="20" fill="url(#me-glow1)"/>
  <rect x="533" y="165" width="2" height="15" fill="#888"/>
  <rect x="528" y="180" width="12" height="16" rx="2" fill="url(#me-lantern)" stroke="#aa6600" stroke-width="1"/>
  <circle cx="534" cy="175" r="20" fill="url(#me-glow2)"/>
  <rect x="570" y="260" width="4" height="80" fill="#8b5a2b"/>
  <rect x="555" y="245" width="40" height="30" rx="3" fill="#cc8833" stroke="#aa6622" stroke-width="2"/>
  <polygon points="575,252 582,264 568,264" fill="#222" stroke="#222" stroke-width="1"/>
  <text x="575" y="271" text-anchor="middle" font-family="Arial, Helvetica, sans-serif" font-size="7" fill="#222" font-weight="bold">!</text>
  <ellipse cx="160" cy="280" rx="15" ry="10" fill="#4a3828" opacity="0.6"/>
  <ellipse cx="640" cy="260" rx="12" ry="8" fill="#4a3828" opacity="0.6"/>
  <polygon points="100,320 120,310 135,325 115,335" fill="#503828" opacity="0.5"/>
  <polygon points="680,315 695,305 710,318 695,330" fill="#503828" opacity="0.5"/>
  <ellipse cx="180" cy="380" rx="8" ry="5" fill="#5a4535"/>
  <ellipse cx="620" cy="385" rx="6" ry="4" fill="#5a4535"/>
  <ellipse cx="400" cy="395" rx="5" ry="3" fill="#4a3525"/>
  <circle cx="150" cy="400" r="4" fill="#544030"/>
  <circle cx="650" cy="400" r="3" fill="#544030"/>
  <rect x="280" y="410" width="240" height="32" rx="6" fill="#1a1008" opacity="0.8"/>
  <text x="400" y="432" text-anchor="middle" font-family="Arial, Helvetica, sans-serif" font-size="18" fill="#e8d5b8" font-weight="bold" letter-spacing="2">Mine Entrance</text>
</svg>