<svg xmlns="http://www.w3.org/2000/svg" viewBox="0 0 800 450" width="800" height="450">
  <defs>
    <radialGradient id="arenaBg" cx="0.5" cy="0.4" r="0.6">
      <stop offset="0%" stop-color="#0f1e3a"/>
      <stop offset="60%" stop-color="#091428"/>
      <stop offset="100%" stop-color="#050a18"/>
    </radialGradient>
    <linearGradient id="giantBody" x1="0" y1="0" x2="0" y2="1">
      <stop offset="0%" stop-color="#6aaccc"/>
      <stop offset="40%" stop-color="#4a8aaa"/>
      <stop offset="100%" stop-color="#2a5a7a"/>
    </linearGradient>
    <linearGradient id="arenaFloor" x1="0" y1="0" x2="0" y2="1">
      <stop offset="0%" stop-color="#1a3050"/>
      <stop offset="100%" stop-color="#2a4a70"/>
    </linearGradient>
    <radialGradient id="coldBreath" cx="0.3" cy="0.5" r="0.7">
      <stop offset="0%" stop-color="#c8e6ff" stop-opacity="0.5"/>
      <stop offset="40%" stop-color="#96c8f0" stop-opacity="0.2"/>
      <stop offset="100%" stop-color="#96c8f0" stop-opacity="0"/>
    </radialGradient>
    <radialGradient id="giantGlow" cx="0.5" cy="0.5" r="0.5">
      <stop offset="0%" stop-color="#50a0dc" stop-opacity="0.3"/>
      <stop offset="100%" stop-color="#50a0dc" stop-opacity="0"/>
    </radialGradient>
    <linearGradient id="pillarGrad" x1="0" y1="0" x2="0" y2="1">
      <stop offset="0%" stop-color="#5aaad0"/>
      <stop offset="50%" stop-color="#3a80aa"/>
      <stop offset="100%" stop-color="#2a6088"/>
    </linearGradient>
    <filter id="stormBlur"><feGaussianBlur stdDeviation="1.5"/></filter>
  </defs>
  <rect width="800" height="450" fill="url(#arenaBg)"/>
  <g opacity="0.15">
    <polygon points="400,80 300,450 320,450" fill="#4a8ac0"/>
    <polygon points="400,80 350,450 380,450" fill="#4a8ac0"/>
    <polygon points="400,80 420,450 450,450" fill="#4a8ac0"/>
    <polygon points="400,80 480,450 500,450" fill="#4a8ac0"/>
    <polygon points="400,80 200,450 240,450" fill="#3a7ab0"/>
    <polygon points="400,80 560,450 600,450" fill="#3a7ab0"/>
  </g>
  <g>
    <rect x="40" y="120" width="35" height="280" fill="url(#pillarGrad)" opacity="0.7"/>
    <polygon points="40,120 57,90 75,120" fill="#70bae0" opacity="0.7"/>
    <rect x="43" y="130" width="3" height="260" fill="#ffffff" opacity="0.1"/>
  </g>
  <g>
    <rect x="130" y="100" width="40" height="300" fill="url(#pillarGrad)" opacity="0.8"/>
    <polygon points="130,100 150,65 170,100" fill="#70bae0" opacity="0.8"/>
    <rect x="134" y="110" width="3" height="280" fill="#ffffff" opacity="0.15"/>
  </g>
  <g>
    <rect x="630" y="100" width="40" height="300" fill="url(#pillarGrad)" opacity="0.8"/>
    <polygon points="630,100 650,65 670,100" fill="#70bae0" opacity="0.8"/>
    <rect x="634" y="110" width="3" height="280" fill="#ffffff" opacity="0.15"/>
  </g>
  <g>
    <rect x="725" y="120" width="35" height="280" fill="url(#pillarGrad)" opacity="0.7"/>
    <polygon points="725,120 742,90 760,120" fill="#70bae0" opacity="0.7"/>
    <rect x="728" y="130" width="3" height="260" fill="#ffffff" opacity="0.1"/>
  </g>
  <ellipse cx="400" cy="220" rx="120" ry="180" fill="url(#giantGlow)"/>
  <g transform="translate(400,100)">
    <path d="M-45,40 L-55,50 L-65,60 L-60,200 L-35,250 L35,250 L60,200 L65,60 L55,50 L45,40 Z" fill="url(#giantBody)"/>
    <path d="M-45,40 L-20,45 L-15,250 L-35,250 L-60,200 L-65,60 Z" fill="#000000" opacity="0.1"/>
    <rect x="-25" y="-10" width="50" height="55" rx="8" fill="#5a9abc"/>
    <rect x="-15" y="10" width="10" height="6" rx="2" fill="#2a5a7a"/>
    <rect x="5" y="10" width="10" height="6" rx="2" fill="#2a5a7a"/>
    <circle cx="-10" cy="13" r="3" fill="#a0e0ff"/>
    <circle cx="10" cy="13" r="3" fill="#a0e0ff"/>
    <circle cx="-10" cy="13" r="5" fill="#a0e0ff" opacity="0.3"/>
    <circle cx="10" cy="13" r="5" fill="#a0e0ff" opacity="0.3"/>
    <rect x="-10" y="28" width="20" height="4" rx="2" fill="#2a4a6a"/>
    <polygon points="-20,-10 -18,-35 -12,-10" fill="#80d0f0" stroke="#a0e8ff" stroke-width="0.5"/>
    <polygon points="-8,-10 -5,-45 0,-10" fill="#90d8f5" stroke="#a0e8ff" stroke-width="0.5"/>
    <polygon points="0,-10 5,-50 10,-10" fill="#a0e0fa" stroke="#b0f0ff" stroke-width="0.5"/>
    <polygon points="10,-10 15,-40 20,-10" fill="#90d8f5" stroke="#a0e8ff" stroke-width="0.5"/>
    <ellipse cx="0" cy="-30" rx="25" ry="20" fill="#a0e0ff" opacity="0.15"/>
    <path d="M-65,60 L-95,120 L-85,130 L-55,80" fill="#4a8aaa"/>
    <path d="M65,60 L95,120 L85,130 L55,80" fill="#4a8aaa"/>
    <circle cx="-90" cy="125" r="12" fill="#5a9abc"/>
    <circle cx="90" cy="125" r="12" fill="#5a9abc"/>
    <g fill="#a0dcff" opacity="0.3">
      <polygon points="-30,80 -25,60 -20,80"/>
      <polygon points="20,90 25,70 30,90"/>
      <polygon points="-10,150 -5,130 0,150"/>
      <polygon points="10,160 15,140 20,160"/>
    </g>
    <rect x="-50" y="140" width="100" height="8" fill="#2a5a7a"/>
    <rect x="-8" y="136" width="16" height="16" rx="3" fill="#3a7a9a" stroke="#80c0e0" stroke-width="1"/>
    <rect x="-35" y="250" width="28" height="50" fill="#3a7a9a"/>
    <rect x="7" y="250" width="28" height="50" fill="#3a7a9a"/>
    <rect x="-38" y="295" width="34" height="12" rx="4" fill="#2a6a8a"/>
    <rect x="4" y="295" width="34" height="12" rx="4" fill="#2a6a8a"/>
  </g>
  <g transform="translate(340,185)">
    <ellipse cx="0" cy="0" rx="60" ry="25" fill="url(#coldBreath)"/>
    <ellipse cx="-20" cy="-5" rx="30" ry="12" fill="#c8e6ff" opacity="0.25"/>
    <ellipse cx="-35" cy="3" rx="20" ry="8" fill="#b4dcfa" opacity="0.15"/>
  </g>
  <rect x="0" y="380" width="800" height="70" fill="url(#arenaFloor)"/>
  <g stroke="#64b4dc" stroke-opacity="0.4" stroke-width="1" fill="none">
    <path d="M200,385 L250,400 L300,390 L340,410 L400,395"/>
    <path d="M400,395 L460,415 L510,400 L560,410 L620,390"/>
    <path d="M250,400 L270,420 L310,430"/>
    <path d="M460,415 L480,435 L520,440"/>
    <path d="M340,410 L350,440"/>
    <path d="M560,410 L580,430"/>
    <path d="M150,395 L200,385"/>
    <path d="M620,390 L680,400 L720,395"/>
    <path d="M300,390 L310,375 L340,380"/>
    <path d="M510,400 L530,385"/>
  </g>
  <rect x="180" y="388" width="100" height="1.5" fill="#64c8ff" opacity="0.15" rx="1"/>
  <rect x="450" y="392" width="120" height="1.5" fill="#64c8ff" opacity="0.12" rx="1"/>
  <rect x="320" y="405" width="80" height="1" fill="#64c8ff" opacity="0.1" rx="1"/>
  <g fill="#ffffff" opacity="0.6" filter="url(#stormBlur)">
    <circle cx="100" cy="80" r="2"/>
    <circle cx="250" cy="120" r="1.5"/>
    <circle cx="500" cy="60" r="2"/>
    <circle cx="650" cy="100" r="1.5"/>
    <circle cx="180" cy="200" r="2"/>
    <circle cx="350" cy="150" r="1.5"/>
    <circle cx="550" cy="180" r="2"/>
    <circle cx="700" cy="220" r="1.5"/>
    <circle cx="80" cy="300" r="1.5"/>
    <circle cx="720" cy="310" r="2"/>
    <circle cx="450" cy="280" r="1.5"/>
    <circle cx="300" cy="330" r="2"/>
  </g>
  <g stroke="#ffffff" stroke-opacity="0.15" stroke-width="1">
    <line x1="50" y1="50" x2="20" y2="80"/>
    <line x1="200" y1="80" x2="170" y2="110"/>
    <line x1="400" y1="40" x2="370" y2="70"/>
    <line x1="600" y1="70" x2="570" y2="100"/>
    <line x1="750" y1="50" x2="720" y2="80"/>
    <line x1="100" y1="180" x2="70" y2="210"/>
    <line x1="300" y1="200" x2="270" y2="230"/>
    <line x1="650" y1="170" x2="620" y2="200"/>
    <line x1="150" y1="300" x2="120" y2="330"/>
    <line x1="550" y1="310" x2="520" y2="340"/>
  </g>
  <rect x="260" y="395" width="280" height="40" rx="8" fill="#050a19" opacity="0.75"/>
  <text x="400" y="422" text-anchor="middle" font-family="Segoe UI, Helvetica Neue, Arial, sans-serif" font-size="20" font-weight="600" fill="#a0d8f0" letter-spacing="1">Frost Giant Arena</text>
</svg>