<svg xmlns="http://www.w3.org/2000/svg" viewBox="0 0 800 450" width="800" height="450">
  <defs>
    <linearGradient id="bgGrad" x1="0" y1="0" x2="0" y2="1">
      <stop offset="0%" stop-color="#E8F5E9"/>
      <stop offset="40%" stop-color="#2E7D32"/>
      <stop offset="100%" stop-color="#1A3A1A"/>
    </linearGradient>
    <radialGradient id="caveGlow" cx="0.5" cy="0.55" r="0.35">
      <stop offset="0%" stop-color="#FFB300" stop-opacity="0.7"/>
      <stop offset="40%" stop-color="#FF8F00" stop-opacity="0.4"/>
      <stop offset="70%" stop-color="#4E342E" stop-opacity="0.6"/>
      <stop offset="100%" stop-color="#1A1A1A" stop-opacity="0.95"/>
    </radialGradient>
    <linearGradient id="waterfallGrad" x1="0" y1="0" x2="0" y2="1">
      <stop offset="0%" stop-color="#B3E5FC"/>
      <stop offset="50%" stop-color="#81D4FA"/>
      <stop offset="100%" stop-color="#4FC3F7" stop-opacity="0.6"/>
    </linearGradient>
    <linearGradient id="rockGrad" x1="0" y1="0" x2="0.3" y2="1">
      <stop offset="0%" stop-color="#5D4037"/>
      <stop offset="50%" stop-color="#4E342E"/>
      <stop offset="100%" stop-color="#3E2723"/>
    </linearGradient>
    <linearGradient id="mossGrad" x1="0" y1="0" x2="0" y2="1">
      <stop offset="0%" stop-color="#558B2F"/>
      <stop offset="100%" stop-color="#C8E6C9"/>
    </linearGradient>
    <radialGradient id="poolGrad" cx="0.5" cy="0.3">
      <stop offset="0%" stop-color="#4FC3F7" stop-opacity="0.8"/>
      <stop offset="60%" stop-color="#0288D1" stop-opacity="0.6"/>
      <stop offset="100%" stop-color="#01579B" stop-opacity="0.4"/>
    </radialGradient>
    <radialGradient id="leafGrad">
      <stop offset="0%" stop-color="#66BB6A"/>
      <stop offset="100%" stop-color="#2E7D32"/>
    </radialGradient>
  </defs>
  <rect width="800" height="450" fill="url(#bgGrad)"/>
  <ellipse cx="400" cy="50" rx="450" ry="80" fill="#1B5E20" opacity="0.6"/>
  <ellipse cx="200" cy="30" rx="180" ry="50" fill="#2E7D32" opacity="0.4"/>
  <ellipse cx="650" cy="40" rx="200" ry="55" fill="#1B5E20" opacity="0.5"/>
  <path d="M0,100 L0,450 L800,450 L800,100 Q700,60 600,110 Q500,80 400,120 Q300,80 200,110 Q100,70 0,100Z" fill="url(#rockGrad)"/>
  <line x1="50" y1="180" x2="150" y2="175" stroke="#3E2723" stroke-width="1" opacity="0.4"/>
  <line x1="650" y1="170" x2="750" y2="165" stroke="#3E2723" stroke-width="1" opacity="0.4"/>
  <line x1="100" y1="250" x2="180" y2="245" stroke="#3E2723" stroke-width="1" opacity="0.3"/>
  <line x1="620" y1="240" x2="720" y2="238" stroke="#3E2723" stroke-width="1" opacity="0.3"/>
  <path d="M80,300 Q120,295 160,302" stroke="#3E2723" stroke-width="0.8" fill="none" opacity="0.3"/>
  <path d="M640,290 Q680,285 720,292" stroke="#3E2723" stroke-width="0.8" fill="none" opacity="0.3"/>
  <ellipse cx="120" cy="200" rx="40" ry="12" fill="url(#mossGrad)" opacity="0.7"/>
  <ellipse cx="680" cy="190" rx="35" ry="10" fill="url(#mossGrad)" opacity="0.6"/>
  <ellipse cx="180" cy="280" rx="30" ry="8" fill="#558B2F" opacity="0.5"/>
  <ellipse cx="620" cy="270" rx="28" ry="9" fill="#558B2F" opacity="0.5"/>
  <ellipse cx="100" cy="340" rx="25" ry="7" fill="url(#mossGrad)" opacity="0.4"/>
  <ellipse cx="700" cy="330" rx="30" ry="8" fill="url(#mossGrad)" opacity="0.4"/>
  <path d="M270,400 L270,200 Q270,120 400,110 Q530,120 530,200 L530,400Z" fill="#1A1A1A"/>
  <path d="M285,400 L285,210 Q285,140 400,130 Q515,140 515,210 L515,400Z" fill="#0D0D0D"/>
  <ellipse cx="400" cy="300" rx="100" ry="120" fill="url(#caveGlow)"/>
  <polygon points="370,320 375,295 380,320" fill="#FFB300" opacity="0.6"/>
  <polygon points="415,310 420,280 425,310" fill="#FFC107" opacity="0.5"/>
  <polygon points="390,340 394,315 398,340" fill="#FFD54F" opacity="0.4"/>
  <circle cx="375" cy="305" r="8" fill="#FFB300" opacity="0.2"/>
  <circle cx="420" cy="290" r="10" fill="#FFC107" opacity="0.15"/>
  <path d="M270,400 L270,200 Q270,120 400,110 Q530,120 530,200 L530,400" fill="none" stroke="#4E342E" stroke-width="6"/>
  <path d="M265,400 L265,198 Q265,115 400,105 Q535,115 535,198 L535,400" fill="none" stroke="#5D4037" stroke-width="3"/>
  <polygon points="320,130 328,170 312,170" fill="#4E342E"/>
  <polygon points="380,115 386,150 374,150" fill="#3E2723"/>
  <polygon points="430,118 436,155 424,155" fill="#4E342E"/>
  <polygon points="480,125 486,160 474,160" fill="#3E2723"/>
  <polygon points="350,120 354,145 346,145" fill="#5D4037"/>
  <polygon points="460,120 464,148 456,148" fill="#5D4037"/>
  <g opacity="0.8">
    <rect x="255" y="105" width="4" height="295" fill="#B3E5FC" rx="2" opacity="0.7"/>
    <rect x="262" y="100" width="6" height="300" fill="url(#waterfallGrad)" rx="3"/>
    <rect x="271" y="108" width="3" height="292" fill="#B3E5FC" rx="1.5" opacity="0.5"/>
    <rect x="248" y="115" width="3" height="285" fill="#81D4FA" rx="1.5" opacity="0.4"/>
    <rect x="243" y="120" width="2" height="280" fill="#B3E5FC" rx="1" opacity="0.3"/>
  </g>
  <g opacity="0.8">
    <rect x="530" y="108" width="5" height="292" fill="#B3E5FC" rx="2.5" opacity="0.7"/>
    <rect x="537" y="102" width="6" height="298" fill="url(#waterfallGrad)" rx="3"/>
    <rect x="526" y="112" width="3" height="288" fill="#81D4FA" rx="1.5" opacity="0.5"/>
    <rect x="545" y="118" width="3" height="282" fill="#B3E5FC" rx="1.5" opacity="0.4"/>
    <rect x="549" y="122" width="2" height="278" fill="#81D4FA" rx="1" opacity="0.3"/>
  </g>
  <ellipse cx="400" cy="410" rx="160" ry="30" fill="url(#poolGrad)"/>
  <ellipse cx="400" cy="408" rx="140" ry="22" fill="#4FC3F7" opacity="0.3"/>
  <ellipse cx="380" cy="405" rx="30" ry="5" fill="none" stroke="white" stroke-width="0.8" opacity="0.3"/>
  <ellipse cx="420" cy="412" rx="25" ry="4" fill="none" stroke="white" stroke-width="0.6" opacity="0.25"/>
  <ellipse cx="400" cy="418" rx="40" ry="6" fill="none" stroke="white" stroke-width="0.5" opacity="0.2"/>
  <circle cx="290" cy="380" r="15" fill="white" opacity="0.12"/>
  <circle cx="310" cy="370" r="20" fill="white" opacity="0.08"/>
  <circle cx="275" cy="360" r="12" fill="white" opacity="0.1"/>
  <circle cx="510" cy="375" r="18" fill="white" opacity="0.1"/>
  <circle cx="530" cy="365" r="14" fill="white" opacity="0.08"/>
  <circle cx="495" cy="385" r="10" fill="white" opacity="0.12"/>
  <circle cx="350" cy="395" r="25" fill="white" opacity="0.06"/>
  <circle cx="450" cy="390" r="22" fill="white" opacity="0.06"/>
  <circle cx="400" cy="385" r="30" fill="white" opacity="0.05"/>
  <g>
    <ellipse cx="140" cy="350" rx="30" ry="12" fill="url(#leafGrad)" transform="rotate(-20,140,350)"/>
    <ellipse cx="120" cy="370" rx="28" ry="10" fill="#4CAF50" transform="rotate(10,120,370)"/>
    <ellipse cx="160" cy="380" rx="25" ry="9" fill="url(#leafGrad)" transform="rotate(-35,160,380)"/>
    <ellipse cx="100" cy="390" rx="22" ry="8" fill="#66BB6A" transform="rotate(15,100,390)"/>
    <line x1="120" y1="350" x2="160" y2="345" stroke="#2E7D32" stroke-width="0.8" opacity="0.5"/>
    <line x1="100" y1="370" x2="140" y2="367" stroke="#2E7D32" stroke-width="0.8" opacity="0.5"/>
    <path d="M80,400 Q90,360 85,330" stroke="#4CAF50" stroke-width="2" fill="none"/>
    <path d="M85,370 Q100,365 95,355" stroke="#66BB6A" stroke-width="1.5" fill="none"/>
    <path d="M85,380 Q70,375 75,365" stroke="#66BB6A" stroke-width="1.5" fill="none"/>
    <path d="M85,350 Q98,345 95,338" stroke="#81C784" stroke-width="1.5" fill="none"/>
    <path d="M85,355 Q72,350 75,342" stroke="#81C784" stroke-width="1.5" fill="none"/>
  </g>
  <g>
    <ellipse cx="660" cy="345" rx="28" ry="11" fill="url(#leafGrad)" transform="rotate(25,660,345)"/>
    <ellipse cx="680" cy="365" rx="30" ry="10" fill="#4CAF50" transform="rotate(-10,680,365)"/>
    <ellipse cx="640" cy="375" rx="24" ry="9" fill="url(#leafGrad)" transform="rotate(30,640,375)"/>
    <ellipse cx="700" cy="385" rx="22" ry="8" fill="#66BB6A" transform="rotate(-20,700,385)"/>
    <path d="M720,400 Q710,355 715,325" stroke="#4CAF50" stroke-width="2" fill="none"/>
    <path d="M715,365 Q700,360 705,350" stroke="#66BB6A" stroke-width="1.5" fill="none"/>
    <path d="M715,375 Q730,370 725,360" stroke="#66BB6A" stroke-width="1.5" fill="none"/>
    <path d="M715,345 Q702,340 705,332" stroke="#81C784" stroke-width="1.5" fill="none"/>
    <path d="M715,350 Q728,345 725,337" stroke="#81C784" stroke-width="1.5" fill="none"/>
  </g>
  <path d="M180,0 Q175,40 185,80 Q190,100 182,130" stroke="#388E3C" stroke-width="2.5" fill="none"/>
  <path d="M620,0 Q625,35 618,75 Q612,95 620,125" stroke="#388E3C" stroke-width="2.5" fill="none"/>
  <path d="M50,0 Q55,50 48,90" stroke="#2E7D32" stroke-width="2" fill="none"/>
  <path d="M750,0 Q745,45 752,85" stroke="#2E7D32" stroke-width="2" fill="none"/>
  <ellipse cx="182" cy="130" rx="6" ry="4" fill="#66BB6A" transform="rotate(-10,182,130)"/>
  <ellipse cx="620" cy="125" rx="6" ry="4" fill="#66BB6A" transform="rotate(10,620,125)"/>
  <ellipse cx="185" cy="90" rx="5" ry="3" fill="#4CAF50" transform="rotate(20,185,90)"/>
  <ellipse cx="617" cy="85" rx="5" ry="3" fill="#4CAF50" transform="rotate(-15,617,85)"/>
  <ellipse cx="250" cy="405" rx="25" ry="15" fill="#5D4037"/>
  <ellipse cx="235" cy="395" rx="18" ry="12" fill="#6D4C41"/>
  <ellipse cx="550" cy="400" rx="22" ry="14" fill="#5D4037"/>
  <ellipse cx="565" cy="390" rx="16" ry="11" fill="#6D4C41"/>
  <ellipse cx="248" cy="398" rx="12" ry="4" fill="#558B2F" opacity="0.6"/>
  <ellipse cx="553" cy="394" rx="10" ry="3" fill="#558B2F" opacity="0.6"/>
  <circle cx="320" cy="250" r="2" fill="#FFD54F" opacity="0.7"/>
  <circle cx="460" cy="270" r="2.5" fill="#FFECB3" opacity="0.6"/>
  <circle cx="380" cy="230" r="1.5" fill="#FFF176" opacity="0.5"/>
  <circle cx="420" cy="260" r="2" fill="#FFE082" opacity="0.6"/>
  <circle cx="350" cy="280" r="1.5" fill="#FFECB3" opacity="0.4"/>
  <circle cx="320" cy="250" r="6" fill="#FFD54F" opacity="0.15"/>
  <circle cx="460" cy="270" r="7" fill="#FFECB3" opacity="0.1"/>
  <circle cx="380" cy="230" r="5" fill="#FFF176" opacity="0.1"/>
  <rect x="270" y="15" width="260" height="36" rx="18" fill="rgba(0,0,0,0.5)"/>
  <text x="400" y="40" text-anchor="middle" font-family="Segoe UI, Helvetica, Arial, sans-serif" font-size="22" font-weight="600" fill="white" letter-spacing="1">Secret Cave</text>
</svg>