<svg xmlns="http://www.w3.org/2000/svg" viewBox="0 0 800 450" width="800" height="450">
  <defs>
    <linearGradient id="bg" x1="0" y1="0" x2="0" y2="1">
      <stop offset="0%" stop-color="#33691E"/>
      <stop offset="100%" stop-color="#1B5E20"/>
    </linearGradient>
    <linearGradient id="ground" x1="0" y1="0" x2="0" y2="1">
      <stop offset="0%" stop-color="#558B2F"/>
      <stop offset="100%" stop-color="#33691E"/>
    </linearGradient>
    <linearGradient id="sky" x1="0" y1="0" x2="0" y2="1">
      <stop offset="0%" stop-color="#81D4FA"/>
      <stop offset="100%" stop-color="#B3E5FC"/>
    </linearGradient>
    <linearGradient id="hpGreen" x1="0" y1="0" x2="1" y2="0">
      <stop offset="0%" stop-color="#66BB6A"/>
      <stop offset="100%" stop-color="#43A047"/>
    </linearGradient>
    <linearGradient id="hpRed" x1="0" y1="0" x2="1" y2="0">
      <stop offset="0%" stop-color="#EF5350"/>
      <stop offset="100%" stop-color="#C62828"/>
    </linearGradient>
    <linearGradient id="bearBody" x1="0" y1="0" x2="0" y2="1">
      <stop offset="0%" stop-color="#A1887F"/>
      <stop offset="100%" stop-color="#795548"/>
    </linearGradient>
    <filter id="shadow" x="-10%" y="-10%" width="130%" height="130%">
      <feDropShadow dx="0" dy="3" stdDeviation="4" flood-color="#000" flood-opacity="0.3"/>
    </filter>
    <filter id="glow" x="-30%" y="-30%" width="160%" height="160%">
      <feGaussianBlur stdDeviation="4" result="blur"/>
      <feMerge><feMergeNode in="blur"/><feMergeNode in="SourceGraphic"/></feMerge>
    </filter>
  </defs>
  <rect width="800" height="450" fill="url(#bg)" rx="12"/>
  <rect x="30" y="55" width="740" height="340" rx="8" fill="url(#sky)"/>
  <ellipse cx="200" cy="330" rx="200" ry="70" fill="#81C784" opacity="0.5"/>
  <ellipse cx="550" cy="340" rx="250" ry="60" fill="#66BB6A" opacity="0.5"/>
  <rect x="30" y="320" width="740" height="75" fill="url(#ground)"/>
  <path d="M50,320 Q55,310 60,320" stroke="#7CB342" stroke-width="2" fill="none"/>
  <path d="M150,320 Q157,305 164,320" stroke="#7CB342" stroke-width="2" fill="none"/>
  <path d="M400,320 Q405,312 410,320" stroke="#7CB342" stroke-width="2" fill="none"/>
  <path d="M600,320 Q607,308 614,320" stroke="#7CB342" stroke-width="2" fill="none"/>
  <path d="M700,320 Q705,312 710,320" stroke="#7CB342" stroke-width="2" fill="none"/>
  <text x="400" y="42" text-anchor="middle" font-family="Segoe UI, Arial, sans-serif" font-weight="700" font-size="22" fill="#E8F5E9" letter-spacing="1">COMBAT BASICS</text>
  <g transform="translate(50, 70)">
    <rect x="0" y="0" width="160" height="22" rx="11" fill="#263238" opacity="0.7"/>
    <rect x="3" y="3" width="118" height="16" rx="8" fill="url(#hpGreen)"/>
    <text x="80" y="15" text-anchor="middle" font-family="Segoe UI, Arial, sans-serif" font-weight="700" font-size="11" fill="#fff">76 / 100 HP</text>
    <circle cx="-12" cy="11" r="14" fill="#795548"/>
    <circle cx="-15" cy="5" r="5" fill="#8D6E63"/>
    <circle cx="-9" cy="5" r="5" fill="#8D6E63"/>
    <circle cx="-12" cy="13" r="7" fill="#A1887F"/>
    <circle cx="-14" cy="10" r="2" fill="#333"/>
    <circle cx="-10" cy="10" r="2" fill="#333"/>
    <ellipse cx="-12" cy="15" rx="3" ry="2" fill="#333"/>
  </g>
  <g transform="translate(590, 70)">
    <rect x="0" y="0" width="140" height="22" rx="11" fill="#263238" opacity="0.7"/>
    <rect x="3" y="3" width="56" height="16" rx="8" fill="url(#hpRed)"/>
    <text x="70" y="15" text-anchor="middle" font-family="Segoe UI, Arial, sans-serif" font-weight="700" font-size="11" fill="#fff">42 / 100</text>
    <circle cx="152" cy="11" r="12" fill="#EF5350"/>
    <text x="152" y="16" text-anchor="middle" font-family="Segoe UI, Arial, sans-serif" font-weight="700" font-size="14" fill="#fff">!</text>
  </g>
  <g transform="translate(280, 240)" filter="url(#shadow)">
    <ellipse cx="0" cy="30" rx="35" ry="40" fill="url(#bearBody)"/>
    <ellipse cx="0" cy="35" rx="22" ry="25" fill="#BCAAA4"/>
    <circle cx="0" cy="-15" r="28" fill="#795548"/>
    <circle cx="-20" cy="-35" r="10" fill="#795548"/>
    <circle cx="20" cy="-35" r="10" fill="#795548"/>
    <circle cx="-20" cy="-35" r="6" fill="#A1887F"/>
    <circle cx="20" cy="-35" r="6" fill="#A1887F"/>
    <circle cx="-9" cy="-18" r="4" fill="#333"/>
    <circle cx="9" cy="-18" r="4" fill="#333"/>
    <circle cx="-8" cy="-19" r="1.5" fill="#fff"/>
    <circle cx="10" cy="-19" r="1.5" fill="#fff"/>
    <ellipse cx="0" cy="-10" rx="5" ry="3.5" fill="#333"/>
    <path d="M-8,-5 Q0,-2 8,-5" stroke="#333" stroke-width="2" fill="none"/>
    <g transform="rotate(-30, 30, 10)">
      <rect x="25" y="5" width="50" height="16" rx="8" fill="#795548"/>
      <circle cx="75" cy="13" r="12" fill="#A1887F"/>
    </g>
    <rect x="-55" y="10" width="30" height="14" rx="7" fill="#795548"/>
    <ellipse cx="-14" cy="68" rx="12" ry="8" fill="#6D4C41"/>
    <ellipse cx="14" cy="68" rx="12" ry="8" fill="#6D4C41"/>
  </g>
  <g opacity="0.8">
    <polygon points="380,230 385,220 390,230 400,225 393,235 403,238 393,242 400,250 390,245 385,255 380,245 370,250 377,242 367,238 377,235 370,225" fill="#FFEB3B" filter="url(#glow)"/>
    <line x1="395" y1="215" x2="420" y2="200" stroke="#FFD600" stroke-width="3" opacity="0.8"/>
    <line x1="400" y1="230" x2="430" y2="225" stroke="#FFD600" stroke-width="3" opacity="0.7"/>
    <line x1="400" y1="245" x2="425" y2="255" stroke="#FFD600" stroke-width="3" opacity="0.8"/>
    <line x1="395" y1="258" x2="415" y2="270" stroke="#FFD600" stroke-width="2" opacity="0.6"/>
    <line x1="180" y1="220" x2="230" y2="225" stroke="#fff" stroke-width="2" opacity="0.4"/>
    <line x1="175" y1="240" x2="225" y2="240" stroke="#fff" stroke-width="2.5" opacity="0.5"/>
    <line x1="180" y1="260" x2="228" y2="258" stroke="#fff" stroke-width="2" opacity="0.4"/>
  </g>
  <g transform="translate(480, 245)" filter="url(#shadow)">
    <ellipse cx="0" cy="20" rx="28" ry="30" fill="#7B1FA2" transform="rotate(10)"/>
    <circle cx="5" cy="-12" r="22" fill="#9C27B0"/>
    <polygon points="-10,-30 -5,-45 -2,-28" fill="#7B1FA2"/>
    <polygon points="18,-28 22,-42 24,-26" fill="#7B1FA2"/>
    <g transform="translate(-4, -15)">
      <line x1="-5" y1="-4" x2="1" y2="4" stroke="#fff" stroke-width="2.5"/>
      <line x1="1" y1="-4" x2="-5" y2="4" stroke="#fff" stroke-width="2.5"/>
    </g>
    <g transform="translate(12, -15)">
      <line x1="-4" y1="-4" x2="2" y2="4" stroke="#fff" stroke-width="2.5"/>
      <line x1="2" y1="-4" x2="-4" y2="4" stroke="#fff" stroke-width="2.5"/>
    </g>
    <ellipse cx="5" cy="0" rx="6" ry="5" fill="#4A148C"/>
    <line x1="30" y1="-10" x2="55" y2="-18" stroke="#CE93D8" stroke-width="2" opacity="0.6"/>
    <line x1="32" y1="5" x2="58" y2="3" stroke="#CE93D8" stroke-width="2" opacity="0.5"/>
    <line x1="28" y1="20" x2="52" y2="25" stroke="#CE93D8" stroke-width="2" opacity="0.6"/>
  </g>
  <g filter="url(#glow)">
    <text x="440" y="170" text-anchor="middle" font-family="Segoe UI, Arial, sans-serif" font-weight="900" font-size="36" fill="#FF5722" transform="rotate(-5, 440, 170)">-24</text>
    <text x="440" y="170" text-anchor="middle" font-family="Segoe UI, Arial, sans-serif" font-weight="900" font-size="36" fill="none" stroke="#fff" stroke-width="1" transform="rotate(-5, 440, 170)" opacity="0.4">-24</text>
  </g>
  <text x="520" y="140" text-anchor="middle" font-family="Segoe UI, Arial, sans-serif" font-weight="800" font-size="20" fill="#FF8A65" opacity="0.6" transform="rotate(3, 520, 140)">-18</text>
  <text x="445" y="148" text-anchor="middle" font-family="Segoe UI, Arial, sans-serif" font-weight="800" font-size="14" fill="#FFEB3B" letter-spacing="2">CRITICAL!</text>
  <g transform="translate(680, 140)">
    <rect x="-45" y="-25" width="90" height="50" rx="10" fill="#263238" opacity="0.7"/>
    <text x="0" y="-5" text-anchor="middle" font-family="Segoe UI, Arial, sans-serif" font-weight="600" font-size="10" fill="#81C784">COMBO</text>
    <text x="0" y="17" text-anchor="middle" font-family="Segoe UI, Arial, sans-serif" font-weight="900" font-size="24" fill="#FFEB3B">x5</text>
  </g>
  <circle cx="350" cy="310" r="4" fill="#8D6E63" opacity="0.6"/>
  <circle cx="370" cy="315" r="3" fill="#A1887F" opacity="0.5"/>
  <circle cx="420" cy="312" r="5" fill="#8D6E63" opacity="0.4"/>
  <circle cx="460" cy="308" r="3" fill="#A1887F" opacity="0.5"/>
  <text x="400" y="435" text-anchor="middle" font-family="Segoe UI, Arial, sans-serif" font-size="11" fill="#81C784" opacity="0.6">Super Bear Adventure - Combat System</text>
  <rect x="20" y="20" width="760" height="410" fill="none" stroke="#4CAF50" stroke-width="1" stroke-opacity="0.3" rx="8"/>
</svg>