<svg xmlns="http://www.w3.org/2000/svg" viewBox="0 0 800 450" width="800" height="450">
  <defs>
    <linearGradient id="bg1" x1="0" y1="0" x2="800" y2="450" gradientUnits="userSpaceOnUse">
      <stop offset="0%" stop-color="#1a1a2e"/>
      <stop offset="100%" stop-color="#16213e"/>
    </linearGradient>
    <linearGradient id="btn1" x1="0" y1="0" x2="240" y2="0" gradientUnits="userSpaceOnUse">
      <stop offset="0%" stop-color="#e94560"/>
      <stop offset="100%" stop-color="#ff6b6b"/>
    </linearGradient>
  </defs>
  <rect width="800" height="450" fill="url(#bg1)"/>
  <circle cx="100" cy="80" r="60" fill="#e94560" opacity="0.05"/>
  <circle cx="700" cy="370" r="80" fill="#0f3460" opacity="0.1"/>
  <g transform="translate(400,70)" opacity="0.15">
    <circle cx="0" cy="0" r="25" fill="#e94560"/>
    <circle cx="-18" cy="-22" r="10" fill="#e94560"/>
    <circle cx="0" cy="-28" r="10" fill="#e94560"/>
    <circle cx="18" cy="-22" r="10" fill="#e94560"/>
  </g>
  <text x="400" y="110" text-anchor="middle" font-family="Arial, sans-serif" font-size="32" font-weight="bold" fill="#ffffff">Redeem Your Code</text>
  <text x="400" y="140" text-anchor="middle" font-family="Arial, sans-serif" font-size="14" fill="#8892b0">Enter your gift code below to unlock exclusive rewards</text>
  <rect x="150" y="165" width="500" height="220" rx="16" fill="#0f1a30" stroke="#e94560" stroke-width="1" stroke-opacity="0.2"/>
  <g transform="translate(400, 210)">
    <rect x="-20" y="-5" width="40" height="30" rx="3" fill="none" stroke="#e94560" stroke-width="2"/>
    <rect x="-24" y="-10" width="48" height="12" rx="3" fill="none" stroke="#e94560" stroke-width="2"/>
    <line x1="0" y1="-10" x2="0" y2="25" stroke="#e94560" stroke-width="2"/>
    <path d="M0,-10 C-5,-25 -20,-20 -15,-10" fill="none" stroke="#ff6b6b" stroke-width="2"/>
    <path d="M0,-10 C5,-25 20,-20 15,-10" fill="none" stroke="#ff6b6b" stroke-width="2"/>
  </g>
  <rect x="200" y="250" width="400" height="50" rx="10" fill="#0a0a1a" stroke="#333" stroke-width="2"/>
  <text x="220" y="281" font-family="monospace" font-size="18" fill="#555">BEAR-XXXX-XXXX-XXXX</text>
  <rect x="280" y="320" width="240" height="48" rx="24" fill="url(#btn1)"/>
  <text x="400" y="350" text-anchor="middle" font-family="Arial, sans-serif" font-size="16" font-weight="bold" fill="#ffffff">REDEEM CODE</text>
  <text x="400" y="420" text-anchor="middle" font-family="Arial, sans-serif" font-size="12" fill="#555">Codes are case-sensitive. Check social media for latest codes.</text>
</svg>