<svg xmlns="http://www.w3.org/2000/svg" viewBox="0 0 800 450" width="800" height="450">
  <defs>
    <linearGradient id="bg2" x1="0" y1="0" x2="800" y2="450" gradientUnits="userSpaceOnUse">
      <stop offset="0%" stop-color="#0d1b2a"/>
      <stop offset="100%" stop-color="#1b2838"/>
    </linearGradient>
    <linearGradient id="gold2" x1="0" y1="0" x2="0" y2="1">
      <stop offset="0%" stop-color="#ffd700"/>
      <stop offset="100%" stop-color="#ff8c00"/>
    </linearGradient>
    <linearGradient id="gem2" x1="0" y1="0" x2="0" y2="1">
      <stop offset="0%" stop-color="#00d4ff"/>
      <stop offset="100%" stop-color="#0066ff"/>
    </linearGradient>
    <linearGradient id="skin2" x1="0" y1="0" x2="0" y2="1">
      <stop offset="0%" stop-color="#ff6b9d"/>
      <stop offset="100%" stop-color="#c44569"/>
    </linearGradient>
  </defs>
  <rect width="800" height="450" fill="url(#bg2)"/>
  <text x="400" y="55" text-anchor="middle" font-family="Arial, sans-serif" font-size="28" font-weight="bold" fill="#ffffff">Code Rewards</text>
  <text x="400" y="80" text-anchor="middle" font-family="Arial, sans-serif" font-size="13" fill="#8899aa">Unlock these exclusive items with redeem codes</text>
  <rect x="40" y="110" width="220" height="280" rx="16" fill="#111d2e" stroke="#ffd700" stroke-width="1" stroke-opacity="0.3"/>
  <rect x="40" y="110" width="220" height="6" rx="3" fill="url(#gold2)"/>
  <g transform="translate(150, 200)">
    <ellipse cx="0" cy="10" rx="35" ry="10" fill="#daa520"/>
    <ellipse cx="0" cy="0" rx="35" ry="10" fill="#ffd700"/>
    <ellipse cx="0" cy="-10" rx="35" ry="10" fill="#ffdf40"/>
    <text x="0" y="5" text-anchor="middle" font-family="Arial, sans-serif" font-size="14" font-weight="bold" fill="#8b6914">$</text>
  </g>
  <text x="150" y="260" text-anchor="middle" font-family="Arial, sans-serif" font-size="20" font-weight="bold" fill="#ffd700">Coins</text>
  <text x="150" y="285" text-anchor="middle" font-family="Arial, sans-serif" font-size="36" font-weight="bold" fill="#ffffff">5,000</text>
  <text x="150" y="310" text-anchor="middle" font-family="Arial, sans-serif" font-size="12" fill="#8899aa">In-game currency</text>
  <rect x="90" y="330" width="120" height="36" rx="18" fill="url(#gold2)" opacity="0.9"/>
  <text x="150" y="354" text-anchor="middle" font-family="Arial, sans-serif" font-size="13" font-weight="bold" fill="#1a1a2e">CLAIM</text>
  <rect x="290" y="110" width="220" height="280" rx="16" fill="#111d2e" stroke="#00d4ff" stroke-width="1" stroke-opacity="0.3"/>
  <rect x="290" y="110" width="220" height="6" rx="3" fill="url(#gem2)"/>
  <g transform="translate(400, 195)">
    <polygon points="0,-35 30,-10 20,25 -20,25 -30,-10" fill="url(#gem2)" opacity="0.9"/>
    <polygon points="0,-35 10,-10 -10,-10" fill="#66e0ff" opacity="0.5"/>
  </g>
  <text x="400" y="260" text-anchor="middle" font-family="Arial, sans-serif" font-size="20" font-weight="bold" fill="#00d4ff">Gems</text>
  <text x="400" y="285" text-anchor="middle" font-family="Arial, sans-serif" font-size="36" font-weight="bold" fill="#ffffff">250</text>
  <text x="400" y="310" text-anchor="middle" font-family="Arial, sans-serif" font-size="12" fill="#8899aa">Premium currency</text>
  <rect x="340" y="330" width="120" height="36" rx="18" fill="url(#gem2)" opacity="0.9"/>
  <text x="400" y="354" text-anchor="middle" font-family="Arial, sans-serif" font-size="13" font-weight="bold" fill="#ffffff">CLAIM</text>
  <rect x="540" y="110" width="220" height="280" rx="16" fill="#111d2e" stroke="#ff6b9d" stroke-width="1" stroke-opacity="0.3"/>
  <rect x="540" y="110" width="220" height="6" rx="3" fill="url(#skin2)"/>
  <g transform="translate(650, 190)">
    <circle cx="0" cy="-5" r="28" fill="#ff6b9d"/>
    <circle cx="-15" cy="-28" r="12" fill="#ff6b9d"/>
    <circle cx="15" cy="-28" r="12" fill="#ff6b9d"/>
    <circle cx="-15" cy="-28" r="7" fill="#c44569"/>
    <circle cx="15" cy="-28" r="7" fill="#c44569"/>
    <circle cx="-8" cy="-10" r="4" fill="#1a1a2e"/>
    <circle cx="8" cy="-10" r="4" fill="#1a1a2e"/>
    <ellipse cx="0" cy="3" rx="6" ry="4" fill="#c44569"/>
  </g>
  <text x="650" y="260" text-anchor="middle" font-family="Arial, sans-serif" font-size="20" font-weight="bold" fill="#ff6b9d">Skins</text>
  <text x="650" y="285" text-anchor="middle" font-family="Arial, sans-serif" font-size="36" font-weight="bold" fill="#ffffff">Rare</text>
  <text x="650" y="310" text-anchor="middle" font-family="Arial, sans-serif" font-size="12" fill="#8899aa">Exclusive bear outfit</text>
  <rect x="590" y="330" width="120" height="36" rx="18" fill="url(#skin2)" opacity="0.9"/>
  <text x="650" y="354" text-anchor="middle" font-family="Arial, sans-serif" font-size="13" font-weight="bold" fill="#ffffff">CLAIM</text>
  <text x="400" y="430" text-anchor="middle" font-family="Arial, sans-serif" font-size="12" fill="#556677">New codes released every update. Follow us for the latest drops!</text>
</svg>