<svg xmlns="http://www.w3.org/2000/svg" viewBox="0 0 800 450" width="800" height="450">
  <defs>
    <linearGradient id="bg" x1="0" y1="0" x2="0" y2="1">
      <stop offset="0%" stop-color="#1a1a2e"/>
      <stop offset="100%" stop-color="#0f0f1a"/>
    </linearGradient>
    <linearGradient id="headerGrad" x1="0" y1="0" x2="0" y2="1">
      <stop offset="0%" stop-color="#558B2F"/>
      <stop offset="100%" stop-color="#33691E"/>
    </linearGradient>
    <linearGradient id="highlightGrad" x1="0" y1="0" x2="1" y2="0">
      <stop offset="0%" stop-color="#558B2F" stop-opacity="0.25"/>
      <stop offset="100%" stop-color="#558B2F" stop-opacity="0.08"/>
    </linearGradient>
    <clipPath id="phoneClip">
      <rect x="175" y="25" width="450" height="400" rx="20"/>
    </clipPath>
  </defs>

  <!-- Background -->
  <rect width="800" height="450" fill="url(#bg)"/>

  <!-- Dot pattern -->
  <g opacity="0.04">
    <circle cx="30" cy="30" r="1" fill="#558B2F"/><circle cx="50" cy="30" r="1" fill="#558B2F"/><circle cx="70" cy="30" r="1" fill="#558B2F"/><circle cx="90" cy="30" r="1" fill="#558B2F"/><circle cx="110" cy="30" r="1" fill="#558B2F"/>
    <circle cx="30" cy="50" r="1" fill="#558B2F"/><circle cx="50" cy="50" r="1" fill="#558B2F"/><circle cx="70" cy="50" r="1" fill="#558B2F"/><circle cx="90" cy="50" r="1" fill="#558B2F"/><circle cx="110" cy="50" r="1" fill="#558B2F"/>
    <circle cx="690" cy="400" r="1" fill="#558B2F"/><circle cx="710" cy="400" r="1" fill="#558B2F"/><circle cx="730" cy="400" r="1" fill="#558B2F"/><circle cx="750" cy="400" r="1" fill="#558B2F"/><circle cx="770" cy="400" r="1" fill="#558B2F"/>
    <circle cx="690" cy="420" r="1" fill="#558B2F"/><circle cx="710" cy="420" r="1" fill="#558B2F"/><circle cx="730" cy="420" r="1" fill="#558B2F"/><circle cx="750" cy="420" r="1" fill="#558B2F"/><circle cx="770" cy="420" r="1" fill="#558B2F"/>
  </g>

  <!-- Phone frame -->
  <rect x="175" y="25" width="450" height="400" rx="20" fill="#222236" stroke="#3a3a50" stroke-width="2"/>

  <g clip-path="url(#phoneClip)">
    <!-- Status bar -->
    <rect x="175" y="25" width="450" height="24" fill="#111122"/>
    <text x="200" y="41" font-family="'Segoe UI', Arial, sans-serif" font-size="10" fill="#888">9:41</text>
    <rect x="583" y="32" width="18" height="9" rx="2" fill="none" stroke="#888" stroke-width="1"/>
    <rect x="601" y="34" width="2" height="5" rx="1" fill="#888"/>
    <rect x="585" y="34" width="12" height="5" rx="1" fill="#66BB6A"/>

    <!-- Header bar -->
    <rect x="175" y="49" width="450" height="42" fill="url(#headerGrad)"/>
    <polyline points="195,70 202,63 202,77" fill="none" stroke="#fff" stroke-width="2" stroke-linecap="round" stroke-linejoin="round"/>
    <text x="218" y="76" font-family="'Segoe UI', Arial, sans-serif" font-size="16" font-weight="600" fill="#fff">File Manager</text>
    <circle cx="590" cy="70" r="8" fill="none" stroke="#C8E6C9" stroke-width="1.5"/>
    <line x1="596" y1="76" x2="601" y2="81" stroke="#C8E6C9" stroke-width="1.5" stroke-linecap="round"/>

    <!-- Breadcrumb bar -->
    <rect x="175" y="91" width="450" height="28" fill="#1a1a2e"/>
    <g font-family="'Segoe UI', Arial, sans-serif" font-size="11">
      <text x="195" y="110" fill="#8a8a9a">Downloads</text>
      <text x="260" y="110" fill="#558B2F">&gt;</text>
      <text x="275" y="110" fill="#A5D6A7" font-weight="600">SuperBearAdventure</text>
    </g>

    <!-- Sidebar divider -->
    <line x1="320" y1="119" x2="320" y2="425" stroke="#2a2a3e" stroke-width="1"/>

    <!-- Left sidebar -->
    <rect x="175" y="119" width="145" height="306" fill="#161626"/>

    <text x="190" y="142" font-family="'Segoe UI', Arial, sans-serif" font-size="10" font-weight="700" fill="#555" letter-spacing="1">STORAGE</text>

    <g font-family="'Segoe UI', Arial, sans-serif" font-size="12" fill="#9a9aaa">
      <!-- Internal Storage folder -->
      <rect x="184" y="152" width="8" height="10" rx="1" fill="none" stroke="#FFB74D" stroke-width="1.2"/>
      <rect x="184" y="150" width="5" height="3" rx="1" fill="#FFB74D"/>
      <text x="198" y="162">Internal Storage</text>

      <!-- DCIM -->
      <rect x="194" y="172" width="7" height="8" rx="1" fill="none" stroke="#64B5F6" stroke-width="1"/>
      <rect x="194" y="170" width="4" height="2.5" rx="0.5" fill="#64B5F6"/>
      <text x="207" y="180" fill="#7a7a8a">DCIM</text>

      <!-- Documents -->
      <rect x="194" y="190" width="7" height="8" rx="1" fill="none" stroke="#64B5F6" stroke-width="1"/>
      <rect x="194" y="188" width="4" height="2.5" rx="0.5" fill="#64B5F6"/>
      <text x="207" y="198" fill="#7a7a8a">Documents</text>

      <!-- Downloads - highlighted -->
      <rect x="182" y="204" width="130" height="22" rx="4" fill="#558B2F" opacity="0.2"/>
      <rect x="194" y="208" width="7" height="8" rx="1" fill="none" stroke="#66BB6A" stroke-width="1.2"/>
      <rect x="194" y="206" width="4" height="2.5" rx="0.5" fill="#66BB6A"/>
      <text x="207" y="217" fill="#A5D6A7" font-weight="600">Downloads</text>
      <polyline points="290,212 295,217 290,222" fill="none" stroke="#66BB6A" stroke-width="1.5" stroke-linecap="round"/>

      <!-- Sub-folder -->
      <rect x="204" y="232" width="6" height="7" rx="1" fill="none" stroke="#66BB6A" stroke-width="1"/>
      <rect x="204" y="230" width="3.5" height="2" rx="0.5" fill="#66BB6A"/>
      <text x="216" y="239" fill="#A5D6A7" font-size="10">SuperBear...</text>

      <!-- Music -->
      <rect x="194" y="250" width="7" height="8" rx="1" fill="none" stroke="#64B5F6" stroke-width="1"/>
      <rect x="194" y="248" width="4" height="2.5" rx="0.5" fill="#64B5F6"/>
      <text x="207" y="258" fill="#7a7a8a">Music</text>

      <!-- Pictures -->
      <rect x="194" y="268" width="7" height="8" rx="1" fill="none" stroke="#64B5F6" stroke-width="1"/>
      <rect x="194" y="266" width="4" height="2.5" rx="0.5" fill="#64B5F6"/>
      <text x="207" y="276" fill="#7a7a8a">Pictures</text>
    </g>

    <!-- Storage bar -->
    <text x="190" y="305" font-family="'Segoe UI', Arial, sans-serif" font-size="9" fill="#666">32.4 GB / 64 GB</text>
    <rect x="190" y="311" width="100" height="4" rx="2" fill="#2a2a3e"/>
    <rect x="190" y="311" width="51" height="4" rx="2" fill="#558B2F"/>

    <!-- Right side file list -->
    <!-- Sort bar -->
    <rect x="320" y="119" width="305" height="24" fill="#1e1e30"/>
    <text x="335" y="135" font-family="'Segoe UI', Arial, sans-serif" font-size="10" fill="#666">Name</text>
    <text x="480" y="135" font-family="'Segoe UI', Arial, sans-serif" font-size="10" fill="#666">Size</text>
    <text x="545" y="135" font-family="'Segoe UI', Arial, sans-serif" font-size="10" fill="#666">Date</text>

    <!-- File row 1 - APK highlighted -->
    <rect x="320" y="143" width="305" height="52" fill="url(#highlightGrad)"/>
    <rect x="320" y="143" width="3" height="52" fill="#558B2F"/>
    <!-- APK icon -->
    <g transform="translate(345, 157)">
      <rect x="-8" y="-6" width="24" height="26" rx="3" fill="#558B2F"/>
      <text x="4" y="10" text-anchor="middle" font-family="'Segoe UI', Arial, sans-serif" font-size="7" font-weight="700" fill="#fff">APK</text>
      <rect x="-2" y="-4" width="12" height="7" rx="3.5" fill="#C8E6C9"/>
      <circle cx="2" cy="-1" r="1" fill="#33691E"/>
      <circle cx="6" cy="-1" r="1" fill="#33691E"/>
      <line x1="1" y1="-5" x2="-1" y2="-8" stroke="#C8E6C9" stroke-width="1" stroke-linecap="round"/>
      <line x1="7" y1="-5" x2="9" y2="-8" stroke="#C8E6C9" stroke-width="1" stroke-linecap="round"/>
    </g>
    <text x="370" y="166" font-family="'Segoe UI', Arial, sans-serif" font-size="12" font-weight="600" fill="#C8E6C9">SuperBearAdventure_mod.apk</text>
    <text x="370" y="182" font-family="'Segoe UI', Arial, sans-serif" font-size="10" fill="#66BB6A">v1.10.2 - Modified</text>
    <text x="480" y="170" font-family="'Segoe UI', Arial, sans-serif" font-size="11" fill="#8a8a9a">145 MB</text>
    <text x="545" y="170" font-family="'Segoe UI', Arial, sans-serif" font-size="11" fill="#8a8a9a">Jun 18</text>
    <!-- Checkbox -->
    <rect x="600" y="162" width="14" height="14" rx="3" fill="#558B2F"/>
    <polyline points="603,169 607,173 611,165" fill="none" stroke="#fff" stroke-width="1.5" stroke-linecap="round" stroke-linejoin="round"/>

    <!-- File row 2 - OBB -->
    <g transform="translate(345, 212)">
      <rect x="-8" y="-6" width="24" height="24" rx="3" fill="#37474F"/>
      <text x="4" y="8" text-anchor="middle" font-family="'Segoe UI', Arial, sans-serif" font-size="7" font-weight="700" fill="#90A4AE">OBB</text>
    </g>
    <text x="370" y="214" font-family="'Segoe UI', Arial, sans-serif" font-size="12" fill="#9a9aaa">main.obb</text>
    <text x="370" y="228" font-family="'Segoe UI', Arial, sans-serif" font-size="10" fill="#666">Data file</text>
    <text x="480" y="218" font-family="'Segoe UI', Arial, sans-serif" font-size="11" fill="#7a7a8a">89 MB</text>
    <text x="545" y="218" font-family="'Segoe UI', Arial, sans-serif" font-size="11" fill="#7a7a8a">Jun 18</text>

    <!-- File row 3 - TXT -->
    <g transform="translate(345, 256)">
      <rect x="-8" y="-6" width="24" height="24" rx="3" fill="#37474F"/>
      <text x="4" y="8" text-anchor="middle" font-family="'Segoe UI', Arial, sans-serif" font-size="7" font-weight="700" fill="#90A4AE">TXT</text>
    </g>
    <text x="370" y="258" font-family="'Segoe UI', Arial, sans-serif" font-size="12" fill="#9a9aaa">install-guide.txt</text>
    <text x="370" y="272" font-family="'Segoe UI', Arial, sans-serif" font-size="10" fill="#666">Text file</text>
    <text x="480" y="262" font-family="'Segoe UI', Arial, sans-serif" font-size="11" fill="#7a7a8a">2 KB</text>
    <text x="545" y="262" font-family="'Segoe UI', Arial, sans-serif" font-size="11" fill="#7a7a8a">Jun 17</text>

    <!-- File row 4 - PNG -->
    <g transform="translate(345, 300)">
      <rect x="-8" y="-6" width="24" height="24" rx="3" fill="#37474F"/>
      <text x="4" y="8" text-anchor="middle" font-family="'Segoe UI', Arial, sans-serif" font-size="7" font-weight="700" fill="#90A4AE">PNG</text>
    </g>
    <text x="370" y="302" font-family="'Segoe UI', Arial, sans-serif" font-size="12" fill="#9a9aaa">screenshot_01.png</text>
    <text x="370" y="316" font-family="'Segoe UI', Arial, sans-serif" font-size="10" fill="#666">Image</text>
    <text x="480" y="306" font-family="'Segoe UI', Arial, sans-serif" font-size="11" fill="#7a7a8a">1.2 MB</text>
    <text x="545" y="306" font-family="'Segoe UI', Arial, sans-serif" font-size="11" fill="#7a7a8a">Jun 16</text>

    <!-- Bottom action bar -->
    <rect x="175" y="390" width="450" height="35" fill="#1a1a2e"/>
    <g font-family="'Segoe UI', Arial, sans-serif" font-size="10" font-weight="600" text-anchor="middle">
      <text x="280" y="412" fill="#558B2F">COPY</text>
      <text x="340" y="412" fill="#558B2F">MOVE</text>
      <text x="405" y="412" fill="#558B2F">DELETE</text>
      <rect x="455" y="398" width="60" height="20" rx="10" fill="#558B2F" opacity="0.3"/>
      <text x="485" y="412" fill="#A5D6A7">INSTALL</text>
    </g>
  </g>
</svg>