<svg xmlns="http://www.w3.org/2000/svg" viewBox="0 0 800 450" width="800" height="450">
  <defs>
    <linearGradient id="bg" x1="0" y1="0" x2="0" y2="1">
      <stop offset="0%" stop-color="#0D47A1"/>
      <stop offset="100%" stop-color="#0A1929"/>
    </linearGradient>
    <linearGradient id="bodyGrad" x1="0" y1="0" x2="0" y2="1">
      <stop offset="0%" stop-color="#81D4FA"/>
      <stop offset="100%" stop-color="#4A90B8"/>
    </linearGradient>
    <linearGradient id="armorGrad" x1="0" y1="0" x2="1" y2="1">
      <stop offset="0%" stop-color="#B3E5FC"/>
      <stop offset="50%" stop-color="#4FC3F7"/>
      <stop offset="100%" stop-color="#0288D1"/>
    </linearGradient>
    <linearGradient id="crystalGrad" x1="0" y1="0" x2="0" y2="1">
      <stop offset="0%" stop-color="#E1F5FE"/>
      <stop offset="100%" stop-color="#4FC3F7"/>
    </linearGradient>
    <radialGradient id="eyeGlow" cx="50%" cy="50%" r="50%">
      <stop offset="0%" stop-color="#FFFFFF"/>
      <stop offset="50%" stop-color="#80DEEA"/>
      <stop offset="100%" stop-color="#00BCD4"/>
    </radialGradient>
    <linearGradient id="breathGrad" x1="0" y1="0" x2="1" y2="1">
      <stop offset="0%" stop-color="#E1F5FE" stop-opacity="0.6"/>
      <stop offset="100%" stop-color="#E1F5FE" stop-opacity="0"/>
    </linearGradient>
    <linearGradient id="groundGrad" x1="0" y1="0" x2="0" y2="1">
      <stop offset="0%" stop-color="#4FC3F7" stop-opacity="0.3"/>
      <stop offset="100%" stop-color="#0D47A1" stop-opacity="0.1"/>
    </linearGradient>
    <radialGradient id="ambientGlow" cx="50%" cy="50%" r="50%">
      <stop offset="0%" stop-color="#4FC3F7" stop-opacity="0.15"/>
      <stop offset="100%" stop-color="#0D47A1" stop-opacity="0"/>
    </radialGradient>
  </defs>
  <rect width="800" height="450" fill="url(#bg)"/>
  <circle cx="400" cy="220" r="250" fill="url(#ambientGlow)"/>
  <g transform="translate(120,80)" stroke="#E1F5FE" stroke-width="1.5" opacity="0.6" fill="none">
    <line x1="0" y1="-12" x2="0" y2="12"/>
    <line x1="-10.4" y1="-6" x2="10.4" y2="6"/>
    <line x1="-10.4" y1="6" x2="10.4" y2="-6"/>
    <line x1="-4" y1="-9" x2="4" y2="-3" opacity="0.5"/>
    <line x1="4" y1="3" x2="-4" y2="9" opacity="0.5"/>
  </g>
  <g transform="translate(680,120)" stroke="#B3E5FC" stroke-width="1.5" opacity="0.5" fill="none">
    <line x1="0" y1="-15" x2="0" y2="15"/>
    <line x1="-13" y1="-7.5" x2="13" y2="7.5"/>
    <line x1="-13" y1="7.5" x2="13" y2="-7.5"/>
    <circle cx="0" cy="0" r="4" stroke-width="1"/>
  </g>
  <g transform="translate(180,300)" stroke="#E1F5FE" stroke-width="1" opacity="0.4" fill="none">
    <line x1="0" y1="-10" x2="0" y2="10"/>
    <line x1="-8.7" y1="-5" x2="8.7" y2="5"/>
    <line x1="-8.7" y1="5" x2="8.7" y2="-5"/>
  </g>
  <g transform="translate(650,310)" stroke="#B3E5FC" stroke-width="1.5" opacity="0.45" fill="none">
    <line x1="0" y1="-13" x2="0" y2="13"/>
    <line x1="-11.3" y1="-6.5" x2="11.3" y2="6.5"/>
    <line x1="-11.3" y1="6.5" x2="11.3" y2="-6.5"/>
  </g>
  <g transform="translate(300,60)" stroke="#E1F5FE" stroke-width="1" opacity="0.5" fill="none">
    <line x1="0" y1="-8" x2="0" y2="8"/>
    <line x1="-6.9" y1="-4" x2="6.9" y2="4"/>
    <line x1="-6.9" y1="4" x2="6.9" y2="-4"/>
  </g>
  <g transform="translate(550,50)" stroke="#B3E5FC" stroke-width="1" opacity="0.55" fill="none">
    <line x1="0" y1="-9" x2="0" y2="9"/>
    <line x1="-7.8" y1="-4.5" x2="7.8" y2="4.5"/>
    <line x1="-7.8" y1="4.5" x2="7.8" y2="-4.5"/>
  </g>
  <circle cx="250" cy="150" r="2" fill="#E1F5FE" opacity="0.5"/>
  <circle cx="560" cy="180" r="2.5" fill="#E1F5FE" opacity="0.4"/>
  <circle cx="340" cy="350" r="1.5" fill="#B3E5FC" opacity="0.5"/>
  <circle cx="480" cy="370" r="2" fill="#E1F5FE" opacity="0.4"/>
  <circle cx="200" cy="220" r="1.5" fill="#B3E5FC" opacity="0.3"/>
  <circle cx="600" cy="240" r="2" fill="#E1F5FE" opacity="0.35"/>
  <g opacity="0.4">
    <rect x="0" y="380" width="800" height="70" fill="url(#groundGrad)"/>
    <path d="M100,390 L200,395 L250,400 L350,392 L400,398" stroke="#4FC3F7" stroke-width="1" fill="none" opacity="0.5"/>
    <path d="M400,398 L500,393 L550,400 L650,390 L750,396" stroke="#4FC3F7" stroke-width="1" fill="none" opacity="0.5"/>
    <path d="M200,395 L220,410 L260,420" stroke="#4FC3F7" stroke-width="0.8" fill="none" opacity="0.4"/>
    <path d="M500,393 L520,408 L550,415" stroke="#4FC3F7" stroke-width="0.8" fill="none" opacity="0.4"/>
    <path d="M350,392 L360,405 L340,420" stroke="#4FC3F7" stroke-width="0.8" fill="none" opacity="0.4"/>
    <path d="M650,390 L660,410" stroke="#4FC3F7" stroke-width="0.8" fill="none" opacity="0.4"/>
  </g>
  <path d="M320,180 L310,380 L490,380 L480,180 Z" fill="url(#bodyGrad)" stroke="#4A90B8" stroke-width="2"/>
  <path d="M270,180 L320,180 L320,220 L280,230 Z" fill="url(#bodyGrad)" stroke="#4A90B8" stroke-width="2"/>
  <path d="M480,180 L530,180 L520,230 L480,220 Z" fill="url(#bodyGrad)" stroke="#4A90B8" stroke-width="2"/>
  <path d="M270,180 L250,310 L280,320 L300,220 Z" fill="url(#bodyGrad)" stroke="#4A90B8" stroke-width="1.5" opacity="0.9"/>
  <path d="M530,180 L550,310 L520,320 L500,220 Z" fill="url(#bodyGrad)" stroke="#4A90B8" stroke-width="1.5" opacity="0.9"/>
  <polygon points="350,200 400,190 450,200 445,270 400,280 355,270" fill="url(#armorGrad)" stroke="#0288D1" stroke-width="2" opacity="0.8"/>
  <polygon points="280,185 320,175 325,210 290,220" fill="url(#armorGrad)" stroke="#0288D1" stroke-width="1.5" opacity="0.7"/>
  <polygon points="520,185 480,175 475,210 510,220" fill="url(#armorGrad)" stroke="#0288D1" stroke-width="1.5" opacity="0.7"/>
  <rect x="340" y="290" width="120" height="20" rx="3" fill="url(#armorGrad)" stroke="#0288D1" stroke-width="1.5" opacity="0.7"/>
  <line x1="370" y1="205" x2="380" y2="260" stroke="white" stroke-width="1" opacity="0.3"/>
  <line x1="420" y1="205" x2="415" y2="260" stroke="white" stroke-width="1" opacity="0.3"/>
  <rect x="355" y="90" width="90" height="95" rx="10" fill="url(#bodyGrad)" stroke="#4A90B8" stroke-width="2"/>
  <g transform="translate(400,80)">
    <polygon points="-35,10 -30,-25 -20,10" fill="url(#crystalGrad)" stroke="#81D4FA" stroke-width="1" opacity="0.9"/>
    <polygon points="-15,10 -10,-40 0,10" fill="url(#crystalGrad)" stroke="#81D4FA" stroke-width="1" opacity="0.95"/>
    <polygon points="5,10 10,-50 20,10" fill="url(#crystalGrad)" stroke="#81D4FA" stroke-width="1"/>
    <polygon points="25,10 30,-35 40,10" fill="url(#crystalGrad)" stroke="#81D4FA" stroke-width="1" opacity="0.9"/>
    <polygon points="-45,10 -42,-15 -35,10" fill="url(#crystalGrad)" stroke="#81D4FA" stroke-width="1" opacity="0.7"/>
    <polygon points="40,10 45,-18 50,10" fill="url(#crystalGrad)" stroke="#81D4FA" stroke-width="1" opacity="0.7"/>
    <line x1="-28" y1="-15" x2="-25" y2="0" stroke="white" stroke-width="1" opacity="0.5"/>
    <line x1="12" y1="-35" x2="14" y2="-10" stroke="white" stroke-width="1" opacity="0.5"/>
  </g>
  <ellipse cx="380" cy="130" rx="14" ry="10" fill="url(#eyeGlow)"/>
  <ellipse cx="380" cy="130" rx="6" ry="8" fill="white"/>
  <ellipse cx="380" cy="130" rx="20" ry="14" fill="#80DEEA" opacity="0.15"/>
  <ellipse cx="420" cy="130" rx="14" ry="10" fill="url(#eyeGlow)"/>
  <ellipse cx="420" cy="130" rx="6" ry="8" fill="white"/>
  <ellipse cx="420" cy="130" rx="20" ry="14" fill="#80DEEA" opacity="0.15"/>
  <line x1="362" y1="118" x2="392" y2="122" stroke="#3A7CA5" stroke-width="3" stroke-linecap="round"/>
  <line x1="408" y1="122" x2="438" y2="118" stroke="#3A7CA5" stroke-width="3" stroke-linecap="round"/>
  <line x1="380" y1="160" x2="420" y2="160" stroke="#2A6A8E" stroke-width="2.5" stroke-linecap="round"/>
  <g fill="url(#crystalGrad)" opacity="0.8">
    <polygon points="370,175 375,210 380,175"/>
    <polygon points="383,175 387,220 391,175"/>
    <polygon points="395,175 400,225 405,175"/>
    <polygon points="408,175 412,218 416,175"/>
    <polygon points="420,175 424,205 428,175"/>
  </g>
  <ellipse cx="340" cy="165" rx="60" ry="25" fill="url(#breathGrad)" transform="rotate(-15,340,165)"/>
  <ellipse cx="320" cy="155" rx="40" ry="18" fill="#E1F5FE" opacity="0.15" transform="rotate(-20,320,155)"/>
  <ellipse cx="300" cy="148" rx="25" ry="12" fill="#E1F5FE" opacity="0.08" transform="rotate(-25,300,148)"/>
  <text x="400" y="430" text-anchor="middle" font-family="Arial,Helvetica,sans-serif" font-size="28" font-weight="bold" fill="#B3E5FC" letter-spacing="3">Frost Giant</text>
</svg>