<svg xmlns="http://www.w3.org/2000/svg" viewBox="0 0 800 450" width="800" height="450">
  <defs>
    <linearGradient id="bg" x1="0%" y1="0%" x2="100%" y2="100%">
      <stop offset="0%" stop-color="#2E7D32"/>
      <stop offset="50%" stop-color="#558B2F"/>
      <stop offset="100%" stop-color="#33691E"/>
    </linearGradient>
    <radialGradient id="bronze" cx="45%" cy="40%" r="50%">
      <stop offset="0%" stop-color="#E8A850"/>
      <stop offset="40%" stop-color="#CD7F32"/>
      <stop offset="80%" stop-color="#A0522D"/>
      <stop offset="100%" stop-color="#8B4513"/>
    </radialGradient>
    <radialGradient id="bronzeRim" cx="50%" cy="50%" r="50%">
      <stop offset="85%" stop-color="#CD7F32"/>
      <stop offset="95%" stop-color="#8B4513"/>
      <stop offset="100%" stop-color="#6B3410"/>
    </radialGradient>
    <radialGradient id="shine" cx="35%" cy="30%" r="40%">
      <stop offset="0%" stop-color="white" stop-opacity="0.5"/>
      <stop offset="100%" stop-color="white" stop-opacity="0"/>
    </radialGradient>
    <linearGradient id="ribbonRed" x1="0%" y1="0%" x2="100%" y2="0%">
      <stop offset="0%" stop-color="#8B0000"/>
      <stop offset="50%" stop-color="#CC2200"/>
      <stop offset="100%" stop-color="#8B0000"/>
    </linearGradient>
    <linearGradient id="ribbonBrown" x1="0%" y1="0%" x2="100%" y2="0%">
      <stop offset="0%" stop-color="#5C3317"/>
      <stop offset="50%" stop-color="#8B5A2B"/>
      <stop offset="100%" stop-color="#5C3317"/>
    </linearGradient>
    <filter id="shadow" x="-10%" y="-10%" width="130%" height="130%">
      <feDropShadow dx="3" dy="5" stdDeviation="6" flood-color="#00000066"/>
    </filter>
  </defs>
  <rect width="800" height="450" fill="url(#bg)"/>
  <rect width="800" height="450" fill="#00000014"/>
  <circle cx="100" cy="80" r="120" fill="#FFFFFF08"/>
  <circle cx="700" cy="370" r="150" fill="#FFFFFF08"/>
  <circle cx="650" cy="60" r="80" fill="#FFFFFF05"/>
  <g filter="url(#shadow)">
    <polygon points="330,60 360,60 340,180 310,180" fill="url(#ribbonRed)"/>
    <polygon points="310,180 340,180 325,210" fill="#8B0000"/>
    <polygon points="440,60 470,60 490,180 460,180" fill="url(#ribbonBrown)"/>
    <polygon points="460,180 490,180 475,210" fill="#5C3317"/>
    <rect x="320" y="50" width="160" height="30" rx="4" fill="url(#ribbonRed)"/>
    <rect x="320" y="55" width="160" height="5" fill="url(#ribbonBrown)" opacity="0.7"/>
    <rect x="320" y="65" width="160" height="5" fill="url(#ribbonBrown)" opacity="0.7"/>
  </g>
  <g filter="url(#shadow)">
    <circle cx="400" cy="220" r="110" fill="url(#bronzeRim)"/>
    <circle cx="400" cy="220" r="105" fill="none" stroke="#8B4513" stroke-width="2" stroke-dasharray="8,4"/>
    <circle cx="400" cy="220" r="95" fill="url(#bronze)"/>
    <circle cx="400" cy="220" r="82" fill="none" stroke="#A0522D" stroke-width="2.5"/>
    <circle cx="400" cy="220" r="78" fill="none" stroke="#E8A850" stroke-width="1"/>
  </g>
  <g transform="translate(400,200)">
    <ellipse cx="0" cy="0" rx="28" ry="25" fill="#8B4513"/>
    <circle cx="-20" cy="-20" r="12" fill="#8B4513"/>
    <circle cx="20" cy="-20" r="12" fill="#8B4513"/>
    <circle cx="-20" cy="-20" r="7" fill="#A0522D"/>
    <circle cx="20" cy="-20" r="7" fill="#A0522D"/>
    <ellipse cx="0" cy="5" rx="16" ry="12" fill="#A0522D"/>
    <circle cx="-10" cy="-4" r="3.5" fill="#3E2723"/>
    <circle cx="10" cy="-4" r="3.5" fill="#3E2723"/>
    <circle cx="-9" cy="-5" r="1.5" fill="#E8A850"/>
    <circle cx="11" cy="-5" r="1.5" fill="#E8A850"/>
    <ellipse cx="0" cy="3" rx="5" ry="3.5" fill="#3E2723"/>
    <ellipse cx="0" cy="2" rx="2" ry="1.5" fill="#6D4C41"/>
    <path d="M-4,8 Q0,12 4,8" fill="none" stroke="#3E2723" stroke-width="1.5" stroke-linecap="round"/>
  </g>
  <text x="400" y="262" text-anchor="middle" font-family="Arial, Helvetica, sans-serif" font-size="18" font-weight="bold" fill="#5C3317">3rd</text>
  <circle cx="400" cy="220" r="95" fill="url(#shine)" opacity="0.6"/>
  <ellipse cx="370" cy="180" rx="20" ry="10" fill="white" fill-opacity="0.25" transform="rotate(-30,370,180)"/>
  <g filter="url(#shadow)">
    <rect x="270" y="355" width="260" height="48" rx="24" fill="#00000059"/>
    <rect x="272" y="357" width="256" height="44" rx="22" fill="none" stroke="#CD7F32" stroke-width="1.5"/>
    <text x="400" y="386" text-anchor="middle" font-family="Arial, Helvetica, sans-serif" font-size="24" font-weight="bold" fill="#E8A850" letter-spacing="2">Bronze Medal</text>
  </g>
  <circle cx="320" cy="150" r="2" fill="white" fill-opacity="0.5"/>
  <circle cx="480" cy="170" r="1.5" fill="white" fill-opacity="0.4"/>
  <circle cx="350" cy="280" r="1.5" fill="white" fill-opacity="0.3"/>
  <circle cx="460" cy="300" r="2" fill="white" fill-opacity="0.35"/>
</svg>