<svg xmlns="http://www.w3.org/2000/svg" viewBox="0 0 800 450" width="800" height="450">
  <defs>
    <linearGradient id="bg" x1="0%" y1="0%" x2="100%" y2="100%">
      <stop offset="0%" stop-color="#2E7D32"/>
      <stop offset="50%" stop-color="#558B2F"/>
      <stop offset="100%" stop-color="#33691E"/>
    </linearGradient>
    <linearGradient id="page" x1="0%" y1="0%" x2="0%" y2="100%">
      <stop offset="0%" stop-color="#FFFDE7"/>
      <stop offset="100%" stop-color="#FFF9C4"/>
    </linearGradient>
    <linearGradient id="pageRight" x1="0%" y1="0%" x2="0%" y2="100%">
      <stop offset="0%" stop-color="#FFFCDB"/>
      <stop offset="100%" stop-color="#FFF59D"/>
    </linearGradient>
    <linearGradient id="starGrad" x1="0%" y1="0%" x2="100%" y2="100%">
      <stop offset="0%" stop-color="#FFD54F"/>
      <stop offset="100%" stop-color="#FF8F00"/>
    </linearGradient>
    <linearGradient id="heartGrad" x1="0%" y1="0%" x2="100%" y2="100%">
      <stop offset="0%" stop-color="#EF5350"/>
      <stop offset="100%" stop-color="#C62828"/>
    </linearGradient>
    <linearGradient id="trophyGrad" x1="0%" y1="0%" x2="100%" y2="100%">
      <stop offset="0%" stop-color="#FFD700"/>
      <stop offset="100%" stop-color="#DAA520"/>
    </linearGradient>
    <linearGradient id="gemGrad" x1="0%" y1="0%" x2="100%" y2="100%">
      <stop offset="0%" stop-color="#42A5F5"/>
      <stop offset="100%" stop-color="#1565C0"/>
    </linearGradient>
    <filter id="shadow" x="-10%" y="-10%" width="130%" height="130%">
      <feDropShadow dx="3" dy="4" stdDeviation="5" flood-color="#00000059"/>
    </filter>
    <filter id="stickerShadow" x="-15%" y="-15%" width="140%" height="140%">
      <feDropShadow dx="1" dy="2" stdDeviation="2" flood-color="#00000040"/>
    </filter>
  </defs>
  <rect width="800" height="450" fill="url(#bg)"/>
  <rect width="800" height="450" fill="#0000000F"/>
  <circle cx="80" cy="60" r="100" fill="#FFFFFF08"/>
  <circle cx="720" cy="390" r="120" fill="#FFFFFF08"/>
  <text x="400" y="42" text-anchor="middle" font-family="Arial, Helvetica, sans-serif" font-size="28" font-weight="bold" fill="white" letter-spacing="1" filter="url(#shadow)">Sticker Collection</text>
  <g filter="url(#shadow)" transform="translate(400,240)">
    <rect x="-4" y="-155" width="8" height="310" rx="2" fill="#2C1B0E"/>
    <rect x="-330" y="-155" width="330" height="310" rx="4" fill="url(#page)"/>
    <rect x="-330" y="-155" width="330" height="310" rx="4" fill="none" stroke="#D7CCC8" stroke-width="2"/>
    <rect x="-8" y="-155" width="8" height="310" fill="#00000014"/>
    <rect x="0" y="-155" width="330" height="310" rx="4" fill="url(#pageRight)"/>
    <rect x="0" y="-155" width="330" height="310" rx="4" fill="none" stroke="#D7CCC8" stroke-width="2"/>
    <rect x="0" y="-155" width="8" height="310" fill="#00000014"/>
    <g transform="translate(-245,-100)" filter="url(#stickerShadow)">
      <rect x="-40" y="-40" width="80" height="80" rx="8" fill="#FFD54F26" stroke="#FFD54F" stroke-width="1.5" stroke-dasharray="4,3"/>
      <polygon points="0,-28 7,-10 26,-10 11,3 17,22 0,12 -17,22 -11,3 -26,-10 -7,-10" fill="url(#starGrad)"/>
      <polygon points="0,-18 4,-6 16,-6 7,2 11,14 0,8 -11,14 -7,2 -16,-6 -4,-6" fill="#FFECB3" opacity="0.5"/>
    </g>
    <g transform="translate(-135,-100)" filter="url(#stickerShadow)">
      <rect x="-40" y="-40" width="80" height="80" rx="8" fill="#EF535020" stroke="#EF5350" stroke-width="1.5" stroke-dasharray="4,3"/>
      <path d="M0,-10 C0,-25 -28,-25 -28,-8 C-28,10 0,28 0,28 C0,28 28,10 28,-8 C28,-25 0,-25 0,-10 Z" fill="url(#heartGrad)" transform="scale(0.85)"/>
      <path d="M-8,-12 C-8,-18 -18,-18 -18,-10" fill="none" stroke="white" stroke-opacity="0.4" stroke-width="2" stroke-linecap="round" transform="scale(0.85)"/>
    </g>
    <g transform="translate(-25,-100)">
      <rect x="-40" y="-40" width="80" height="80" rx="8" fill="#0000000F" stroke="#BDBDBD" stroke-width="1.5" stroke-dasharray="5,4"/>
      <text x="0" y="5" text-anchor="middle" font-family="Arial, sans-serif" font-size="28" fill="#0000001F">?</text>
    </g>
    <g transform="translate(-245,10)" filter="url(#stickerShadow)">
      <rect x="-40" y="-40" width="80" height="80" rx="8" fill="#A1887F26" stroke="#A1887F" stroke-width="1.5" stroke-dasharray="4,3"/>
      <circle cx="0" cy="0" r="22" fill="#6D4C41"/>
      <circle cx="-14" cy="-14" r="9" fill="#6D4C41"/>
      <circle cx="14" cy="-14" r="9" fill="#6D4C41"/>
      <circle cx="-14" cy="-14" r="5.5" fill="#A1887F"/>
      <circle cx="14" cy="-14" r="5.5" fill="#A1887F"/>
      <ellipse cx="0" cy="5" rx="12" ry="9" fill="#8D6E63"/>
      <circle cx="-7" cy="-3" r="3" fill="#3E2723"/>
      <circle cx="7" cy="-3" r="3" fill="#3E2723"/>
      <circle cx="-6" cy="-4" r="1.2" fill="white" fill-opacity="0.5"/>
      <circle cx="8" cy="-4" r="1.2" fill="white" fill-opacity="0.5"/>
      <ellipse cx="0" cy="4" rx="4" ry="2.8" fill="#3E2723"/>
      <ellipse cx="0" cy="3" rx="1.5" ry="1" fill="#8D6E63"/>
      <path d="M-4,9 Q0,13 4,9" fill="none" stroke="#3E2723" stroke-width="1.5" stroke-linecap="round"/>
    </g>
    <g transform="translate(-135,10)">
      <rect x="-40" y="-40" width="80" height="80" rx="8" fill="#0000000F" stroke="#BDBDBD" stroke-width="1.5" stroke-dasharray="5,4"/>
      <text x="0" y="5" text-anchor="middle" font-family="Arial, sans-serif" font-size="28" fill="#0000001F">?</text>
    </g>
    <g transform="translate(-25,10)" filter="url(#stickerShadow)">
      <rect x="-40" y="-40" width="80" height="80" rx="8" fill="#FFD70020" stroke="#FFD700" stroke-width="1.5" stroke-dasharray="4,3"/>
      <path d="M-14,-22 L14,-22 L10,2 C10,2 8,10 0,10 C-8,10 -10,2 -10,2 Z" fill="url(#trophyGrad)"/>
      <path d="M-14,-18 C-24,-18 -24,-2 -14,-2" fill="none" stroke="#DAA520" stroke-width="3" stroke-linecap="round"/>
      <path d="M14,-18 C24,-18 24,-2 14,-2" fill="none" stroke="#DAA520" stroke-width="3" stroke-linecap="round"/>
      <rect x="-3" y="10" width="6" height="8" fill="#DAA520"/>
      <rect x="-12" y="18" width="24" height="5" rx="2" fill="#B8860B"/>
      <path d="M-6,-18 L-2,-18 L-6,4 L-8,4 Z" fill="white" fill-opacity="0.3"/>
    </g>
    <g transform="translate(95,-100)" filter="url(#stickerShadow)">
      <rect x="-40" y="-40" width="80" height="80" rx="8" fill="#42A5F520" stroke="#42A5F5" stroke-width="1.5" stroke-dasharray="4,3"/>
      <polygon points="0,-24 20,-6 0,26 -20,-6" fill="url(#gemGrad)"/>
      <polygon points="0,-24 8,-6 0,26" fill="#1E88E5" opacity="0.6"/>
      <polygon points="0,-24 -8,-6 -20,-6" fill="#64B5F6" opacity="0.5"/>
      <polygon points="0,-24 8,-6 20,-6" fill="#90CAF9" opacity="0.4"/>
      <line x1="-20" y1="-6" x2="20" y2="-6" stroke="#1565C0" stroke-width="1"/>
      <circle cx="-6" cy="-12" r="2" fill="white" fill-opacity="0.6"/>
    </g>
    <g transform="translate(205,-100)">
      <rect x="-40" y="-40" width="80" height="80" rx="8" fill="#0000000F" stroke="#BDBDBD" stroke-width="1.5" stroke-dasharray="5,4"/>
      <text x="0" y="5" text-anchor="middle" font-family="Arial, sans-serif" font-size="28" fill="#0000001F">?</text>
    </g>
    <g transform="translate(305,-100)" filter="url(#stickerShadow)">
      <rect x="-40" y="-40" width="80" height="80" rx="8" fill="#558B2F26" stroke="#558B2F" stroke-width="1.5" stroke-dasharray="4,3"/>
      <polygon points="0,-28 7,-10 26,-10 11,3 17,22 0,12 -17,22 -11,3 -26,-10 -7,-10" fill="#558B2F"/>
      <polygon points="0,-18 4,-6 16,-6 7,2 11,14 0,8 -11,14 -7,2 -16,-6 -4,-6" fill="#7CB342" opacity="0.6"/>
      <circle cx="0" cy="2" r="5" fill="#4E342E"/>
      <circle cx="-2" cy="0" r="1" fill="white"/>
      <circle cx="2" cy="0" r="1" fill="white"/>
      <ellipse cx="0" cy="2.5" rx="1.5" ry="1" fill="#8D6E63"/>
    </g>
    <g transform="translate(95,10)">
      <rect x="-40" y="-40" width="80" height="80" rx="8" fill="#0000000F" stroke="#BDBDBD" stroke-width="1.5" stroke-dasharray="5,4"/>
      <text x="0" y="5" text-anchor="middle" font-family="Arial, sans-serif" font-size="28" fill="#0000001F">?</text>
    </g>
    <g transform="translate(205,10)" filter="url(#stickerShadow)">
      <rect x="-40" y="-40" width="80" height="80" rx="8" fill="#9C27B020" stroke="#9C27B0" stroke-width="1.5" stroke-dasharray="4,3"/>
      <path d="M-22,10 L-22,-8 L-12,-2 L0,-18 L12,-2 L22,-8 L22,10 Z" fill="#9C27B0"/>
      <path d="M-22,10 L22,10 L22,16 L-22,16 Z" fill="#7B1FA2"/>
      <circle cx="0" cy="-8" r="3" fill="#FFD700"/>
      <circle cx="-14" cy="0" r="2.5" fill="#EF5350"/>
      <circle cx="14" cy="0" r="2.5" fill="#42A5F5"/>
      <circle cx="-10" cy="13" r="2" fill="#FFD700"/>
      <circle cx="0" cy="13" r="2" fill="#FFD700"/>
      <circle cx="10" cy="13" r="2" fill="#FFD700"/>
    </g>
    <g transform="translate(305,10)">
      <rect x="-40" y="-40" width="80" height="80" rx="8" fill="#0000000F" stroke="#BDBDBD" stroke-width="1.5" stroke-dasharray="5,4"/>
      <text x="0" y="5" text-anchor="middle" font-family="Arial, sans-serif" font-size="28" fill="#0000001F">?</text>
    </g>
    <text x="-170" y="140" text-anchor="middle" font-family="Arial, sans-serif" font-size="12" fill="#00000040">Page 1</text>
    <text x="165" y="140" text-anchor="middle" font-family="Arial, sans-serif" font-size="12" fill="#00000040">Page 2</text>
    <text x="0" y="140" text-anchor="middle" font-family="Arial, sans-serif" font-size="11" fill="#00000033">7/12 collected</text>
  </g>
  <polygon points="710,60 715,72 727,72 717,80 721,92 710,84 699,92 703,80 693,72 705,72" fill="#FFD54F" opacity="0.3"/>
  <circle cx="90" cy="390" r="8" fill="#EF5350" opacity="0.3"/>
</svg>