<svg xmlns="http://www.w3.org/2000/svg" viewBox="0 0 800 600" width="800" height="600">
  <defs>
    <linearGradient id="bg2" x1="0" y1="0" x2="1" y2="1">
      <stop offset="0%" stop-color="#F3E5F5"/>
      <stop offset="100%" stop-color="#E1BEE7"/>
    </linearGradient>
    <filter id="sh2"><feDropShadow dx="0" dy="4" stdDeviation="6" flood-color="#4A148C" flood-opacity="0.15"/></filter>
  </defs>
  <rect width="800" height="600" fill="url(#bg2)"/>
  <g opacity="0.05"><circle cx="120" cy="80" r="80" fill="#9C27B0"/><circle cx="680" cy="120" r="60" fill="#9C27B0"/><circle cx="400" cy="500" r="90" fill="#9C27B0"/></g>
  <!-- Bear silhouettes as skin previews -->
  <g transform="translate(160, 280)" filter="url(#sh2)">
    <rect x="-70" y="-110" width="140" height="220" rx="16" fill="white"/>
    <rect x="-60" y="-100" width="120" height="150" rx="10" fill="#FFCCBC"/>
    <ellipse cx="0" cy="-40" rx="30" ry="26" fill="#FF7043"/>
    <ellipse cx="-18" cy="-58" rx="12" ry="12" fill="#FF7043"/>
    <ellipse cx="18" cy="-58" rx="12" ry="12" fill="#FF7043"/>
    <ellipse cx="0" cy="-35" rx="15" ry="12" fill="#FFAB91"/>
    <ellipse cx="0" cy="-40" rx="6" ry="4" fill="#BF360C"/>
    <circle cx="-10" cy="-48" r="3" fill="#3E2723"/><circle cx="10" cy="-48" r="3" fill="#3E2723"/>
    <ellipse cx="0" cy="10" rx="25" ry="35" fill="#FF7043"/>
    <ellipse cx="0" cy="15" rx="18" ry="22" fill="#FFAB91"/>
    <text x="0" y="135" text-anchor="middle" font-family="sans-serif" font-weight="700" font-size="14" fill="#5D4037">Fire Bear</text>
  </g>
  <g transform="translate(400, 280)" filter="url(#sh2)">
    <rect x="-70" y="-110" width="140" height="220" rx="16" fill="white" stroke="#7C4DFF" stroke-width="3"/>
    <rect x="-60" y="-100" width="120" height="150" rx="10" fill="#E8EAF6"/>
    <ellipse cx="0" cy="-40" rx="30" ry="26" fill="#5C6BC0"/>
    <ellipse cx="-18" cy="-58" rx="12" ry="12" fill="#5C6BC0"/>
    <ellipse cx="18" cy="-58" rx="12" ry="12" fill="#5C6BC0"/>
    <ellipse cx="0" cy="-35" rx="15" ry="12" fill="#9FA8DA"/>
    <ellipse cx="0" cy="-40" rx="6" ry="4" fill="#1A237E"/>
    <circle cx="-10" cy="-48" r="3" fill="#1A237E"/><circle cx="10" cy="-48" r="3" fill="#1A237E"/>
    <ellipse cx="0" cy="10" rx="25" ry="35" fill="#5C6BC0"/>
    <ellipse cx="0" cy="15" rx="18" ry="22" fill="#9FA8DA"/>
    <polygon points="-8,-68 0,-80 8,-68" fill="#FFD54F"/>
    <text x="0" y="135" text-anchor="middle" font-family="sans-serif" font-weight="700" font-size="14" fill="#283593">Royal Bear</text>
    <rect x="-30" y="-108" width="60" height="20" rx="10" fill="#FFD54F"/><text x="0" y="-94" text-anchor="middle" font-family="sans-serif" font-weight="800" font-size="10" fill="#E65100">SELECTED</text>
  </g>
  <g transform="translate(640, 280)" filter="url(#sh2)">
    <rect x="-70" y="-110" width="140" height="220" rx="16" fill="white"/>
    <rect x="-60" y="-100" width="120" height="150" rx="10" fill="#E8F5E9"/>
    <ellipse cx="0" cy="-40" rx="30" ry="26" fill="#E0E0E0"/>
    <ellipse cx="-18" cy="-58" rx="12" ry="12" fill="#E0E0E0"/>
    <ellipse cx="18" cy="-58" rx="12" ry="12" fill="#E0E0E0"/>
    <ellipse cx="0" cy="-35" rx="15" ry="12" fill="#F5F5F5"/>
    <ellipse cx="0" cy="-40" rx="6" ry="4" fill="#424242"/>
    <circle cx="-10" cy="-48" r="3" fill="#D50000"/><circle cx="10" cy="-48" r="3" fill="#D50000"/>
    <ellipse cx="0" cy="10" rx="25" ry="35" fill="#E0E0E0"/>
    <ellipse cx="0" cy="15" rx="18" ry="22" fill="#BDBDBD"/>
    <text x="0" y="135" text-anchor="middle" font-family="sans-serif" font-weight="700" font-size="14" fill="#424242">Skeleton Bear</text>
  </g>
  <!-- Header -->
  <text x="400" y="80" text-anchor="middle" font-family="sans-serif" font-weight="900" font-size="32" fill="#4A148C">All Skins Unlocked</text>
  <text x="400" y="110" text-anchor="middle" font-family="sans-serif" font-weight="500" font-size="16" fill="#7B1FA2" opacity="0.7">Choose from 50+ unique bear costumes</text>
  <!-- Unlocked badge -->
  <g transform="translate(400, 530)">
    <rect x="-80" y="-18" width="160" height="36" rx="18" fill="#4CAF50"/>
    <text x="0" y="6" text-anchor="middle" font-family="sans-serif" font-weight="800" font-size="14" fill="white">ALL UNLOCKED ✓</text>
  </g>
</svg>