<svg xmlns="http://www.w3.org/2000/svg" viewBox="0 0 800 600" width="800" height="600">
  <defs>
    <linearGradient id="bg3" x1="0" y1="0" x2="1" y2="1">
      <stop offset="0%" stop-color="#E3F2FD"/>
      <stop offset="100%" stop-color="#BBDEFB"/>
    </linearGradient>
    <filter id="sh3"><feDropShadow dx="0" dy="4" stdDeviation="8" flood-color="#0D47A1" flood-opacity="0.12"/></filter>
  </defs>
  <rect width="800" height="600" fill="url(#bg3)"/>
  <g opacity="0.05"><circle cx="200" cy="150" r="100" fill="#1565C0"/><circle cx="600" cy="450" r="80" fill="#1565C0"/></g>
  <!-- Phone mockup -->
  <g transform="translate(400, 280)" filter="url(#sh3)">
    <rect x="-120" y="-190" width="240" height="380" rx="24" fill="#263238"/>
    <rect x="-108" y="-170" width="216" height="340" rx="4" fill="#E8F5E9"/>
    <rect x="-108" y="-170" width="216" height="250" fill="#81C784"/>
    <rect x="-108" y="-170" width="216" height="100" fill="#64B5F6"/>
    <circle cx="60" cy="-130" r="20" fill="#FFD54F" opacity="0.9"/>
    <ellipse cx="-40" cy="-130" rx="30" ry="10" fill="white" opacity="0.6"/>
    <rect x="-108" y="-70" width="216" height="180" fill="#66BB6A"/>
    <ellipse cx="0" cy="-20" rx="18" ry="15" fill="#795548"/>
    <ellipse cx="-10" cy="-30" rx="7" ry="7" fill="#795548"/>
    <ellipse cx="10" cy="-30" rx="7" ry="7" fill="#795548"/>
    <ellipse cx="0" cy="-18" rx="10" ry="8" fill="#A1887F"/>
    <circle cx="-5" cy="-24" r="2" fill="#3E2723"/><circle cx="5" cy="-24" r="2" fill="#3E2723"/>
    <ellipse cx="0" cy="10" rx="14" ry="20" fill="#795548"/>
    <circle cx="-50" cy="-40" r="6" fill="#FFD54F"/><circle cx="-35" cy="-50" r="6" fill="#FFD54F"/><circle cx="-20" cy="-55" r="6" fill="#FFD54F"/>
    <g transform="translate(0, 50)">
      <rect x="-90" y="-20" width="180" height="40" rx="4" fill="#E53935" opacity="0.15"/>
      <line x1="-80" y1="0" x2="80" y2="0" stroke="#E53935" stroke-width="4" stroke-dasharray="8,4"/>
      <text x="0" y="6" text-anchor="middle" font-family="sans-serif" font-weight="900" font-size="14" fill="#E53935">AD BLOCKED</text>
    </g>
    <rect x="-108" y="80" width="216" height="90" fill="#F5F5F5"/>
    <text x="0" y="120" text-anchor="middle" font-family="sans-serif" font-weight="600" font-size="12" fill="#4CAF50">Ad-Free Gaming</text>
  </g>
  <g transform="translate(180, 200)" filter="url(#sh3)">
    <rect x="-40" y="-25" width="80" height="50" rx="8" fill="white"/>
    <text x="0" y="0" text-anchor="middle" font-family="sans-serif" font-weight="700" font-size="11" fill="#9E9E9E">VIDEO AD</text>
    <line x1="-30" y1="-18" x2="30" y2="18" stroke="#E53935" stroke-width="4" stroke-linecap="round"/>
    <line x1="30" y1="-18" x2="-30" y2="18" stroke="#E53935" stroke-width="4" stroke-linecap="round"/>
  </g>
  <g transform="translate(620, 350)" filter="url(#sh3)">
    <rect x="-40" y="-25" width="80" height="50" rx="8" fill="white"/>
    <text x="0" y="0" text-anchor="middle" font-family="sans-serif" font-weight="700" font-size="11" fill="#9E9E9E">BANNER AD</text>
    <line x1="-30" y1="-18" x2="30" y2="18" stroke="#E53935" stroke-width="4" stroke-linecap="round"/>
    <line x1="30" y1="-18" x2="-30" y2="18" stroke="#E53935" stroke-width="4" stroke-linecap="round"/>
  </g>
  <text x="400" y="60" text-anchor="middle" font-family="sans-serif" font-weight="900" font-size="30" fill="#0D47A1">Zero Advertisements</text>
  <text x="400" y="88" text-anchor="middle" font-family="sans-serif" font-weight="500" font-size="15" fill="#1565C0" opacity="0.7">Pure gameplay — no pop-ups, no video ads, no banners</text>
</svg>