<svg xmlns="http://www.w3.org/2000/svg" viewBox="0 0 800 450" width="800" height="450">
  <defs>
    <linearGradient id="bg" x1="0%" y1="0%" x2="100%" y2="100%">
      <stop offset="0%" stop-color="#FFE082"/>
      <stop offset="50%" stop-color="#558B2F"/>
      <stop offset="100%" stop-color="#FFECB3"/>
    </linearGradient>
    <linearGradient id="woodBody" x1="0%" y1="0%" x2="0%" y2="100%">
      <stop offset="0%" stop-color="#8D6E63"/>
      <stop offset="30%" stop-color="#6D4C41"/>
      <stop offset="70%" stop-color="#5D4037"/>
      <stop offset="100%" stop-color="#4E342E"/>
    </linearGradient>
    <linearGradient id="woodLid" x1="0%" y1="0%" x2="0%" y2="100%">
      <stop offset="0%" stop-color="#A1887F"/>
      <stop offset="40%" stop-color="#8D6E63"/>
      <stop offset="100%" stop-color="#6D4C41"/>
    </linearGradient>
    <linearGradient id="woodSide" x1="0%" y1="0%" x2="100%" y2="0%">
      <stop offset="0%" stop-color="#5D4037"/>
      <stop offset="50%" stop-color="#4E342E"/>
      <stop offset="100%" stop-color="#3E2723"/>
    </linearGradient>
    <radialGradient id="coinGold" cx="40%" cy="35%" r="55%">
      <stop offset="0%" stop-color="#FFF8C4"/>
      <stop offset="40%" stop-color="#FFD700"/>
      <stop offset="80%" stop-color="#DAA520"/>
      <stop offset="100%" stop-color="#B8860B"/>
    </radialGradient>
    <radialGradient id="innerGlow" cx="50%" cy="60%" r="50%">
      <stop offset="0%" stop-color="#FFD700" stop-opacity="0.6"/>
      <stop offset="40%" stop-color="#FFC800" stop-opacity="0.3"/>
      <stop offset="100%" stop-color="#FFB400" stop-opacity="0"/>
    </radialGradient>
    <radialGradient id="outerGlow" cx="50%" cy="45%" r="50%">
      <stop offset="0%" stop-color="#FFD700" stop-opacity="0.25"/>
      <stop offset="60%" stop-color="#FFD700" stop-opacity="0.08"/>
      <stop offset="100%" stop-color="#FFD700" stop-opacity="0"/>
    </radialGradient>
    <linearGradient id="metalBand" x1="0%" y1="0%" x2="0%" y2="100%">
      <stop offset="0%" stop-color="#B8860B"/>
      <stop offset="30%" stop-color="#DAA520"/>
      <stop offset="70%" stop-color="#B8860B"/>
      <stop offset="100%" stop-color="#8B6914"/>
    </linearGradient>
    <radialGradient id="redGem" cx="35%" cy="30%" r="60%">
      <stop offset="0%" stop-color="#FF6B6B"/>
      <stop offset="50%" stop-color="#EF5350"/>
      <stop offset="100%" stop-color="#B71C1C"/>
    </radialGradient>
    <radialGradient id="blueGem" cx="35%" cy="30%" r="60%">
      <stop offset="0%" stop-color="#90CAF9"/>
      <stop offset="50%" stop-color="#42A5F5"/>
      <stop offset="100%" stop-color="#0D47A1"/>
    </radialGradient>
    <radialGradient id="greenGem" cx="35%" cy="30%" r="60%">
      <stop offset="0%" stop-color="#A5D6A7"/>
      <stop offset="50%" stop-color="#4CAF50"/>
      <stop offset="100%" stop-color="#FFF8E1"/>
    </radialGradient>
    <filter id="shadow" x="-10%" y="-10%" width="130%" height="130%">
      <feDropShadow dx="4" dy="6" stdDeviation="7" flood-color="#00000066"/>
    </filter>
    <filter id="glowFilter" x="-30%" y="-30%" width="160%" height="160%">
      <feGaussianBlur stdDeviation="12" result="blur"/>
      <feMerge>
        <feMergeNode in="blur"/>
        <feMergeNode in="SourceGraphic"/>
      </feMerge>
    </filter>
    <filter id="coinShadow" x="-20%" y="-20%" width="140%" height="140%">
      <feDropShadow dx="1" dy="2" stdDeviation="2" flood-color="#0000004D"/>
    </filter>
  </defs>
  <rect width="800" height="450" fill="url(#bg)"/>
  <rect width="800" height="450" fill="#00000012"/>
  <circle cx="100" cy="80" r="130" fill="#FFD70005"/>
  <circle cx="700" cy="380" r="150" fill="#FFD70005"/>
  <ellipse cx="400" cy="250" rx="250" ry="180" fill="url(#outerGlow)" filter="url(#glowFilter)"/>
  <ellipse cx="400" cy="200" rx="140" ry="80" fill="url(#innerGlow)" opacity="0.8"/>
  <g filter="url(#shadow)">
    <rect x="240" y="250" width="320" height="120" rx="6" fill="url(#woodBody)"/>
    <line x1="250" y1="280" x2="550" y2="280" stroke="#0000001A" stroke-width="1"/>
    <line x1="250" y1="310" x2="550" y2="310" stroke="#0000001A" stroke-width="1"/>
    <line x1="250" y1="340" x2="550" y2="340" stroke="#0000001A" stroke-width="1"/>
    <polygon points="240,250 210,270 210,390 240,370" fill="url(#woodSide)"/>
    <polygon points="560,250 590,270 590,390 560,370" fill="#3E2723"/>
    <rect x="240" y="360" width="320" height="10" rx="2" fill="#3E2723"/>
    <rect x="235" y="258" width="330" height="12" rx="2" fill="url(#metalBand)"/>
    <circle cx="260" cy="264" r="4" fill="#DAA520" stroke="#8B6914" stroke-width="1"/>
    <circle cx="320" cy="264" r="4" fill="#DAA520" stroke="#8B6914" stroke-width="1"/>
    <circle cx="480" cy="264" r="4" fill="#DAA520" stroke="#8B6914" stroke-width="1"/>
    <circle cx="540" cy="264" r="4" fill="#DAA520" stroke="#8B6914" stroke-width="1"/>
    <rect x="235" y="330" width="330" height="10" rx="2" fill="url(#metalBand)"/>
    <circle cx="260" cy="335" r="3.5" fill="#DAA520" stroke="#8B6914" stroke-width="1"/>
    <circle cx="540" cy="335" r="3.5" fill="#DAA520" stroke="#8B6914" stroke-width="1"/>
    <rect x="383" y="280" width="34" height="40" rx="4" fill="url(#metalBand)"/>
    <rect x="388" y="285" width="24" height="30" rx="3" fill="#8B6914"/>
    <circle cx="400" cy="300" r="6" fill="#B8860B" stroke="#DAA520" stroke-width="1.5"/>
    <circle cx="400" cy="300" r="2.5" fill="#3E2723"/>
  </g>
  <g filter="url(#shadow)" transform="translate(400,250) rotate(-55) translate(-400,-250)">
    <path d="M240,200 L240,250 L560,250 L560,200 Q400,155 240,200 Z" fill="url(#woodLid)"/>
    <path d="M260,230 Q400,200 540,230" fill="none" stroke="#00000014" stroke-width="1"/>
    <path d="M260,215 Q400,185 540,215" fill="none" stroke="#00000014" stroke-width="1"/>
    <path d="M235,245 L565,245 L565,255 L235,255 Z" fill="url(#metalBand)"/>
    <circle cx="260" cy="250" r="4" fill="#DAA520" stroke="#8B6914" stroke-width="1"/>
    <circle cx="540" cy="250" r="4" fill="#DAA520" stroke="#8B6914" stroke-width="1"/>
    <path d="M395,195 L405,195 L405,255 L395,255 Z" fill="url(#metalBand)"/>
  </g>
  <g filter="url(#coinShadow)">
    <ellipse cx="310" cy="230" rx="18" ry="8" fill="url(#coinGold)" stroke="#B8860B" stroke-width="1"/>
    <text x="310" y="233" text-anchor="middle" font-family="Arial, sans-serif" font-size="8" font-weight="bold" fill="#8B6914">$</text>
    <ellipse cx="355" cy="225" rx="18" ry="8" fill="url(#coinGold)" stroke="#B8860B" stroke-width="1"/>
    <text x="355" y="228" text-anchor="middle" font-family="Arial, sans-serif" font-size="8" font-weight="bold" fill="#8B6914">$</text>
    <ellipse cx="400" cy="222" rx="18" ry="8" fill="url(#coinGold)" stroke="#B8860B" stroke-width="1"/>
    <text x="400" y="225" text-anchor="middle" font-family="Arial, sans-serif" font-size="8" font-weight="bold" fill="#8B6914">$</text>
    <ellipse cx="445" cy="225" rx="18" ry="8" fill="url(#coinGold)" stroke="#B8860B" stroke-width="1"/>
    <text x="445" y="228" text-anchor="middle" font-family="Arial, sans-serif" font-size="8" font-weight="bold" fill="#8B6914">$</text>
    <ellipse cx="490" cy="230" rx="18" ry="8" fill="url(#coinGold)" stroke="#B8860B" stroke-width="1"/>
    <text x="490" y="233" text-anchor="middle" font-family="Arial, sans-serif" font-size="8" font-weight="bold" fill="#8B6914">$</text>
    <ellipse cx="330" cy="242" rx="18" ry="8" fill="url(#coinGold)" stroke="#B8860B" stroke-width="1"/>
    <text x="330" y="245" text-anchor="middle" font-family="Arial, sans-serif" font-size="8" font-weight="bold" fill="#8B6914">$</text>
    <ellipse cx="375" cy="238" rx="18" ry="8" fill="url(#coinGold)" stroke="#B8860B" stroke-width="1"/>
    <text x="375" y="241" text-anchor="middle" font-family="Arial, sans-serif" font-size="8" font-weight="bold" fill="#8B6914">$</text>
    <ellipse cx="420" cy="236" rx="18" ry="8" fill="url(#coinGold)" stroke="#B8860B" stroke-width="1"/>
    <text x="420" y="239" text-anchor="middle" font-family="Arial, sans-serif" font-size="8" font-weight="bold" fill="#8B6914">$</text>
    <ellipse cx="465" cy="240" rx="18" ry="8" fill="url(#coinGold)" stroke="#B8860B" stroke-width="1"/>
    <text x="465" y="243" text-anchor="middle" font-family="Arial, sans-serif" font-size="8" font-weight="bold" fill="#8B6914">$</text>
  </g>
  <g filter="url(#coinShadow)">
    <polygon points="383,218 395,231 383,251 371,231" fill="url(#redGem)" transform="scale(0.7) translate(155,82)"/>
    <circle cx="383" cy="220" r="2" fill="white" fill-opacity="0.5"/>
  </g>
  <g filter="url(#coinShadow)">
    <polygon points="478,212 493,227 478,247 463,227" fill="url(#blueGem)" transform="scale(0.65) translate(195,90)"/>
    <circle cx="478" cy="217" r="2" fill="white" fill-opacity="0.5"/>
  </g>
  <g filter="url(#coinShadow)">
    <polygon points="489,227 502,242 489,259 476,242" fill="url(#greenGem)" transform="scale(0.6) translate(240,95)"/>
  </g>
  <g filter="url(#coinShadow)">
    <ellipse cx="575" cy="310" rx="16" ry="16" fill="url(#coinGold)" stroke="#B8860B" stroke-width="1.5"/>
    <text x="575" y="315" text-anchor="middle" font-family="Arial, sans-serif" font-size="12" font-weight="bold" fill="#8B6914">$</text>
    <circle cx="575" cy="310" r="12" fill="none" stroke="#DAA520" stroke-width="1"/>
    <ellipse cx="600" cy="340" rx="14" ry="14" fill="url(#coinGold)" stroke="#B8860B" stroke-width="1.5" transform="rotate(15,600,340)"/>
    <text x="600" y="345" text-anchor="middle" font-family="Arial, sans-serif" font-size="10" font-weight="bold" fill="#8B6914">$</text>
    <ellipse cx="560" cy="355" rx="13" ry="13" fill="url(#coinGold)" stroke="#B8860B" stroke-width="1.2" transform="rotate(-10,560,355)"/>
    <text x="560" y="359" text-anchor="middle" font-family="Arial, sans-serif" font-size="10" font-weight="bold" fill="#8B6914">$</text>
  </g>
  <g filter="url(#coinShadow)">
    <ellipse cx="225" cy="320" rx="15" ry="15" fill="url(#coinGold)" stroke="#B8860B" stroke-width="1.5" transform="rotate(-20,225,320)"/>
    <text x="225" y="325" text-anchor="middle" font-family="Arial, sans-serif" font-size="11" font-weight="bold" fill="#8B6914">$</text>
    <ellipse cx="205" cy="350" rx="13" ry="13" fill="url(#coinGold)" stroke="#B8860B" stroke-width="1.2"/>
    <text x="205" y="354" text-anchor="middle" font-family="Arial, sans-serif" font-size="9" font-weight="bold" fill="#8B6914">$</text>
  </g>
  <g opacity="0.15">
    <polygon points="400,200 370,60 380,60" fill="#FFD700"/>
    <polygon points="400,200 420,55 430,55" fill="#FFD700"/>
    <polygon points="400,200 310,80 320,75" fill="#FFD700"/>
    <polygon points="400,200 490,75 500,80" fill="#FFD700"/>
    <polygon points="400,200 260,120 268,112" fill="#FFD700"/>
    <polygon points="400,200 540,115 548,122" fill="#FFD700"/>
  </g>
  <g transform="translate(340,120)" opacity="0.7">
    <line x1="-10" y1="0" x2="10" y2="0" stroke="#FFE44D" stroke-width="2" stroke-linecap="round"/>
    <line x1="0" y1="-10" x2="0" y2="10" stroke="#FFE44D" stroke-width="2" stroke-linecap="round"/>
    <line x1="-6" y1="-6" x2="6" y2="6" stroke="#FFE44D" stroke-width="1.2" stroke-linecap="round"/>
    <line x1="-6" y1="6" x2="6" y2="-6" stroke="#FFE44D" stroke-width="1.2" stroke-linecap="round"/>
  </g>
  <g transform="translate(480,100) scale(0.7)" opacity="0.6">
    <line x1="-10" y1="0" x2="10" y2="0" stroke="#FFF8C4" stroke-width="2.5" stroke-linecap="round"/>
    <line x1="0" y1="-10" x2="0" y2="10" stroke="#FFF8C4" stroke-width="2.5" stroke-linecap="round"/>
  </g>
  <g transform="translate(290,160) scale(0.5)" opacity="0.5">
    <line x1="-10" y1="0" x2="10" y2="0" stroke="#FFD700" stroke-width="2.5" stroke-linecap="round"/>
    <line x1="0" y1="-10" x2="0" y2="10" stroke="#FFD700" stroke-width="2.5" stroke-linecap="round"/>
    <line x1="-7" y1="-7" x2="7" y2="7" stroke="#FFD700" stroke-width="1.5" stroke-linecap="round"/>
    <line x1="-7" y1="7" x2="7" y2="-7" stroke="#FFD700" stroke-width="1.5" stroke-linecap="round"/>
  </g>
  <circle cx="350" cy="150" r="2.5" fill="#FFD700" opacity="0.5"/>
  <circle cx="430" cy="130" r="2" fill="#FFE44D" opacity="0.4"/>
  <circle cx="470" cy="170" r="1.8" fill="#FFD700" opacity="0.45"/>
  <circle cx="320" cy="180" r="1.5" fill="#FFE44D" opacity="0.35"/>
  <circle cx="500" cy="140" r="2" fill="#FFD700" opacity="0.4"/>
  <g filter="url(#shadow)">
    <rect x="255" y="395" width="290" height="48" rx="24" fill="#00000066"/>
    <rect x="257" y="397" width="286" height="44" rx="22" fill="none" stroke="#DAA520" stroke-width="2"/>
    <text x="400" y="426" text-anchor="middle" font-family="Arial, Helvetica, sans-serif" font-size="24" font-weight="bold" fill="#FFE44D" letter-spacing="2">Treasure Chest</text>
  </g>
</svg>