<svg xmlns="http://www.w3.org/2000/svg" width="800" height="450" viewBox="0 0 800 450">
  <defs>
    <linearGradient id="bg" x1="0%" y1="0%" x2="100%" y2="100%">
      <stop offset="0%" style="stop-color:#1a237e"/>
      <stop offset="100%" style="stop-color:#1b5e20"/>
    </linearGradient>
  </defs>
  <rect width="800" height="450" fill="url(#bg)"/>
  <!-- Map-like left panel -->
  <rect x="40" y="80" width="310" height="290" rx="10" fill="#0a1a10" stroke="#66bb6a" stroke-width="1.5" opacity="0.9"/>
  <text x="195" y="115" font-family="Arial,sans-serif" font-size="14" font-weight="700" text-anchor="middle" fill="#a5d6a7">KINGDOM MAP</text>
  <!-- Regions -->
  <rect x="60" y="125" width="80" height="55" rx="6" fill="#1b5e20" opacity="0.7"/>
  <text x="100" y="156" font-family="Arial,sans-serif" font-size="11" text-anchor="middle" fill="#fff">Turtletown</text>
  <rect x="165" y="125" width="80" height="55" rx="6" fill="#0d47a1" opacity="0.7"/>
  <text x="205" y="156" font-family="Arial,sans-serif" font-size="11" text-anchor="middle" fill="#fff">Snow Valley</text>
  <rect x="270" y="125" width="60" height="55" rx="6" fill="#e65100" opacity="0.7"/>
  <text x="300" y="156" font-family="Arial,sans-serif" font-size="10" text-anchor="middle" fill="#fff">Desert</text>
  <rect x="60" y="195" width="80" height="55" rx="6" fill="#880e4f" opacity="0.7"/>
  <text x="100" y="225" font-family="Arial,sans-serif" font-size="11" text-anchor="middle" fill="#fff">Giant House</text>
  <rect x="165" y="195" width="80" height="55" rx="6" fill="#f9a825" opacity="0.7"/>
  <text x="205" y="225" font-family="Arial,sans-serif" font-size="11" text-anchor="middle" fill="#222">The Hive</text>
  <rect x="270" y="195" width="60" height="55" rx="6" fill="#546e7a" opacity="0.7"/>
  <text x="300" y="225" font-family="Arial,sans-serif" font-size="10" text-anchor="middle" fill="#fff">Mines</text>
  <text x="195" y="295" font-family="Arial,sans-serif" font-size="11" text-anchor="middle" fill="#66bb6a">Kingdom of Earthkwak</text>
  <text x="195" y="315" font-family="Arial,sans-serif" font-size="11" text-anchor="middle" fill="#a5d6a7">Six Regions • Interconnected Lore</text>
  <!-- Right panel -->
  <rect x="380" y="80" width="390" height="290" rx="12" fill="#050d15" opacity="0.85"/>
  <text x="575" y="125" font-family="Arial,sans-serif" font-size="20" font-weight="900" text-anchor="middle" fill="#fff">Kingdom of Earthkwak</text>
  <text x="575" y="152" font-family="Arial,sans-serif" font-size="14" text-anchor="middle" fill="#66bb6a">World Map, Story &amp; Lore</text>
  <rect x="395" y="165" width="360" height="1.5" fill="#66bb6a" opacity="0.3"/>
  <text x="400" y="192" font-family="Arial,sans-serif" font-size="13" fill="#c8e6c9">🗺️ Full world map overview</text>
  <text x="400" y="216" font-family="Arial,sans-serif" font-size="13" fill="#c8e6c9">📜 Backstory of each region</text>
  <text x="400" y="240" font-family="Arial,sans-serif" font-size="13" fill="#c8e6c9">👑 Who rules each area</text>
  <text x="400" y="264" font-family="Arial,sans-serif" font-size="13" fill="#c8e6c9">🔗 How regions connect narratively</text>
  <text x="400" y="288" font-family="Arial,sans-serif" font-size="13" fill="#c8e6c9">⚔️ Villain origins per world</text>
  <rect x="395" y="310" width="360" height="40" rx="8" fill="#1b5e20" opacity="0.25"/>
  <text x="575" y="334" font-family="Arial,sans-serif" font-size="13" text-anchor="middle" fill="#a5d6a7">Lore breakdown for all 6 worlds</text>
  <text x="400" y="415" font-family="Arial,sans-serif" font-size="13" text-anchor="middle" fill="#555">superbearadventuremod.io</text>
</svg>
