<svg xmlns="http://www.w3.org/2000/svg" viewBox="0 0 800 450" width="800" height="450">
  <defs>
    <linearGradient id="bg" x1="0" y1="0" x2="1" y2="1">
      <stop offset="0%" stop-color="#F3E5F5"/>
      <stop offset="100%" stop-color="#E1BEE7"/>
    </linearGradient>
    <filter id="s"><feDropShadow dx="0" dy="3" stdDeviation="6" flood-color="#000" flood-opacity="0.3"/></filter>
  </defs>
  <rect width="800" height="450" fill="url(#bg)"/>
  <!-- Map background -->
  <g filter="url(#s)">
    <rect x="100" y="50" width="600" height="300" rx="8" fill="#F5F5DC" opacity="0.9"/>
    <rect x="100" y="50" width="600" height="300" rx="8" fill="none" stroke="#D7CCC8" stroke-width="2"/>
    <!-- Map terrain -->
    <ellipse cx="300" cy="180" rx="100" ry="60" fill="#C8E6C9" opacity="0.5"/>
    <ellipse cx="500" cy="200" rx="80" ry="50" fill="#BBDEFB" opacity="0.4"/>
    <ellipse cx="400" cy="250" rx="120" ry="40" fill="#FFE0B2" opacity="0.4"/>
    <!-- Map paths -->
    <path d="M200,150 Q300,180 400,160 Q500,140 600,180" fill="none" stroke="#A1887F" stroke-width="2" stroke-dasharray="5,5"/>
    <path d="M250,250 Q350,230 450,260 Q550,280 600,250" fill="none" stroke="#A1887F" stroke-width="2" stroke-dasharray="5,5"/>
  </g>
  <!-- Pin markers -->
  <g filter="url(#s)">
    <g transform="translate(220, 140)">
      <circle cx="0" cy="-15" r="12" fill="#F44336"/>
      <polygon points="0,5 -8,-10 8,-10" fill="#F44336"/>
      <circle cx="0" cy="-15" r="5" fill="white"/>
    </g>
    <g transform="translate(380, 160)">
      <circle cx="0" cy="-15" r="12" fill="#4CAF50"/>
      <polygon points="0,5 -8,-10 8,-10" fill="#4CAF50"/>
      <circle cx="0" cy="-15" r="5" fill="white"/>
    </g>
    <g transform="translate(520, 180)">
      <circle cx="0" cy="-15" r="12" fill="#2196F3"/>
      <polygon points="0,5 -8,-10 8,-10" fill="#2196F3"/>
      <circle cx="0" cy="-15" r="5" fill="white"/>
    </g>
    <g transform="translate(300, 240)">
      <circle cx="0" cy="-15" r="12" fill="#FF9800"/>
      <polygon points="0,5 -8,-10 8,-10" fill="#FF9800"/>
      <circle cx="0" cy="-15" r="5" fill="white"/>
    </g>
    <g transform="translate(580, 230)">
      <circle cx="0" cy="-15" r="12" fill="#9C27B0"/>
      <polygon points="0,5 -8,-10 8,-10" fill="#9C27B0"/>
      <circle cx="0" cy="-15" r="5" fill="white"/>
    </g>
    <g transform="translate(450, 270)">
      <circle cx="0" cy="-15" r="12" fill="#FFC107"/>
      <polygon points="0,5 -8,-10 8,-10" fill="#FFC107"/>
      <circle cx="0" cy="-15" r="5" fill="white"/>
    </g>
  </g>
  <!-- Counter badge -->
  <circle cx="660" cy="90" r="22" fill="#F44336" filter="url(#s)"/>
  <text x="660" y="97" text-anchor="middle" font-family="sans-serif" font-weight="700" font-size="16" fill="white">30</text>
  <text x="400" y="400" text-anchor="middle" font-family="sans-serif" font-weight="800" font-size="28" fill="#4A148C">All Sticker Locations</text>
  <text x="400" y="430" text-anchor="middle" font-family="sans-serif" font-weight="400" font-size="14" fill="#7B1FA2">Complete Collectibles Map</text>
</svg>