<svg xmlns="http://www.w3.org/2000/svg" viewBox="0 0 800 450" width="800" height="450">
  <defs>
    <linearGradient id="bg" x1="0" y1="0" x2="1" y2="1">
      <stop offset="0%" stop-color="#EDE7F6"/>
      <stop offset="100%" stop-color="#CE93D8"/>
    </linearGradient>
  </defs>
  <rect width="800" height="450" fill="url(#bg)"/>
  <!-- Purple gem shapes -->
  <polygon points="400,80 460,160 400,220 340,160" fill="#7B1FA2" opacity="0.8"/>
  <polygon points="400,80 460,160 400,220 340,160" fill="none" stroke="#CE93D8" stroke-width="3"/>
  <polygon points="200,150 250,220 200,270 150,220" fill="#9C27B0" opacity="0.7"/>
  <polygon points="600,150 650,220 600,270 550,220" fill="#9C27B0" opacity="0.7"/>
  <polygon points="300,260 340,310 300,350 260,310" fill="#AB47BC" opacity="0.7"/>
  <polygon points="500,260 540,310 500,350 460,310" fill="#AB47BC" opacity="0.7"/>
  <!-- Coin count -->
  <rect x="170" y="310" width="460" height="70" rx="20" fill="#6A1B9A"/>
  <text x="400" y="355" text-anchor="middle" font-family="sans-serif" font-weight="900" font-size="26" fill="white">∞ Unlimited Gems</text>
  <text x="400" y="420" text-anchor="middle" font-family="sans-serif" font-weight="600" font-size="16" fill="#9C27B0">Super Bear Adventure Purple Coins Guide</text>
</svg>