<svg xmlns="http://www.w3.org/2000/svg" viewBox="0 0 800 450" width="800" height="450">
  <defs>
    <linearGradient id="bg" x1="0" y1="0" x2="1" y2="1">
      <stop offset="0%" stop-color="#E8F5E9"/>
      <stop offset="100%" stop-color="#C8E6C9"/>
    </linearGradient>
  </defs>
  <rect width="800" height="450" fill="url(#bg)"/>
  <g opacity="0.05"><circle cx="100" cy="80" r="120" fill="#4CAF50"/><circle cx="700" cy="370" r="100" fill="#4CAF50"/></g>
  <!-- Shield -->
  <g transform="translate(400,200)">
    <path d="M0,-140 L120,-90 L120,40 Q120,120 0,160 Q-120,120 -120,40 L-120,-90 Z" fill="#4CAF50" opacity="0.2"/>
    <path d="M0,-120 L100,-75 L100,35 Q100,105 0,140 Q-100,105 -100,35 L-100,-75 Z" fill="#4CAF50"/>
    <path d="M-40,10 L-15,35 L50,-30" stroke="white" stroke-width="14" stroke-linecap="round" stroke-linejoin="round" fill="none"/>
  </g>
  <!-- Verified text -->
  <text x="400" y="385" text-anchor="middle" font-family="sans-serif" font-weight="800" font-size="22" fill="#2E7D32">VERIFIED SAFE — 0 Detections</text>
  <!-- Badges -->
  <g transform="translate(200,80)"><rect x="-50" y="-14" width="100" height="28" rx="14" fill="#4CAF50"/><text x="0" y="5" text-anchor="middle" font-family="sans-serif" font-weight="700" font-size="11" fill="white">No Malware</text></g>
  <g transform="translate(400,65)"><rect x="-50" y="-14" width="100" height="28" rx="14" fill="#2196F3"/><text x="0" y="5" text-anchor="middle" font-family="sans-serif" font-weight="700" font-size="11" fill="white">No Root</text></g>
  <g transform="translate(600,80)"><rect x="-55" y="-14" width="110" height="28" rx="14" fill="#FF9800"/><text x="0" y="5" text-anchor="middle" font-family="sans-serif" font-weight="700" font-size="11" fill="white">VirusTotal 0/72</text></g>
</svg>