<svg xmlns="http://www.w3.org/2000/svg" viewBox="0 0 800 450" width="800" height="450">
  <defs>
    <linearGradient id="bg" x1="0" y1="0" x2="1" y2="1">
      <stop offset="0%" stop-color="#1B5E20"/>
      <stop offset="100%" stop-color="#33691E"/>
    </linearGradient>
    <filter id="s"><feDropShadow dx="0" dy="3" stdDeviation="6" flood-color="#000" flood-opacity="0.3"/></filter>
  </defs>
  <rect width="800" height="450" fill="url(#bg)"/>
  <!-- Multiple controllers -->
  <g filter="url(#s)">
    <!-- Controller 1 (center, larger) -->
    <g transform="translate(400, 170)">
      <rect x="-70" y="-30" width="140" height="60" rx="30" fill="#558B2F"/>
      <circle cx="-35" cy="0" r="14" fill="#33691E" stroke="#4CAF50" stroke-width="1.5"/>
      <circle cx="35" cy="-8" r="6" fill="#8BC34A"/>
      <circle cx="43" cy="0" r="6" fill="#F44336"/>
      <circle cx="35" cy="8" r="6" fill="#42A5F5"/>
      <circle cx="27" cy="0" r="6" fill="#FFC107"/>
    </g>
    <!-- Controller 2 (left) -->
    <g transform="translate(200, 200) scale(0.8)">
      <rect x="-70" y="-30" width="140" height="60" rx="30" fill="#1565C0"/>
      <circle cx="-35" cy="0" r="14" fill="#0D47A1" stroke="#42A5F5" stroke-width="1.5"/>
      <circle cx="35" cy="-8" r="6" fill="#64B5F6"/>
      <circle cx="43" cy="0" r="6" fill="#E3F2FD"/>
      <circle cx="35" cy="8" r="6" fill="#1E88E5"/>
      <circle cx="27" cy="0" r="6" fill="#90CAF9"/>
    </g>
    <!-- Controller 3 (right) -->
    <g transform="translate(600, 200) scale(0.8)">
      <rect x="-70" y="-30" width="140" height="60" rx="30" fill="#E65100"/>
      <circle cx="-35" cy="0" r="14" fill="#BF360C" stroke="#FF8A65" stroke-width="1.5"/>
      <circle cx="35" cy="-8" r="6" fill="#FF7043"/>
      <circle cx="43" cy="0" r="6" fill="#FFCCBC"/>
      <circle cx="35" cy="8" r="6" fill="#E64A19"/>
      <circle cx="27" cy="0" r="6" fill="#FFB74D"/>
    </g>
    <!-- Controller 4 (bottom left) -->
    <g transform="translate(280, 270) scale(0.65)">
      <rect x="-70" y="-30" width="140" height="60" rx="30" fill="#6A1B9A"/>
      <circle cx="-35" cy="0" r="14" fill="#4A148C" stroke="#BA68C8" stroke-width="1.5"/>
      <circle cx="35" cy="-8" r="6" fill="#CE93D8"/>
      <circle cx="43" cy="0" r="6" fill="#F3E5F5"/>
    </g>
    <!-- Controller 5 (bottom right) -->
    <g transform="translate(520, 270) scale(0.65)">
      <rect x="-70" y="-30" width="140" height="60" rx="30" fill="#F57F17"/>
      <circle cx="-35" cy="0" r="14" fill="#E65100" stroke="#FFB74D" stroke-width="1.5"/>
      <circle cx="35" cy="-8" r="6" fill="#FFD54F"/>
      <circle cx="43" cy="0" r="6" fill="#FFF9C4"/>
    </g>
  </g>
  <!-- "VS" or "Like" text -->
  <text x="400" y="130" text-anchor="middle" font-family="sans-serif" font-weight="900" font-size="24" fill="#8BC34A" opacity="0.4">SIMILAR GAMES</text>
  <!-- Number badge -->
  <circle cx="400" cy="310" r="25" fill="#8BC34A" filter="url(#s)"/>
  <text x="400" y="317" text-anchor="middle" font-family="sans-serif" font-weight="800" font-size="20" fill="#1B5E20">10+</text>
  <text x="400" y="380" text-anchor="middle" font-family="sans-serif" font-weight="800" font-size="28" fill="#F1F8E9">Games Like SBA</text>
  <text x="400" y="410" text-anchor="middle" font-family="sans-serif" font-weight="400" font-size="14" fill="#A5D6A7">Best Alternative Games</text>
</svg>