<svg xmlns="http://www.w3.org/2000/svg" viewBox="0 0 800 450" width="800" height="450">
  <defs>
    <linearGradient id="bg" x1="0" y1="0" x2="1" y2="1">
      <stop offset="0%" stop-color="#E1BEE7"/>
      <stop offset="100%" stop-color="#F3E5F5"/>
    </linearGradient>
    <linearGradient id="parch" x1="0" y1="0" x2="0" y2="1">
      <stop offset="0%" stop-color="#F5F5DC"/>
      <stop offset="100%" stop-color="#D7CCC8"/>
    </linearGradient>
    <filter id="s"><feDropShadow dx="0" dy="3" stdDeviation="6" flood-color="#000" flood-opacity="0.3"/></filter>
  </defs>
  <rect width="800" height="450" fill="url(#bg)"/>
  <!-- Book/scroll -->
  <g transform="translate(400, 200)" filter="url(#s)">
    <!-- Scroll -->
    <rect x="-120" y="-120" width="240" height="240" rx="4" fill="url(#parch)"/>
    <!-- Scroll rolls top and bottom -->
    <ellipse cx="0" cy="-120" rx="130" ry="12" fill="#D7CCC8"/>
    <ellipse cx="0" cy="120" rx="130" ry="12" fill="#BCAAA4"/>
    <!-- Roll caps -->
    <circle cx="-130" cy="-120" r="12" fill="#795548"/>
    <circle cx="130" cy="-120" r="12" fill="#795548"/>
    <circle cx="-130" cy="120" r="12" fill="#795548"/>
    <circle cx="130" cy="120" r="12" fill="#795548"/>
    <!-- Text lines -->
    <g opacity="0.3">
      <rect x="-80" y="-80" width="160" height="4" rx="2" fill="#795548"/>
      <rect x="-80" y="-60" width="140" height="4" rx="2" fill="#795548"/>
      <rect x="-80" y="-40" width="150" height="4" rx="2" fill="#795548"/>
      <rect x="-80" y="-20" width="120" height="4" rx="2" fill="#795548"/>
      <rect x="-80" y="0" width="160" height="4" rx="2" fill="#795548"/>
      <rect x="-80" y="20" width="130" height="4" rx="2" fill="#795548"/>
      <rect x="-80" y="40" width="155" height="4" rx="2" fill="#795548"/>
    </g>
    <!-- Bear silhouette on scroll -->
    <g transform="translate(0, 0)" opacity="0.15">
      <circle cx="0" cy="-20" r="35" fill="#3E2723"/>
      <circle cx="-24" cy="-45" r="12" fill="#3E2723"/>
      <circle cx="24" cy="-45" r="12" fill="#3E2723"/>
      <ellipse cx="0" cy="25" rx="30" ry="40" fill="#3E2723"/>
    </g>
  </g>
  <!-- Decorative corners -->
  <g fill="#8BC34A" opacity="0.2">
    <path d="M50,50 L100,50 L100,55 L55,55 L55,100 L50,100Z"/>
    <path d="M750,50 L700,50 L700,55 L745,55 L745,100 L750,100Z"/>
    <path d="M50,400 L100,400 L100,395 L55,395 L55,350 L50,350Z"/>
    <path d="M750,400 L700,400 L700,395 L745,395 L745,350 L750,350Z"/>
  </g>
  <text x="400" y="390" text-anchor="middle" font-family="sans-serif" font-weight="800" font-size="28" fill="#4A148C">Lore &amp; Story Guide</text>
  <text x="400" y="420" text-anchor="middle" font-family="sans-serif" font-weight="400" font-size="14" fill="#7B1FA2">The Complete Bear Adventure Story</text>
</svg>