<svg xmlns="http://www.w3.org/2000/svg" viewBox="0 0 800 450" width="800" height="450">
  <defs>
    <linearGradient id="bg" x1="0" y1="0" x2="1" y2="1">
      <stop offset="0%" stop-color="#FFF3E0"/>
      <stop offset="100%" stop-color="#FFE0B2"/>
    </linearGradient>
    <filter id="s"><feDropShadow dx="0" dy="3" stdDeviation="6" flood-color="#000" flood-opacity="0.3"/></filter>
  </defs>
  <rect width="800" height="450" fill="url(#bg)"/>
  <!-- Wrench -->
  <g transform="translate(340, 190) rotate(-30)" filter="url(#s)">
    <rect x="-8" y="-80" width="16" height="130" rx="4" fill="#9E9E9E"/>
    <path d="M-20,-80 Q0,-100 20,-80 L15,-60 Q0,-70 -15,-60Z" fill="#BDBDBD"/>
    <circle cx="0" cy="-80" r="8" fill="#757575"/>
  </g>
  <!-- Screwdriver -->
  <g transform="translate(460, 190) rotate(30)" filter="url(#s)">
    <rect x="-5" y="-80" width="10" height="100" rx="2" fill="#BDBDBD"/>
    <rect x="-8" y="20" width="16" height="50" rx="4" fill="#FFC107"/>
    <rect x="-8" y="20" width="16" height="10" rx="2" fill="#FFB300"/>
    <polygon points="0,-85 -5,-80 5,-80" fill="#E0E0E0"/>
  </g>
  <!-- Error/warning symbols -->
  <g filter="url(#s)">
    <!-- Warning triangle -->
    <g transform="translate(200, 150)">
      <polygon points="0,-25 22,15 -22,15" fill="#FFC107" stroke="#F57F17" stroke-width="2"/>
      <text x="0" y="10" text-anchor="middle" font-family="sans-serif" font-weight="900" font-size="22" fill="#F57F17">!</text>
    </g>
    <!-- Check circle (fixed) -->
    <g transform="translate(600, 150)">
      <circle cx="0" cy="0" r="22" fill="#4CAF50"/>
      <path d="M-10,0 L-3,7 L10,-6" fill="none" stroke="white" stroke-width="3.5" stroke-linecap="round" stroke-linejoin="round"/>
    </g>
    <!-- Arrow from warning to check -->
    <line x1="240" y1="150" x2="560" y2="150" stroke="#A5D6A7" stroke-width="2" stroke-dasharray="8,4"/>
    <polygon points="560,145 575,150 560,155" fill="#BF360C"/>
  </g>
  <!-- Error code blocks -->
  <g filter="url(#s)" opacity="0.6">
    <rect x="150" y="260" width="180" height="30" rx="4" fill="#F44336" opacity="0.3"/>
    <text x="240" y="280" text-anchor="middle" font-family="monospace" font-size="12" fill="#FFCDD2">Error: Install failed</text>
    <rect x="470" y="260" width="180" height="30" rx="4" fill="#4CAF50" opacity="0.3"/>
    <text x="560" y="280" text-anchor="middle" font-family="monospace" font-size="12" fill="#C8E6C9">Fixed: Success!</text>
  </g>
  <text x="400" y="370" text-anchor="middle" font-family="sans-serif" font-weight="800" font-size="28" fill="#E65100">Troubleshooting Guide</text>
  <text x="400" y="400" text-anchor="middle" font-family="sans-serif" font-weight="400" font-size="14" fill="#BF360C">Fix Common Issues &amp; Errors</text>
</svg>